<svg xmlns="http://www.w3.org/2000/svg" width="220" height="220" viewBox="0 0 220 220" fill="none">
  <path d="M112.386 17.6717L102.739 19.7026C101.439 19.9765 100.607 21.2528 100.88 22.5533L102.911 32.1993C103.185 33.4999 104.462 34.3322 105.762 34.0583L115.408 32.0274C116.709 31.7535 117.541 30.4773 117.267 29.1767L115.236 19.5307C114.962 18.2301 113.686 17.3978 112.386 17.6717Z" stroke="#263238" stroke-width="0.5" stroke-linecap="round" stroke-linejoin="round"/>
  <path d="M108.463 22.9348L109.692 28.7879" stroke="#263238" stroke-width="0.5" stroke-linecap="round" stroke-linejoin="round"/>
  <path d="M112.004 25.2418L106.151 26.4758" stroke="#263238" stroke-width="0.5" stroke-linecap="round" stroke-linejoin="round"/>
  <path d="M209.623 120.806L199.977 122.837C198.676 123.111 197.844 124.387 198.118 125.688L200.149 135.334C200.422 136.634 201.699 137.467 202.999 137.193L212.645 135.162C213.946 134.888 214.778 133.612 214.504 132.311L212.473 122.665C212.199 121.365 210.923 120.532 209.623 120.806Z" stroke="#263238" stroke-width="0.5" stroke-linecap="round" stroke-linejoin="round"/>
  <path d="M207.95 126.484L204.683 131.495" stroke="#263238" stroke-width="0.5" stroke-linecap="round" stroke-linejoin="round"/>
  <path d="M208.82 130.625L203.809 127.354" stroke="#263238" stroke-width="0.5" stroke-linecap="round" stroke-linejoin="round"/>
  <path d="M79.3877 183.597L69.5301 183.006C68.2011 182.926 67.059 183.939 66.9793 185.268L66.3878 195.125C66.3081 196.455 67.3208 197.597 68.6499 197.676L78.5074 198.268C79.8365 198.348 80.9785 197.335 81.0583 196.006L81.6497 186.148C81.7295 184.819 80.7167 183.677 79.3877 183.597Z" stroke="#263238" stroke-width="0.5" stroke-linecap="round" stroke-linejoin="round"/>
  <path d="M77.3393 190.281L71.3633 189.936" stroke="#263238" stroke-width="0.5" stroke-linecap="round" stroke-linejoin="round"/>
  <path d="M20.5707 114.982L11.2134 111.882C9.95176 111.464 8.59018 112.148 8.17221 113.409L5.07212 122.767C4.65414 124.028 5.33805 125.39 6.59967 125.808L15.957 128.908C17.2187 129.326 18.5802 128.642 18.9982 127.38L22.0983 118.023C22.5163 116.761 21.8324 115.4 20.5707 114.982Z" stroke="#263238" stroke-width="0.5" stroke-linecap="round" stroke-linejoin="round"/>
  <path d="M17.3288 118.517L9.84467 122.276" stroke="#263238" stroke-width="0.5" stroke-linecap="round" stroke-linejoin="round"/>
  <path d="M13.036 116.995C13.1257 117.18 13.1589 117.387 13.1314 117.591C13.1039 117.795 13.0168 117.986 12.8812 118.14C12.7456 118.295 12.5674 118.406 12.3689 118.46C12.1705 118.513 11.9606 118.507 11.7655 118.442C11.5705 118.377 11.399 118.256 11.2724 118.094C11.1459 117.932 11.07 117.736 11.0542 117.531C11.0384 117.326 11.0834 117.121 11.1836 116.942C11.2839 116.762 11.4348 116.616 11.6176 116.522C11.7413 116.458 11.8767 116.419 12.0158 116.408C12.1548 116.397 12.2947 116.414 12.427 116.458C12.5593 116.502 12.6814 116.572 12.786 116.664C12.8907 116.757 12.9757 116.869 13.036 116.995Z" stroke="#263238" stroke-width="0.5" stroke-linecap="round" stroke-linejoin="round"/>
  <path d="M16.0052 122.886C16.095 123.071 16.1281 123.278 16.1006 123.482C16.0731 123.686 15.9861 123.877 15.8504 124.031C15.7148 124.186 15.5366 124.297 15.3382 124.351C15.1397 124.404 14.9298 124.398 14.7348 124.333C14.5397 124.268 14.3682 124.147 14.2417 123.985C14.1151 123.823 14.0392 123.627 14.0234 123.422C14.0076 123.217 14.0527 123.012 14.1529 122.833C14.2531 122.653 14.4041 122.507 14.5868 122.413C14.7106 122.349 14.846 122.31 14.985 122.299C15.1241 122.288 15.2639 122.305 15.3962 122.349C15.5286 122.393 15.6507 122.463 15.7553 122.555C15.8599 122.648 15.9449 122.76 16.0052 122.886Z" stroke="#263238" stroke-width="0.5" stroke-linecap="round" stroke-linejoin="round"/>
  <path d="M112.997 180.721C112.018 182.138 110.641 183.234 109.04 183.868C107.439 184.503 105.686 184.649 104.002 184.288C102.319 183.926 100.78 183.073 99.5805 181.837C98.3812 180.601 97.5752 179.038 97.2646 177.344C96.954 175.65 97.1526 173.902 97.8353 172.321C98.518 170.74 99.6542 169.396 101.1 168.461C102.546 167.525 104.237 167.04 105.959 167.065C107.681 167.091 109.357 167.626 110.775 168.604C112.676 169.916 113.978 171.93 114.394 174.202C114.811 176.475 114.308 178.82 112.997 180.721Z" fill="#92E3A9"/>
  <mask id="mask0_629_49389" style="mask-type:luminance" maskUnits="userSpaceOnUse" x="97" y="167" width="18" height="18">
    <path d="M112.997 180.721C112.018 182.138 110.641 183.234 109.04 183.868C107.439 184.503 105.686 184.649 104.002 184.288C102.319 183.926 100.78 183.073 99.5805 181.837C98.3812 180.601 97.5752 179.038 97.2646 177.344C96.954 175.65 97.1526 173.902 97.8353 172.321C98.518 170.74 99.6542 169.396 101.1 168.461C102.546 167.525 104.237 167.04 105.959 167.065C107.681 167.091 109.357 167.626 110.775 168.604C112.676 169.916 113.978 171.93 114.394 174.202C114.811 176.475 114.308 178.82 112.997 180.721Z" fill="white"/>
  </mask>
  <g mask="url(#mask0_629_49389)">
    <path opacity="0.3" d="M111.862 179.937C111.038 181.128 109.879 182.049 108.531 182.582C107.184 183.116 105.708 183.237 104.292 182.932C102.875 182.627 101.581 181.909 100.572 180.868C99.5638 179.827 98.8866 178.511 98.6262 177.085C98.3658 175.66 98.5339 174.189 99.1093 172.859C99.6847 171.529 100.642 170.399 101.859 169.613C103.076 168.826 104.499 168.419 105.948 168.441C107.397 168.464 108.807 168.915 110 169.739C111.598 170.844 112.693 172.54 113.042 174.452C113.391 176.364 112.967 178.337 111.862 179.937Z" fill="black" fill-opacity="0.7"/>
    <path d="M111.862 179.937C111.038 181.128 109.879 182.049 108.531 182.582C107.184 183.116 105.708 183.237 104.292 182.932C102.875 182.627 101.581 181.909 100.572 180.868C99.5638 179.827 98.8866 178.511 98.6262 177.085C98.3658 175.66 98.5339 174.189 99.1093 172.859C99.6847 171.529 100.642 170.399 101.859 169.613C103.076 168.826 104.499 168.419 105.948 168.441C107.397 168.464 108.807 168.915 110 169.739C111.598 170.844 112.693 172.54 113.042 174.452C113.391 176.364 112.967 178.337 111.862 179.937Z" stroke="#263238" stroke-width="0.5" stroke-linecap="round" stroke-linejoin="round"/>
    <path d="M107.711 172.107L108.066 171.601L108.945 172.207L108.591 172.717C109.248 173.403 109.234 174.259 108.591 175.185L108.439 175.403L107.423 174.698L107.621 174.415C107.957 173.942 107.891 173.606 107.55 173.37C107.21 173.133 106.884 173.181 106.543 173.672C106.203 174.164 106.165 174.618 106.491 175.715C106.884 177.029 106.813 177.776 106.274 178.551C105.631 179.497 104.818 179.8 103.948 179.431L103.603 179.927L102.738 179.327L103.083 178.826C102.416 178.135 102.44 177.27 103.083 176.339L103.404 175.866L104.421 176.57L104.052 177.105C103.711 177.577 103.806 177.918 104.146 178.159C104.487 178.4 104.827 178.367 105.168 177.875C105.508 177.384 105.551 176.901 105.22 175.833C104.818 174.533 104.893 173.776 105.437 172.996C106.047 172.079 106.846 171.753 107.711 172.107Z" fill="#92E3A9" stroke="#263238" stroke-width="0.5" stroke-linecap="round" stroke-linejoin="round"/>
    <path opacity="0.2" d="M103.404 168.708C103.405 170.744 102.877 172.745 101.87 174.515C100.864 176.284 99.4145 177.762 97.6644 178.802C97.2491 177.685 97.0676 176.494 97.1311 175.304C97.1946 174.114 97.5018 172.95 98.0337 171.884C98.5656 170.817 99.3108 169.871 100.223 169.105C101.136 168.338 102.196 167.767 103.338 167.427C103.384 167.852 103.406 168.28 103.404 168.708Z" fill="black" fill-opacity="0.7"/>
  </g>
  <path d="M112.997 180.721C112.018 182.138 110.641 183.234 109.04 183.868C107.439 184.503 105.686 184.649 104.002 184.288C102.319 183.926 100.78 183.073 99.5805 181.837C98.3812 180.601 97.5752 179.038 97.2646 177.344C96.954 175.65 97.1526 173.902 97.8353 172.321C98.518 170.74 99.6542 169.396 101.1 168.461C102.546 167.525 104.237 167.04 105.959 167.065C107.681 167.091 109.357 167.626 110.775 168.604C112.676 169.916 113.978 171.93 114.394 174.202C114.811 176.475 114.308 178.82 112.997 180.721Z" stroke="#263238" stroke-width="0.5" stroke-linecap="round" stroke-linejoin="round"/>
  <path d="M93.3952 177.152C98.2074 177.152 102.109 173.251 102.109 168.438C102.109 163.626 98.2074 159.725 93.3952 159.725C88.5829 159.725 84.6818 163.626 84.6818 168.438C84.6818 173.251 88.5829 177.152 93.3952 177.152Z" fill="#92E3A9" stroke="#263238" stroke-width="0.5" stroke-linecap="round" stroke-linejoin="round"/>
  <path opacity="0.3" d="M93.3949 175.767C97.4421 175.767 100.723 172.486 100.723 168.438C100.723 164.391 97.4421 161.11 93.3949 161.11C89.3477 161.11 86.0668 164.391 86.0668 168.438C86.0668 172.486 89.3477 175.767 93.3949 175.767Z" fill="black" fill-opacity="0.7"/>
  <path d="M93.3949 175.767C97.4421 175.767 100.723 172.486 100.723 168.438C100.723 164.391 97.4421 161.11 93.3949 161.11C89.3477 161.11 86.0668 164.391 86.0668 168.438C86.0668 172.486 89.3477 175.767 93.3949 175.767Z" stroke="#263238" stroke-width="0.5" stroke-linecap="round" stroke-linejoin="round"/>
  <path d="M92.8607 164.358V163.744H93.9292V164.358C94.8747 164.552 95.3475 165.261 95.3475 166.391V166.637H94.1088V166.292C94.1088 165.696 93.8724 165.469 93.4564 165.469C93.0403 165.469 92.8039 165.696 92.8039 166.292C92.8039 166.888 93.0403 167.299 93.9197 168.004C94.9882 168.859 95.3381 169.512 95.3381 170.462C95.3381 171.592 94.8653 172.32 93.9197 172.509V173.114H92.8512V172.509C91.9056 172.32 91.4329 171.592 91.4329 170.462V169.895H92.6668V170.547C92.6668 171.143 92.9269 171.356 93.3429 171.356C93.759 171.356 94.0237 171.143 94.0237 170.547C94.0237 169.951 93.7873 169.526 92.9032 168.836C91.8347 167.989 91.4849 167.327 91.4849 166.372C91.4801 165.276 91.9435 164.562 92.8607 164.358Z" fill="#92E3A9" stroke="#263238" stroke-width="0.5" stroke-linecap="round" stroke-linejoin="round"/>
  <path d="M142.297 175.757C144.893 171.706 143.713 166.316 139.662 163.72C135.61 161.124 130.22 162.304 127.624 166.356C125.028 170.407 126.208 175.797 130.26 178.393C134.312 180.989 139.701 179.809 142.297 175.757Z" fill="#92E3A9" stroke="#263238" stroke-width="0.5" stroke-linecap="round" stroke-linejoin="round"/>
  <path opacity="0.3" d="M140.328 166.075C141.315 167.137 141.964 168.467 142.195 169.898C142.425 171.329 142.226 172.797 141.622 174.115C141.018 175.432 140.037 176.542 138.803 177.302C137.569 178.062 136.137 178.439 134.689 178.386C133.24 178.332 131.84 177.85 130.665 177.001C129.491 176.151 128.595 174.973 128.09 173.614C127.585 172.255 127.495 170.777 127.83 169.367C128.166 167.957 128.912 166.678 129.974 165.692C130.679 165.036 131.506 164.526 132.407 164.19C133.309 163.854 134.269 163.7 135.23 163.736C136.192 163.771 137.138 163.996 138.012 164.397C138.887 164.799 139.674 165.369 140.328 166.075Z" fill="black" fill-opacity="0.7"/>
  <path d="M140.328 166.075C141.315 167.137 141.964 168.467 142.195 169.898C142.425 171.329 142.226 172.797 141.622 174.115C141.018 175.432 140.037 176.542 138.803 177.302C137.569 178.062 136.137 178.439 134.689 178.386C133.24 178.332 131.84 177.85 130.665 177.001C129.491 176.151 128.595 174.973 128.09 173.614C127.585 172.255 127.495 170.777 127.83 169.367C128.166 167.957 128.912 166.678 129.974 165.692C130.679 165.036 131.506 164.526 132.407 164.19C133.309 163.854 134.269 163.7 135.23 163.736C136.192 163.771 137.138 163.996 138.012 164.397C138.887 164.799 139.674 165.369 140.328 166.075Z" stroke="#263238" stroke-width="0.5" stroke-linecap="round" stroke-linejoin="round"/>
  <path d="M131.794 168.439L131.374 167.966L132.154 167.238L132.575 167.71C133.388 167.238 134.22 167.417 134.986 168.245L135.165 168.434L134.262 169.275L134.026 169.025C133.619 168.59 133.293 168.585 132.991 168.869C132.688 169.152 132.664 169.479 133.066 169.914C133.468 170.349 133.931 170.49 135.052 170.41C136.418 170.306 137.132 170.533 137.78 171.233C138.546 172.06 138.683 172.921 138.134 173.691L138.546 174.136L137.761 174.864L137.35 174.419C136.532 174.92 135.69 174.712 134.924 173.885L134.532 173.469L135.44 172.627L135.884 173.1C136.291 173.535 136.626 173.516 136.934 173.233C137.241 172.949 137.283 172.613 136.877 172.178C136.47 171.743 136.007 171.592 134.896 171.705C133.534 171.814 132.811 171.578 132.168 170.878C131.407 170.046 131.26 169.209 131.794 168.439Z" fill="#92E3A9" stroke="#263238" stroke-width="0.5" stroke-linecap="round" stroke-linejoin="round"/>
  <path opacity="0.2" d="M131.374 133.188C131.374 133.188 131.336 151.267 131.374 152.322C131.412 153.376 132.792 159.725 132.792 159.725L128.4 167.819L132.182 170.864L139.534 163.64C139.534 163.64 145.794 167.503 146.938 173.034C148.082 178.566 154.895 182.594 161.963 197.912C169.031 213.23 177.092 163.64 177.092 163.64L155.282 136.181L131.374 133.188Z" fill="black" fill-opacity="0.7"/>
  <path d="M198.046 36.0593L191.365 101.247L187.257 141.348L129.842 135.467L118.67 134.323L111.517 133.59L117.857 71.7024L122.306 28.3009L198.046 36.0593Z" fill="white"/>
  <mask id="mask1_629_49389" style="mask-type:luminance" maskUnits="userSpaceOnUse" x="111" y="28" width="88" height="114">
    <path d="M198.046 36.0593L191.365 101.247L187.257 141.348L129.842 135.467L118.67 134.323L111.517 133.59L117.857 71.7024L122.306 28.3009L198.046 36.0593Z" fill="white"/>
  </mask>
  <g mask="url(#mask1_629_49389)">
    <path d="M176.047 38.513L143.354 35.161C143.208 35.1461 143.061 35.16 142.92 35.2021C142.78 35.2442 142.649 35.3135 142.535 35.4061C142.422 35.4988 142.327 35.6129 142.258 35.742C142.188 35.8711 142.145 36.0126 142.13 36.1585C142.115 36.3044 142.129 36.4518 142.171 36.5923C142.213 36.7328 142.282 36.8637 142.375 36.9774C142.467 37.0911 142.582 37.1854 142.711 37.255C142.84 37.3246 142.981 37.3681 143.127 37.383L175.82 40.7351C176.115 40.7652 176.409 40.677 176.639 40.4899C176.869 40.3028 177.015 40.0322 177.045 39.7375C177.075 39.4428 176.987 39.1483 176.799 38.9186C176.612 38.689 176.342 38.5431 176.047 38.513Z" fill="#263238"/>
    <path d="M167.405 42.2242L151.06 40.5459C150.913 40.5313 150.765 40.5759 150.65 40.6697C150.535 40.7636 150.461 40.8993 150.446 41.047C150.439 41.12 150.446 41.1936 150.467 41.2638C150.489 41.3339 150.523 41.3992 150.57 41.4558C150.617 41.5125 150.674 41.5594 150.739 41.5939C150.803 41.6284 150.874 41.6498 150.947 41.6569L167.291 43.3353C167.439 43.3498 167.587 43.3053 167.702 43.2114C167.817 43.1175 167.89 42.9819 167.906 42.8341C167.914 42.7611 167.907 42.6872 167.886 42.6168C167.865 42.5464 167.83 42.4808 167.783 42.4241C167.736 42.3673 167.679 42.3204 167.614 42.2861C167.549 42.2518 167.478 42.2307 167.405 42.2242Z" fill="#263238"/>
    <path d="M185.394 90.3347L132.329 84.8977C132.185 84.8815 132.041 84.9217 131.926 85.0099C131.811 85.0981 131.735 85.2274 131.714 85.3705C131.7 85.5184 131.744 85.666 131.838 85.7811C131.932 85.8963 132.068 85.9696 132.215 85.9851L185.281 91.4647C185.354 91.4719 185.427 91.4646 185.497 91.4433C185.567 91.422 185.633 91.3871 185.689 91.3405C185.746 91.294 185.793 91.2367 185.827 91.1721C185.862 91.1074 185.883 91.0365 185.89 90.9636C185.901 90.8894 185.896 90.8138 185.877 90.7415C185.857 90.6692 185.823 90.6016 185.777 90.5428C185.731 90.484 185.673 90.4352 185.607 90.3995C185.541 90.3637 185.469 90.3417 185.394 90.3347Z" fill="#263238"/>
    <path d="M185.001 94.3299L123.28 88.0087C123.207 88.0009 123.133 88.0076 123.063 88.0283C122.993 88.0491 122.928 88.0835 122.871 88.1297C122.814 88.1759 122.767 88.2328 122.733 88.2973C122.698 88.3617 122.677 88.4324 122.67 88.5052C122.653 88.6489 122.694 88.7934 122.782 88.908C122.87 89.0227 122.999 89.0986 123.143 89.1198L184.845 95.4409C184.918 95.4483 184.992 95.4414 185.062 95.4203C185.133 95.3993 185.198 95.3646 185.255 95.3183C185.312 95.272 185.359 95.2149 185.394 95.1504C185.429 95.0858 185.45 95.0151 185.458 94.9421C185.465 94.8692 185.458 94.7954 185.437 94.7252C185.416 94.6549 185.381 94.5895 185.335 94.5327C185.289 94.4758 185.232 94.4286 185.167 94.3938C185.103 94.359 185.032 94.3373 184.959 94.3299H185.001Z" fill="#263238"/>
    <path d="M167.296 96.5568L122.854 92.0039C122.707 91.9882 122.559 92.0317 122.444 92.1248C122.329 92.2179 122.255 92.353 122.239 92.5003C122.224 92.6477 122.267 92.7952 122.36 92.9105C122.453 93.0257 122.589 93.0993 122.736 93.115L167.177 97.6679C167.25 97.675 167.324 97.6678 167.394 97.6465C167.464 97.6252 167.53 97.5902 167.586 97.5437C167.643 97.4971 167.69 97.4399 167.724 97.3752C167.759 97.3105 167.78 97.2397 167.787 97.1667C167.795 97.0944 167.789 97.0212 167.768 96.9513C167.748 96.8815 167.714 96.8164 167.668 96.7597C167.622 96.7031 167.566 96.656 167.502 96.6212C167.438 96.5863 167.368 96.5645 167.296 96.5568Z" fill="#263238"/>
    <path d="M122.173 96.3121L120.368 113.93L182.572 120.304L184.377 102.685L122.173 96.3121Z" fill="#BFBFBF" stroke="#263238" stroke-width="0.5" stroke-miterlimit="10"/>
    <path d="M150.698 75.9251C156.574 71.0296 157.369 62.2978 152.473 56.422C147.578 50.5462 138.846 49.7515 132.97 54.647C127.094 59.5426 126.3 68.2744 131.195 74.1502C136.091 80.026 144.823 80.8207 150.698 75.9251Z" fill="#92E3A9"/>
    <mask id="mask2_629_49389" style="mask-type:luminance" maskUnits="userSpaceOnUse" x="127" y="51" width="29" height="29">
      <path d="M150.699 75.9252C156.574 71.0297 157.369 62.2979 152.474 56.4221C147.578 50.5463 138.846 49.7516 132.97 54.6471C127.095 59.5427 126.3 68.2745 131.195 74.1503C136.091 80.0261 144.823 80.8208 150.699 75.9252Z" fill="white"/>
    </mask>
    <g mask="url(#mask2_629_49389)">
      <path opacity="0.5" d="M150.699 75.9252C156.574 71.0297 157.369 62.2979 152.474 56.4221C147.578 50.5463 138.846 49.7516 132.97 54.6471C127.095 59.5427 126.3 68.2745 131.195 74.1503C136.091 80.0261 144.823 80.8208 150.699 75.9252Z" fill="white"/>
    </g>
    <path d="M150.698 75.9251C156.574 71.0296 157.369 62.2978 152.473 56.422C147.578 50.5462 138.846 49.7515 132.97 54.647C127.094 59.5426 126.3 68.2744 131.195 74.1502C136.091 80.026 144.823 80.8207 150.698 75.9251Z" stroke="#263238" stroke-width="0.5" stroke-miterlimit="10"/>
    <path d="M142.233 65.2538L153.75 71.0454C154.825 68.8138 155.252 66.3255 154.983 63.8634C154.714 61.4012 153.759 59.0639 152.228 57.1172L142.233 65.2538Z" fill="white"/>
    <path d="M142.309 64.6297L151.954 56.7815C150.514 55.0656 148.66 53.7445 146.569 52.9425L144.815 57.7176L142.309 64.6297Z" fill="#92E3A9"/>
    <path d="M143.397 52.167L142.233 63.5706L146.158 52.7864C145.262 52.4812 144.336 52.2735 143.397 52.167Z" fill="#757575"/>
    <path d="M141.633 65.1497L142.971 52.1198C140.692 51.9284 138.401 52.3309 136.324 53.2882C134.246 54.2454 132.452 55.7247 131.116 57.5818C129.781 59.4389 128.949 61.6104 128.702 63.8847C128.456 66.1589 128.803 68.4582 129.71 70.5584L141.633 65.1497Z" fill="#999999"/>
    <path d="M140.489 78.4539C143.119 78.7214 145.768 78.1957 148.096 76.9445C150.424 75.6932 152.324 73.7737 153.552 71.4331L141.832 65.5375L129.885 70.965C130.86 73.019 132.348 74.787 134.206 76.0987C136.063 77.4104 138.227 78.2215 140.489 78.4539Z" fill="#BFBFBF"/>
    <path d="M164.056 56.3013L162.481 56.1399C162.317 56.1232 162.171 56.2422 162.154 56.4059L161.992 57.9814C161.976 58.1451 162.095 58.2913 162.258 58.3081L163.834 58.4695C163.998 58.4863 164.144 58.3672 164.161 58.2036L164.322 56.628C164.339 56.4644 164.22 56.3181 164.056 56.3013Z" fill="#92E3A9" stroke="#263238" stroke-width="0.5" stroke-miterlimit="10"/>
    <path d="M186.009 59.3534L165.651 57.2684C165.603 57.2464 165.563 57.21 165.537 57.1642C165.511 57.1184 165.5 57.0656 165.506 57.0132C165.512 56.9609 165.534 56.9117 165.569 56.8726C165.604 56.8336 165.651 56.8066 165.703 56.7956L186.061 58.8427C186.122 58.8548 186.177 58.8894 186.214 58.9397C186.251 58.9901 186.268 59.0525 186.262 59.1147C186.255 59.177 186.225 59.2345 186.179 59.276C186.132 59.3176 186.071 59.3401 186.009 59.3392V59.3534Z" fill="#263238"/>
    <path d="M183.904 60.2328L165.542 58.3416C165.476 58.3345 165.416 58.3016 165.374 58.2503C165.332 58.1989 165.313 58.1332 165.319 58.0674C165.322 58.0346 165.332 58.0028 165.347 57.9737C165.363 57.9447 165.384 57.919 165.409 57.8983C165.435 57.8776 165.465 57.8622 165.496 57.8531C165.528 57.8439 165.561 57.8413 165.594 57.8452L183.956 59.7363C184.018 59.7484 184.073 59.783 184.11 59.8333C184.147 59.8837 184.164 59.9461 184.157 60.0083C184.151 60.0706 184.121 60.1281 184.074 60.1696C184.028 60.2112 183.967 60.2337 183.904 60.2328Z" fill="#263238"/>
    <path d="M163.559 61.1565L161.983 60.995C161.82 60.9783 161.673 61.0974 161.657 61.261L161.495 62.8366C161.478 63.0002 161.597 63.1465 161.761 63.1632L163.337 63.3247C163.5 63.3414 163.647 63.2224 163.663 63.0587L163.825 61.4831C163.841 61.3195 163.722 61.1732 163.559 61.1565Z" fill="#757575" stroke="#263238" stroke-width="0.5" stroke-linecap="round" stroke-linejoin="round"/>
    <path d="M185.512 64.2088L165.144 62.1239C165.083 62.1118 165.028 62.0772 164.991 62.0269C164.954 61.9765 164.937 61.9141 164.944 61.8519C164.95 61.7896 164.98 61.7321 165.026 61.6906C165.073 61.649 165.134 61.6265 165.196 61.6274L185.55 63.7124C185.616 63.7196 185.677 63.7522 185.719 63.8034C185.761 63.8547 185.782 63.9204 185.777 63.9866C185.77 64.0506 185.738 64.1093 185.689 64.1507C185.639 64.1921 185.576 64.2129 185.512 64.2088Z" fill="#263238"/>
    <path d="M183.403 65.0929L165.045 63.2018C164.979 63.1955 164.918 63.1631 164.875 63.1117C164.832 63.0602 164.812 62.994 164.818 62.9276C164.825 62.8611 164.857 62.7999 164.908 62.7573C164.96 62.7147 165.026 62.6944 165.093 62.7006L183.455 64.5918C183.488 64.5952 183.52 64.605 183.549 64.6208C183.578 64.6365 183.604 64.6578 183.625 64.6835C183.646 64.7092 183.661 64.7388 183.671 64.7705C183.68 64.8022 183.683 64.8354 183.68 64.8683C183.677 64.9012 183.667 64.9331 183.651 64.9622C183.635 64.9913 183.614 65.017 183.588 65.0379C183.563 65.0587 183.533 65.0743 183.501 65.0838C183.47 65.0932 183.436 65.0963 183.403 65.0929Z" fill="#263238"/>
    <path d="M163.062 66.0165L161.486 65.8551C161.323 65.8383 161.176 65.9574 161.16 66.121L160.998 67.6966C160.981 67.8603 161.101 68.0065 161.264 68.0233L162.84 68.1847C163.003 68.2015 163.15 68.0824 163.166 67.9188L163.328 66.3432C163.345 66.1795 163.226 66.0333 163.062 66.0165Z" fill="#999999" stroke="#263238" stroke-width="0.5" stroke-linecap="round" stroke-linejoin="round"/>
    <path d="M185.002 69.0689L164.672 66.9792C164.637 66.9787 164.603 66.9709 164.571 66.9564C164.54 66.9419 164.511 66.921 164.488 66.895C164.465 66.8689 164.448 66.8384 164.437 66.8053C164.426 66.7721 164.423 66.7371 164.426 66.7025C164.43 66.6679 164.441 66.6345 164.458 66.6043C164.475 66.574 164.499 66.5478 164.527 66.5271C164.555 66.5064 164.587 66.4918 164.621 66.4842C164.655 66.4765 164.69 66.4761 164.724 66.4828L185.077 68.5677C185.11 68.5712 185.142 68.581 185.171 68.5968C185.2 68.6125 185.226 68.6338 185.247 68.6595C185.268 68.6852 185.283 68.7147 185.293 68.7465C185.302 68.7782 185.305 68.8114 185.302 68.8443C185.298 68.8772 185.289 68.9091 185.273 68.9382C185.257 68.9673 185.236 68.993 185.21 69.0139C185.184 69.0347 185.155 69.0503 185.123 69.0598C185.091 69.0692 185.058 69.0723 185.025 69.0689H185.002Z" fill="#263238"/>
    <path d="M182.907 69.9484L164.544 68.0573C164.478 68.0502 164.418 68.0173 164.377 67.9659C164.335 67.9146 164.315 67.8489 164.322 67.7831C164.329 67.717 164.362 67.6563 164.413 67.614C164.464 67.5716 164.53 67.5508 164.596 67.5561L182.959 69.4473C183.025 69.4542 183.086 69.4872 183.129 69.5391C183.171 69.5909 183.19 69.6574 183.184 69.7239C183.177 69.7903 183.144 69.8513 183.092 69.8934C183.04 69.9355 182.973 69.9553 182.907 69.9484Z" fill="#263238"/>
    <path d="M162.564 70.8759L160.989 70.7145C160.825 70.6977 160.679 70.8168 160.662 70.9804L160.501 72.556C160.484 72.7196 160.603 72.8659 160.767 72.8826L162.342 73.0441C162.506 73.0608 162.652 72.9418 162.669 72.7781L162.83 71.2025C162.847 71.0389 162.728 70.8927 162.564 70.8759Z" fill="#BFBFBF" stroke="#263238" stroke-width="0.5" stroke-miterlimit="10"/>
    <path d="M184.529 73.9246L164.175 71.8396C164.142 71.8367 164.11 71.8272 164.081 71.8118C164.052 71.7964 164.026 71.7753 164.005 71.7498C163.984 71.7243 163.968 71.6949 163.958 71.6632C163.949 71.6316 163.945 71.5983 163.948 71.5654C163.956 71.4993 163.988 71.4386 164.04 71.3963C164.091 71.3539 164.156 71.3332 164.223 71.3385L184.581 73.4282C184.616 73.4287 184.65 73.4364 184.681 73.4509C184.713 73.4654 184.741 73.4864 184.764 73.5124C184.788 73.5384 184.805 73.569 184.816 73.6021C184.826 73.6352 184.83 73.6702 184.826 73.7048C184.823 73.7394 184.812 73.7729 184.795 73.8031C184.777 73.8333 184.754 73.8596 184.726 73.8803C184.698 73.9009 184.666 73.9156 184.632 73.9232C184.598 73.9308 184.563 73.9313 184.529 73.9246Z" fill="#263238"/>
    <path d="M182.411 74.8039L164.048 72.9128C163.986 72.9007 163.932 72.8661 163.894 72.8158C163.857 72.7655 163.84 72.703 163.847 72.6408C163.853 72.5786 163.883 72.521 163.93 72.4795C163.976 72.438 164.037 72.4154 164.1 72.4164L182.463 74.3075C182.501 74.2992 182.542 74.3002 182.58 74.3105C182.618 74.3208 182.654 74.34 182.683 74.3666C182.712 74.3932 182.735 74.4264 182.749 74.4635C182.763 74.5006 182.768 74.5405 182.764 74.5799C182.76 74.6194 182.746 74.6572 182.724 74.6903C182.702 74.7235 182.673 74.7509 182.639 74.7705C182.604 74.7901 182.565 74.8012 182.526 74.8029C182.486 74.8046 182.447 74.7968 182.411 74.7803V74.8039Z" fill="#263238"/>
    <path d="M162.067 75.7312L160.492 75.5698C160.328 75.553 160.182 75.6721 160.165 75.8357L160.004 77.4113C159.987 77.575 160.106 77.7212 160.27 77.738L161.845 77.8994C162.009 77.9162 162.155 77.7971 162.172 77.6335L162.333 76.0579C162.35 75.8943 162.231 75.748 162.067 75.7312Z" fill="white" stroke="#263238" stroke-width="0.5" stroke-linecap="round" stroke-linejoin="round"/>
    <path d="M184.018 78.7802L163.66 76.6952C163.612 76.6732 163.572 76.6368 163.546 76.591C163.521 76.5452 163.51 76.4924 163.515 76.44C163.521 76.3877 163.543 76.3385 163.579 76.2995C163.614 76.2604 163.661 76.2334 163.712 76.2224L184.056 78.2837C184.095 78.2754 184.135 78.2765 184.173 78.2867C184.212 78.297 184.247 78.3162 184.276 78.3428C184.306 78.3694 184.328 78.4026 184.343 78.4397C184.357 78.4768 184.362 78.5167 184.357 78.5562C184.353 78.5956 184.339 78.6335 184.318 78.6666C184.296 78.6997 184.266 78.7272 184.232 78.7468C184.197 78.7663 184.159 78.7774 184.119 78.7791C184.079 78.7808 184.04 78.7731 184.004 78.7565L184.018 78.7802Z" fill="#263238"/>
    <path d="M181.914 79.6454L163.551 77.7542C163.517 77.7537 163.482 77.746 163.451 77.7315C163.419 77.717 163.391 77.696 163.368 77.67C163.345 77.644 163.327 77.6134 163.317 77.5803C163.306 77.5472 163.302 77.5122 163.306 77.4776C163.309 77.443 163.32 77.4095 163.338 77.3793C163.355 77.3491 163.378 77.3228 163.406 77.3021C163.434 77.2814 163.466 77.2668 163.5 77.2592C163.534 77.2516 163.569 77.2511 163.603 77.2578L181.962 79.1489C181.997 79.1488 182.031 79.1559 182.063 79.17C182.095 79.184 182.124 79.2047 182.148 79.2305C182.171 79.2563 182.189 79.2869 182.2 79.3201C182.211 79.3533 182.215 79.3884 182.212 79.4233C182.209 79.4581 182.198 79.4919 182.181 79.5224C182.164 79.5529 182.141 79.5795 182.112 79.6004C182.084 79.6213 182.052 79.6361 182.018 79.6439C181.984 79.6516 181.949 79.6521 181.914 79.6454Z" fill="#263238"/>
    <path d="M174.96 114.363L176.121 114.482L176.802 107.837L175.641 107.718L174.96 114.363Z" fill="#757575" stroke="#263238" stroke-width="0.5" stroke-linecap="round" stroke-linejoin="round"/>
    <path d="M175.065 113.358L176.227 113.477L176.548 110.35L175.386 110.231L175.065 113.358Z" fill="#92E3A9" stroke="#263238" stroke-width="0.5" stroke-miterlimit="10"/>
    <path d="M177.752 112.951L178.914 113.07L179.595 106.425L178.433 106.306L177.752 112.951Z" fill="#757575" stroke="#263238" stroke-width="0.5" stroke-linecap="round" stroke-linejoin="round"/>
    <path d="M178.248 108.062L177.928 111.189L179.089 111.308L179.41 108.181L178.248 108.062Z" fill="#92E3A9" stroke="#263238" stroke-width="0.5" stroke-miterlimit="10"/>
    <path d="M180.235 114.488L181.397 114.607L182.078 107.962L180.916 107.843L180.235 114.488Z" fill="#757575" stroke="#263238" stroke-width="0.5" stroke-linecap="round" stroke-linejoin="round"/>
    <path d="M180.491 111.995L181.652 112.114L181.973 108.986L180.811 108.867L180.491 111.995Z" fill="#92E3A9" stroke="#263238" stroke-width="0.5" stroke-miterlimit="10"/>
    <path d="M172.479 112.783L173.64 112.902L174.321 106.257L173.16 106.138L172.479 112.783Z" fill="#757575" stroke="#263238" stroke-width="0.5" stroke-linecap="round" stroke-linejoin="round"/>
    <path d="M172.585 111.774L173.746 111.893L174.067 108.765L172.905 108.646L172.585 111.774Z" fill="#92E3A9" stroke="#263238" stroke-width="0.5" stroke-miterlimit="10"/>
    <path d="M169.663 114.474L170.825 114.593L171.506 107.948L170.344 107.829L169.663 114.474Z" fill="#757575" stroke="#263238" stroke-width="0.5" stroke-linecap="round" stroke-linejoin="round"/>
    <path d="M169.738 113.729L170.899 113.848L171.22 110.72L170.058 110.601L169.738 113.729Z" fill="#92E3A9" stroke="#263238" stroke-width="0.5" stroke-miterlimit="10"/>
    <path d="M167.221 112.49L168.383 112.609L169.064 105.964L167.902 105.845L167.221 112.49Z" fill="#757575" stroke="#263238" stroke-width="0.5" stroke-linecap="round" stroke-linejoin="round"/>
    <path d="M167.247 112.249L168.409 112.368L168.73 109.241L167.568 109.122L167.247 112.249Z" fill="#92E3A9" stroke="#263238" stroke-width="0.5" stroke-miterlimit="10"/>
    <path d="M164.247 115.699L165.409 115.818L166.09 109.172L164.928 109.053L164.247 115.699Z" fill="#757575" stroke="#263238" stroke-width="0.5" stroke-linecap="round" stroke-linejoin="round"/>
    <path d="M164.268 115.453L165.43 115.572L165.75 112.444L164.588 112.325L164.268 115.453Z" fill="#92E3A9" stroke="#263238" stroke-width="0.5" stroke-miterlimit="10"/>
    <path d="M162.061 111.242L163.223 111.361L163.904 104.715L162.742 104.596L162.061 111.242Z" fill="#757575" stroke="#263238" stroke-width="0.5" stroke-linecap="round" stroke-linejoin="round"/>
    <path d="M162.167 110.242L163.329 110.361L163.649 107.233L162.487 107.114L162.167 110.242Z" fill="#92E3A9" stroke="#263238" stroke-width="0.5" stroke-miterlimit="10"/>
    <path d="M159.48 110.593L160.641 110.712L161.322 104.067L160.161 103.948L159.48 110.593Z" fill="#757575" stroke="#263238" stroke-width="0.5" stroke-linecap="round" stroke-linejoin="round"/>
    <path d="M159.741 108.08L160.902 108.199L161.223 105.071L160.061 104.952L159.741 108.08Z" fill="#92E3A9" stroke="#263238" stroke-width="0.5" stroke-miterlimit="10"/>
    <path d="M156.443 114.493L157.605 114.612L158.286 107.967L157.124 107.848L156.443 114.493Z" fill="#757575" stroke="#263238" stroke-width="0.5" stroke-linecap="round" stroke-linejoin="round"/>
    <path d="M156.726 111.736L157.888 111.855L158.208 108.727L157.046 108.608L156.726 111.736Z" fill="#92E3A9" stroke="#263238" stroke-width="0.5" stroke-miterlimit="10"/>
    <path d="M154.125 111.299L155.287 111.418L155.968 104.773L154.806 104.654L154.125 111.299Z" fill="#757575" stroke="#263238" stroke-width="0.5" stroke-linecap="round" stroke-linejoin="round"/>
    <path d="M154.253 110.049L155.414 110.168L155.735 107.041L154.573 106.922L154.253 110.049Z" fill="#92E3A9" stroke="#263238" stroke-width="0.5" stroke-miterlimit="10"/>
    <path d="M151.324 112.774L152.486 112.893L153.167 106.247L152.005 106.128L151.324 112.774Z" fill="#757575" stroke="#263238" stroke-width="0.5" stroke-linecap="round" stroke-linejoin="round"/>
    <path d="M151.434 111.764L152.596 111.883L152.917 108.756L151.755 108.637L151.434 111.764Z" fill="#92E3A9" stroke="#263238" stroke-width="0.5" stroke-miterlimit="10"/>
    <path d="M148.404 115.487L149.565 115.606L150.246 108.96L149.085 108.841L148.404 115.487Z" fill="#757575" stroke="#263238" stroke-width="0.5" stroke-linecap="round" stroke-linejoin="round"/>
    <path d="M148.412 115.482L149.574 115.601L149.895 112.473L148.733 112.354L148.412 115.482Z" fill="#92E3A9" stroke="#263238" stroke-width="0.5" stroke-miterlimit="10"/>
    <path d="M146.224 111.007L147.386 111.126L148.067 104.48L146.905 104.361L146.224 111.007Z" fill="#757575" stroke="#263238" stroke-width="0.5" stroke-linecap="round" stroke-linejoin="round"/>
    <path d="M146.299 110.251L147.461 110.37L147.781 107.242L146.62 107.123L146.299 110.251Z" fill="#92E3A9" stroke="#263238" stroke-width="0.5" stroke-miterlimit="10"/>
    <path d="M143.902 107.822L145.064 107.941L145.745 101.296L144.583 101.177L143.902 107.822Z" fill="#757575" stroke="#263238" stroke-width="0.5" stroke-linecap="round" stroke-linejoin="round"/>
    <path d="M143.986 107.067L145.147 107.186L145.468 104.058L144.306 103.939L143.986 107.067Z" fill="#92E3A9" stroke="#263238" stroke-width="0.5" stroke-miterlimit="10"/>
    <path d="M140.927 111.069L142.089 111.188L142.769 104.542L141.608 104.423L140.927 111.069Z" fill="#757575" stroke="#263238" stroke-width="0.5" stroke-linecap="round" stroke-linejoin="round"/>
    <path d="M141.183 108.57L142.345 108.689L142.665 105.561L141.504 105.442L141.183 108.57Z" fill="#92E3A9" stroke="#263238" stroke-width="0.5" stroke-miterlimit="10"/>
    <path d="M137.929 114.555L139.091 114.674L139.772 108.029L138.61 107.91L137.929 114.555Z" fill="#757575" stroke="#263238" stroke-width="0.5" stroke-linecap="round" stroke-linejoin="round"/>
    <path d="M138.234 111.548L139.396 111.667L139.716 108.539L138.554 108.42L138.234 111.548Z" fill="#92E3A9" stroke="#263238" stroke-width="0.5" stroke-miterlimit="10"/>
    <path d="M135.696 110.531L136.858 110.65L137.539 104.004L136.377 103.885L135.696 110.531Z" fill="#757575" stroke="#263238" stroke-width="0.5" stroke-linecap="round" stroke-linejoin="round"/>
    <path d="M135.797 109.535L136.959 109.654L137.28 106.527L136.118 106.408L135.797 109.535Z" fill="#92E3A9" stroke="#263238" stroke-width="0.5" stroke-miterlimit="10"/>
    <path d="M133.194 109.162L134.355 109.281L135.036 102.635L133.874 102.516L133.194 109.162Z" fill="#757575" stroke="#263238" stroke-width="0.5" stroke-linecap="round" stroke-linejoin="round"/>
    <path d="M133.477 106.404L134.638 106.523L134.959 103.395L133.797 103.276L133.477 106.404Z" fill="#92E3A9" stroke="#263238" stroke-width="0.5" stroke-miterlimit="10"/>
    <path d="M130.361 110.968L131.522 111.087L132.203 104.441L131.042 104.322L130.361 110.968Z" fill="#757575" stroke="#263238" stroke-width="0.5" stroke-linecap="round" stroke-linejoin="round"/>
    <path d="M130.365 110.962L131.526 111.081L131.847 107.953L130.685 107.834L130.365 110.962Z" fill="#92E3A9" stroke="#263238" stroke-width="0.5" stroke-miterlimit="10"/>
    <path d="M127.958 108.619L129.12 108.738L129.801 102.092L128.639 101.973L127.958 108.619Z" fill="#757575" stroke="#263238" stroke-width="0.5" stroke-linecap="round" stroke-linejoin="round"/>
    <path d="M128.011 108.123L129.173 108.242L129.493 105.115L128.331 104.996L128.011 108.123Z" fill="#92E3A9" stroke="#263238" stroke-width="0.5" stroke-miterlimit="10"/>
    <path d="M125.252 109.248L126.414 109.367L127.095 102.722L125.933 102.603L125.252 109.248Z" fill="#757575" stroke="#263238" stroke-width="0.5" stroke-linecap="round" stroke-linejoin="round"/>
    <path d="M125.278 108.997L126.44 109.116L126.76 105.989L125.598 105.87L125.278 108.997Z" fill="#92E3A9" stroke="#263238" stroke-width="0.5" stroke-miterlimit="10"/>
    <path d="M122.723 108.124L123.885 108.243L124.566 101.598L123.404 101.479L122.723 108.124Z" fill="#757575" stroke="#263238" stroke-width="0.5" stroke-linecap="round" stroke-linejoin="round"/>
    <path d="M123.059 104.876L124.221 104.996L124.541 101.868L123.379 101.749L123.059 104.876Z" fill="#92E3A9" stroke="#263238" stroke-width="0.5" stroke-miterlimit="10"/>
    <path d="M182.094 122.517L129.033 117.075C128.885 117.061 128.738 117.105 128.623 117.199C128.508 117.293 128.434 117.429 128.419 117.577C128.411 117.649 128.418 117.723 128.438 117.793C128.459 117.863 128.494 117.928 128.54 117.985C128.586 118.042 128.643 118.089 128.707 118.123C128.772 118.158 128.842 118.179 128.915 118.186L181.98 123.614C182.128 123.629 182.276 123.584 182.391 123.49C182.506 123.396 182.579 123.261 182.595 123.113C182.605 122.968 182.559 122.824 182.465 122.713C182.372 122.602 182.238 122.532 182.094 122.517Z" fill="#263238"/>
    <path d="M181.692 126.512L119.984 120.186C119.837 120.172 119.689 120.216 119.574 120.31C119.459 120.404 119.385 120.54 119.37 120.687C119.362 120.761 119.369 120.834 119.39 120.905C119.411 120.975 119.446 121.041 119.492 121.098C119.539 121.154 119.597 121.201 119.662 121.236C119.727 121.27 119.798 121.291 119.871 121.297L181.574 127.623C181.721 127.636 181.867 127.591 181.981 127.498C182.096 127.404 182.168 127.269 182.184 127.122C182.192 127.05 182.185 126.977 182.165 126.907C182.144 126.837 182.11 126.772 182.064 126.715C182.019 126.658 181.962 126.611 181.898 126.576C181.835 126.542 181.764 126.52 181.692 126.512Z" fill="#263238"/>
    <path d="M155.358 127.869L119.573 124.2C119.425 124.186 119.278 124.23 119.163 124.324C119.047 124.418 118.974 124.554 118.959 124.701C118.951 124.774 118.959 124.848 118.98 124.918C119.001 124.988 119.036 125.053 119.083 125.11C119.129 125.167 119.187 125.214 119.251 125.248C119.316 125.283 119.387 125.304 119.46 125.311L155.245 128.98C155.318 128.987 155.391 128.98 155.462 128.959C155.532 128.938 155.597 128.904 155.654 128.857C155.711 128.811 155.758 128.754 155.793 128.689C155.828 128.625 155.849 128.554 155.857 128.481C155.864 128.408 155.857 128.335 155.836 128.264C155.815 128.194 155.781 128.129 155.734 128.072C155.688 128.015 155.631 127.968 155.566 127.933C155.502 127.898 155.431 127.876 155.358 127.869Z" fill="#263238"/>
    <path opacity="0.2" d="M187.947 92.1693C186.117 92.0228 185.484 94.9398 185.484 94.9398C185.484 94.9398 182.59 91.1576 183.049 82.2314C183.049 82.2314 181.631 78.279 177.848 80.6665C174.066 83.0541 170.137 91.4649 171.073 100.637L163.726 76.1987C161.183 76.7377 156.015 80.1559 157.377 96.6608L149.339 88.1507C149.339 88.1507 147.165 87.451 145.935 89.3752C144.706 91.2994 145.292 105.081 146.309 110.234C147.325 115.388 144.735 125.742 144.735 125.742C144.735 125.742 141.964 114.017 136.953 111.048L117.866 71.7025L111.517 133.59L118.67 134.323L130.159 128.73C130.092 131.316 130.031 133.694 129.842 135.467L187.257 141.348L191.365 101.247C189.97 96.2494 188.637 92.2213 187.947 92.1693Z" fill="black" fill-opacity="0.7"/>
  </g>
  <path d="M198.046 36.0593L191.365 101.247L187.257 141.348L129.842 135.467L118.67 134.323L111.517 133.59L117.857 71.7024L122.306 28.3009L198.046 36.0593Z" stroke="#263238" stroke-width="0.5" stroke-linecap="round" stroke-linejoin="round"/>
  <path d="M197.1 203.878L163.532 209.59C163.532 209.59 157.689 178.551 154.204 173.658C150.72 168.765 151.368 166.755 149.666 163.46C148.644 161.47 143.519 157.758 139.506 154.094C139.156 153.778 138.815 153.461 138.489 153.149C138.347 153.021 138.215 152.884 138.083 152.756C137.548 152.227 137.052 151.712 136.612 151.206C136.451 151.026 136.294 150.846 136.139 150.667C135.394 149.837 134.839 148.854 134.513 147.787C134.499 147.74 134.489 147.691 134.485 147.641C134.471 147.583 134.461 147.525 134.456 147.466C134.366 146.733 134.272 145.896 134.177 144.989C134.177 144.809 134.139 144.62 134.116 144.431L134.087 144.204C134.007 143.447 133.917 142.644 133.813 141.816C133.709 140.989 133.596 140.053 133.463 139.15C133.421 138.838 133.378 138.526 133.326 138.204C133.274 137.854 133.218 137.504 133.161 137.15L132.995 136.237C132.995 136.185 132.972 136.138 132.967 136.096L132.768 135.046C132.756 135.008 132.748 134.968 132.745 134.928C132.679 134.62 132.617 134.318 132.546 134.011C132.4 133.325 132.234 132.654 132.073 132.001C131.748 130.773 131.329 129.572 130.821 128.408C128.4 123.004 131.549 124.957 129.653 111.052C129.653 111.052 131.047 107.828 135.024 110.404C135.331 110.605 135.628 110.821 135.912 111.052C136.718 111.704 137.43 112.464 138.026 113.312C138.834 114.466 139.45 115.743 139.851 117.094C140.501 119.286 140.684 121.589 140.39 123.855C140.39 123.855 143.378 134.096 144.952 136.426C146.526 138.757 153.037 125.368 152.616 123.808C152.468 123.108 152.356 122.401 152.28 121.69C152.252 121.458 152.223 121.217 152.19 120.952C152.157 120.688 152.129 120.423 152.101 120.144C152.101 120.011 152.067 119.87 152.049 119.732C152.049 119.676 152.049 119.619 152.049 119.567C151.992 119.033 151.926 118.465 151.864 117.879C151.864 117.714 151.831 117.558 151.812 117.406C151.784 117.127 151.755 116.839 151.727 116.555C151.724 116.508 151.724 116.461 151.727 116.414C151.727 116.253 151.689 116.087 151.675 115.941C151.637 115.61 151.604 115.274 151.571 114.938C151.538 114.603 151.514 114.362 151.486 114.073C151.429 113.53 151.377 112.986 151.325 112.461C151.287 112.069 151.25 111.681 151.216 111.303C151.216 111.218 151.216 111.133 151.193 111.052C150.994 108.972 150.838 107.27 150.781 106.532C150.781 106.532 146.054 99.5257 145.581 96.2257C145.108 92.9257 145.136 89.4507 147.117 88.0371C151.807 84.6993 150.427 90.0795 152.535 92.2922C154.644 94.5048 157.854 98.1689 159.679 99.3083C161.362 100.377 162.866 104.509 163.079 105.133C162.837 104.225 160.431 95.2991 160.379 93.5025C160.317 91.6114 158.871 81.6073 161.325 78.0188C163.778 74.4304 167.05 77.2151 167.353 77.9243C167.655 78.6335 167.745 88.3255 168.61 91.0204C169.475 93.7152 173.097 104.953 173.097 104.953C173.097 104.953 173.248 94.0226 174.042 89.1292C174.837 84.2359 176.983 80.4111 179.063 80.1936C181.144 79.9762 183.068 82.2692 183.068 82.2692C183.068 82.2692 182.245 90.0701 182.482 91.8714C182.718 93.6727 182.141 100.178 183.129 103.691C183.129 103.691 183.016 94.3724 184.463 93.181C185.909 91.9896 187.153 91.4175 187.966 92.2354C188.779 93.0533 188.954 98.5565 189.781 101.875C190.609 105.194 190.505 109.705 191.048 114.882C191.592 120.059 193.734 127.245 193.308 131.353C192.883 135.462 191.573 145.65 190.519 151.631C189.465 157.612 186.774 165.815 186.774 165.815C186.774 165.815 187.999 170.188 187.763 174.088C187.526 177.989 197.1 203.878 197.1 203.878Z" fill="white"/>
  <path opacity="0.4" d="M168.568 90.9921C169.211 92.9872 171.362 99.6629 172.43 102.996C172.43 102.996 167.74 106.443 167.854 109.648C167.967 112.854 166.998 119.326 164.889 119.137C162.781 118.948 162.998 105.497 162.284 103.232C162.715 104.206 162.989 104.996 163.046 105.152C162.89 104.57 160.384 95.3086 160.332 93.4742C160.332 93.044 160.232 92.1835 160.133 91.0725C160.133 91.0725 164.8 86.6047 168.223 89.3373C168.3 89.8961 168.415 90.4489 168.568 90.9921Z" fill="#92E3A9"/>
  <path opacity="0.4" d="M182.51 94.831C180.326 96.9018 177.03 100.561 176.614 104.093C176.614 104.093 177.829 113.955 177.309 118.276L173.054 104.939C173.054 104.939 173.206 94.0083 174 89.115C174 88.9827 174.047 88.8456 174.071 88.7132C176.727 87.3616 179.658 86.6385 182.638 86.5998C182.455 88.338 182.393 90.0868 182.453 91.8335C182.525 92.831 182.544 93.8315 182.51 94.831Z" fill="#92E3A9"/>
  <path opacity="0.4" d="M184.444 93.129C184.392 93.1621 184.264 93.2661 184.08 93.4221C184.189 93.2095 184.312 93.0042 184.448 92.8075L184.444 93.129Z" fill="#92E3A9"/>
  <path opacity="0.4" d="M185.555 120.394C185.555 120.394 182.746 109.861 182.718 101.379C182.694 98.2397 183.058 95.3794 184.075 93.4457C184.185 93.2331 184.308 93.0278 184.444 92.8311V93.1337C184.952 92.695 185.515 92.3232 186.117 92.0274C185.328 93.2566 184.42 95.6631 185.47 99.5919C187.12 105.696 185.682 113.18 185.555 120.394Z" fill="#92E3A9"/>
  <path opacity="0.4" d="M146.82 140.469C146.82 140.469 147.571 150.506 139.506 154.099C139.156 153.782 138.815 153.465 138.489 153.153C138.347 153.026 138.215 152.889 138.083 152.761C137.548 152.231 137.052 151.716 136.612 151.21C136.447 151.026 136.3 150.846 136.14 150.671C135.394 149.841 134.839 148.859 134.513 147.792C134.499 147.744 134.489 147.695 134.485 147.645C134.471 147.588 134.462 147.529 134.456 147.471C134.367 146.738 134.272 145.901 134.177 144.993C134.177 144.813 134.14 144.624 134.116 144.435L134.088 144.208C134.007 143.452 133.917 142.648 133.813 141.821C133.709 140.993 133.596 140.057 133.464 139.154C133.416 138.842 133.374 138.525 133.326 138.209C133.274 137.859 133.218 137.509 133.161 137.154L132.996 136.237C132.996 136.185 132.972 136.138 132.967 136.095L132.769 135.046C132.756 135.008 132.748 134.968 132.745 134.928C132.679 134.62 132.617 134.318 132.546 134.01C132.395 133.33 132.23 132.658 132.074 132.001C135.265 128.933 142.631 130.857 139.066 123.742C139.066 123.742 140.863 117.652 135.913 111.052C139.298 113.78 141.033 118.579 140.39 123.817C140.39 123.817 143.378 134.058 144.952 136.388C146.527 138.719 153.037 125.33 152.616 123.77C152.468 123.07 152.356 122.363 152.28 121.652C152.252 121.42 152.224 121.179 152.191 120.914C152.157 120.65 152.129 120.385 152.101 120.106C152.101 119.973 152.068 119.832 152.049 119.695C152.049 119.638 152.049 119.581 152.049 119.529C151.992 118.99 151.931 118.427 151.864 117.841C151.864 117.676 151.831 117.52 151.812 117.368C151.784 117.089 151.756 116.801 151.727 116.517C151.724 116.47 151.724 116.423 151.727 116.376C151.727 116.215 151.689 116.049 151.675 115.903C151.637 115.572 151.604 115.236 151.571 114.901C151.538 114.565 151.514 114.324 151.486 114.035C151.429 113.492 151.377 112.948 151.325 112.423C151.288 112.031 151.254 111.638 151.217 111.265C151.217 111.18 151.217 111.095 151.193 111.014C151.321 111.634 153.718 123.047 155.089 125.704C156.464 128.427 150.489 142.833 146.82 140.469Z" fill="#92E3A9"/>
  <path opacity="0.4" d="M190.5 151.565C189.446 157.55 186.755 165.749 186.755 165.749C186.755 165.749 187.98 170.122 187.744 174.022C187.677 175.072 188.33 177.724 189.304 181.034C189.02 180.306 185.994 172.495 186.056 169.772C186.117 166.912 185.304 166.122 183.692 162.609C182.08 159.096 179.668 159.484 179.668 159.484C179.668 159.484 178.723 168.245 176.529 162.486C174.335 156.728 173.905 150.029 179.451 126.768C179.451 126.768 180.288 129.685 179.588 138.351C178.888 147.017 180.959 149.641 180.959 149.641C184.072 144.216 186.545 138.449 188.33 132.455C188.33 132.455 187.611 142.568 186.973 147.173C186.335 151.778 189.247 141.835 191.28 135.694C193.171 129.93 193.261 127.737 192.533 123.633C193.072 126.522 193.478 129.306 193.27 131.297C192.864 135.386 191.554 145.584 190.5 151.565Z" fill="#92E3A9"/>
  <path opacity="0.4" d="M152.569 171.062C154.204 173.663 158.209 177.1 160.606 186.608C163.003 196.115 161.49 206.521 161.49 206.521L152.569 171.062Z" fill="#92E3A9"/>
  <path opacity="0.2" d="M139.855 117.076C139.855 117.076 131.482 121.331 130.821 128.422C128.4 123.018 131.549 124.971 129.653 111.066C129.653 111.066 131.047 107.842 135.024 110.419C135.331 110.619 135.628 110.835 135.912 111.066C136.718 111.718 137.43 112.479 138.026 113.326L139.855 117.076Z" fill="black" fill-opacity="0.7"/>
  <path d="M163.533 209.59C163.533 209.59 157.689 178.551 154.205 173.658C150.72 168.765 151.368 166.755 149.666 163.46C147.964 160.165 135.043 152.146 134.471 147.461C133.899 142.776 133.241 133.812 130.821 128.403C128.4 122.995 131.549 124.952 129.648 111.047C129.648 111.047 131.067 107.823 135.024 110.4C138.981 112.976 141.09 118.13 140.395 123.836C140.395 123.836 143.383 134.067 144.962 136.403C146.541 138.738 153.037 125.344 152.616 123.78C152.195 122.215 150.947 108.906 150.753 106.476C150.753 106.476 146.026 99.4643 145.553 96.1643C145.08 92.8642 145.108 89.3893 147.089 87.9804C151.779 84.6425 150.399 90.0228 152.507 92.2354C154.616 94.4481 157.826 98.1074 159.646 99.2515C161.467 100.396 163.055 105.176 163.055 105.176C163.055 105.176 160.384 95.37 160.332 93.4741C160.28 91.5783 158.824 81.5789 161.277 77.9952C163.731 74.4115 167.008 77.1867 167.31 77.8959C167.613 78.6051 167.703 88.2971 168.573 90.992L173.05 104.925C173.05 104.925 173.206 93.9942 174.024 89.1009C174.842 84.2076 176.964 80.3828 179.045 80.1653C181.125 79.9478 183.049 82.2408 183.049 82.2408C183.049 82.2408 182.227 90.0417 182.458 91.843C182.69 93.6443 182.122 100.145 183.111 103.663C183.111 103.663 182.997 94.344 184.444 93.1526C185.891 91.9612 187.134 91.3892 187.947 92.2071C188.76 93.025 188.935 98.5282 189.763 101.847C190.59 105.166 190.486 109.676 191.03 114.853C191.573 120.03 193.715 127.217 193.29 131.32C192.864 135.424 191.555 145.622 190.495 151.608C189.436 157.593 186.76 165.791 186.76 165.791C186.76 165.791 187.98 170.164 187.744 174.065C187.507 177.965 197.096 203.93 197.096 203.93" stroke="#263238" stroke-width="0.5" stroke-linecap="round" stroke-linejoin="round"/>
  <path d="M173.049 104.916C174.028 107.213 176.444 116.915 177.304 118.257C177.743 119.002 178.382 119.608 179.148 120.007" stroke="#263238" stroke-width="0.5" stroke-linecap="round" stroke-linejoin="round"/>
  <path d="M183.11 103.639C183.11 103.639 182.902 105.629 183.976 111.965C185.049 118.3 185.574 121 186.174 122.413" stroke="#263238" stroke-width="0.5" stroke-linecap="round" stroke-linejoin="round"/>
  <path d="M163.055 105.175C164.365 109.038 165.107 115.194 165.854 117.047C166.601 118.9 167.272 119.283 167.272 119.283" stroke="#263238" stroke-width="0.5" stroke-linecap="round" stroke-linejoin="round"/>
  <path d="M165.178 114.433C165.967 115.032 166.591 115.82 166.993 116.726" stroke="#263238" stroke-width="0.5" stroke-linecap="round" stroke-linejoin="round"/>
  <path d="M144.962 136.408C144.962 136.408 145.675 141.528 148.886 141.135" stroke="#263238" stroke-width="0.5" stroke-linecap="round" stroke-linejoin="round"/>
  <path d="M152.616 123.784C152.616 123.784 153.448 129.874 152.086 132.455" stroke="#263238" stroke-width="0.5" stroke-linecap="round" stroke-linejoin="round"/>
  <path d="M178.26 123.841C178.26 123.841 180.416 125.16 178.974 129.041C177.532 132.923 175.021 148.534 175.021 148.534" stroke="#263238" stroke-width="0.5" stroke-linecap="round" stroke-linejoin="round"/>
  <path d="M187.644 127.926C188.547 131.424 188.628 131.514 187.172 135.812C185.715 140.109 183.337 150.638 183.337 150.638" stroke="#263238" stroke-width="0.5" stroke-linecap="round" stroke-linejoin="round"/>
  <path d="M186.76 165.739C186.76 165.739 185.342 162.902 186.514 160.538" stroke="#263238" stroke-width="0.5" stroke-linecap="round" stroke-linejoin="round"/>
  <path d="M154.205 173.663C154.205 173.663 157.769 178.67 159.32 184.272" stroke="#263238" stroke-width="0.5" stroke-linecap="round" stroke-linejoin="round"/>
  <path d="M180.434 85.9001L181.399 84.9499L181.834 84.8222L181.805 85.295L180.921 86.4249L180.434 85.9001Z" fill="#757575" stroke="#263238" stroke-width="0.5" stroke-linecap="round" stroke-linejoin="round"/>
  <path d="M181.219 86.4296L179.649 89.9849L137.477 146.218L132.782 143.22L139.141 135.221L177.021 87.7061L180.363 85.5833C180.568 85.6361 180.755 85.7423 180.905 85.8909C181.056 86.0396 181.164 86.2255 181.219 86.4296Z" fill="#92E3A9"/>
  <mask id="mask3_629_49389" style="mask-type:luminance" maskUnits="userSpaceOnUse" x="132" y="85" width="50" height="62">
    <path d="M181.219 86.4296L179.649 89.9849L137.477 146.218L132.782 143.22L139.141 135.221L177.021 87.7061L180.363 85.5833C180.568 85.6361 180.755 85.7423 180.905 85.8909C181.056 86.0396 181.164 86.2255 181.219 86.4296Z" fill="white"/>
  </mask>
  <g mask="url(#mask3_629_49389)">
    <path opacity="0.3" d="M181.219 86.4294L179.65 89.9847L137.477 146.217L132.783 143.22L139.142 135.221C142.073 134.918 142.564 136.639 142.564 136.639L178.898 89.2188C178.539 87.9423 177.007 87.6964 177.007 87.6964L180.349 85.5736C180.558 85.625 180.749 85.7316 180.902 85.8822C181.055 86.0328 181.164 86.2218 181.219 86.4294Z" fill="black" fill-opacity="0.7"/>
  </g>
  <path d="M181.219 86.4296L179.649 89.9849L137.477 146.218L132.782 143.22L139.141 135.221L177.021 87.7061L180.363 85.5833C180.568 85.6361 180.755 85.7423 180.905 85.8909C181.056 86.0396 181.164 86.2255 181.219 86.4296Z" stroke="#263238" stroke-width="0.5" stroke-linecap="round" stroke-linejoin="round"/>
  <path d="M151.231 129.566C151.231 129.566 146.503 138.908 141.992 145.518L138.759 146.355C138.759 146.355 131.336 153.73 126.807 157.413C125.984 156.902 125.239 156.277 124.594 155.555C124.594 155.555 131.024 143.206 138.139 135.391C138.973 135.687 139.758 136.104 140.47 136.63C141.393 137.285 142.215 138.071 142.91 138.965L150.838 128.989L151.231 129.566Z" fill="#92E3A9"/>
  <mask id="mask4_629_49389" style="mask-type:luminance" maskUnits="userSpaceOnUse" x="124" y="128" width="28" height="30">
    <path d="M151.231 129.566C151.231 129.566 146.503 138.908 141.992 145.518L138.759 146.355C138.759 146.355 131.336 153.73 126.807 157.413C125.984 156.902 125.239 156.277 124.594 155.555C124.594 155.555 131.024 143.206 138.139 135.391C138.973 135.687 139.758 136.104 140.47 136.63C141.393 137.285 142.215 138.071 142.91 138.965L150.838 128.989L151.231 129.566Z" fill="white"/>
  </mask>
  <g mask="url(#mask4_629_49389)">
    <path opacity="0.3" d="M151.23 129.566C151.23 129.566 146.503 138.908 141.992 145.518L138.758 146.355C138.758 146.355 131.336 153.73 126.807 157.413L126.929 155.409C131.842 147.906 138.082 139.722 140.47 136.63C141.393 137.284 142.215 138.071 142.91 138.965L138.503 144.847L141.028 144.374L150.838 128.971L151.23 129.566Z" fill="black" fill-opacity="0.7"/>
  </g>
  <path d="M151.231 129.566C151.231 129.566 146.503 138.908 141.992 145.518L138.759 146.355C138.759 146.355 131.336 153.73 126.807 157.413C125.984 156.902 125.239 156.277 124.594 155.555C124.594 155.555 131.024 143.206 138.139 135.391C138.973 135.687 139.758 136.104 140.47 136.63C141.393 137.285 142.215 138.071 142.91 138.965L150.838 128.989L151.231 129.566Z" stroke="#263238" stroke-width="0.5" stroke-linecap="round" stroke-linejoin="round"/>
  <path d="M167.263 119.274L154.091 132.039L151.987 134.081C153.429 130.375 152.729 124.626 152.639 123.95C152.639 123.912 152.639 123.888 152.639 123.888C152.639 123.888 152.639 123.812 152.639 123.789C152.492 123.089 152.38 122.382 152.304 121.671C152.275 121.439 152.247 121.198 152.214 120.933C152.181 120.668 152.153 120.404 152.124 120.125C152.124 119.992 152.091 119.851 152.072 119.713C152.072 119.657 152.072 119.6 152.072 119.548C152.015 119.014 151.949 118.446 151.888 117.86C151.888 117.695 151.855 117.539 151.836 117.387C151.807 117.108 151.779 116.82 151.751 116.536C151.748 116.489 151.748 116.442 151.751 116.395C151.751 116.234 151.713 116.068 151.699 115.922C151.661 115.591 151.628 115.255 151.595 114.919C151.562 114.584 151.538 114.343 151.51 114.054C151.453 113.511 151.401 112.967 151.349 112.442C151.311 112.05 151.273 111.662 151.24 111.284C151.24 111.199 151.24 111.114 151.216 111.033C151.018 108.953 150.862 107.251 150.805 106.513C150.805 106.513 146.077 99.5067 145.604 96.2067C145.132 92.9067 145.16 89.4317 147.141 88.0181C151.831 84.6802 150.451 90.0605 152.559 92.2731C154.668 94.4857 157.878 98.1498 159.703 99.2892C161.528 100.429 163.055 105.175 163.055 105.175C164.365 109.033 165.107 115.189 165.854 117.042C166.601 118.896 167.263 119.274 167.263 119.274Z" fill="white"/>
  <path d="M165.178 114.433C165.967 115.032 166.591 115.82 166.993 116.726" stroke="#263238" stroke-width="0.5" stroke-linecap="round" stroke-linejoin="round"/>
  <path opacity="0.4" d="M152.488 92.2543C154.578 94.4859 157.788 98.1074 159.613 99.261C159.358 99.1333 155.996 97.4975 154.12 99.3177C152.167 101.209 150.753 106.48 150.753 106.48C150.753 106.48 146.026 99.4737 145.553 96.1737C145.08 92.8737 145.108 89.3987 147.089 87.9851C151.76 84.6472 150.389 90.0464 152.488 92.2543Z" fill="#92E3A9"/>
  <path opacity="0.4" d="M154.091 132.049L151.987 134.091C153.429 130.384 152.729 124.635 152.64 123.959C152.646 123.906 152.646 123.852 152.64 123.799C152.492 123.099 152.38 122.392 152.304 121.681C152.276 121.449 152.247 121.208 152.214 120.943C152.181 120.678 152.153 120.414 152.124 120.135C152.124 120.002 152.091 119.86 152.072 119.723C152.072 119.666 152.072 119.61 152.072 119.558C152.015 119.019 151.954 118.456 151.888 117.87C151.888 117.704 151.855 117.548 151.836 117.397C151.807 117.118 151.779 116.83 151.751 116.546C151.748 116.499 151.748 116.452 151.751 116.404C151.751 116.244 151.713 116.078 151.699 115.932C151.661 115.601 151.628 115.265 151.595 114.929C151.562 114.594 151.538 114.352 151.51 114.064C151.453 113.52 151.401 112.977 151.349 112.452C151.311 112.059 151.278 111.667 151.24 111.294C151.24 111.208 151.24 111.123 151.216 111.043C151.344 111.662 153.741 123.075 155.112 125.732C155.576 126.697 155.093 129.288 154.091 132.049Z" fill="#92E3A9"/>
  <path d="M167.267 119.274C167.267 119.274 166.601 118.891 165.849 117.037C165.097 115.184 164.36 109.028 163.05 105.166C163.05 105.166 161.447 100.438 159.623 99.2749C157.798 98.1119 154.583 94.4904 152.484 92.2588C150.384 90.0273 151.755 84.647 147.065 88.0038C145.084 89.4221 145.042 92.8924 145.529 96.1877C146.016 99.483 150.729 106.499 150.729 106.499C150.923 108.929 152.171 122.243 152.592 123.803" stroke="#263238" stroke-width="0.5" stroke-linecap="round" stroke-linejoin="round"/>
  <path d="M152.616 123.784C152.616 123.784 153.448 129.874 152.086 132.455" stroke="#263238" stroke-width="0.5" stroke-linecap="round" stroke-linejoin="round"/>
  <path opacity="0.2" d="M71.7557 131.23C71.7557 131.23 74.7484 145.13 68.2666 155.238C61.7847 165.346 56.7921 168.046 54.5559 171.062C52.3196 174.079 43.5306 190.943 43.5306 190.943L33.2712 160.557L43.5306 122.966L71.7557 131.23Z" fill="black" fill-opacity="0.7"/>
  <path d="M132.225 120.607L68.607 147.381L62.0495 150.142L49.691 120.777L20.993 52.5878L91.1682 23.053L132.225 120.607Z" fill="white"/>
  <mask id="mask5_629_49389" style="mask-type:luminance" maskUnits="userSpaceOnUse" x="20" y="23" width="113" height="128">
    <path d="M132.225 120.607L68.607 147.381L62.0495 150.142L49.691 120.777L20.993 52.5878L91.1682 23.053L132.225 120.607Z" fill="white"/>
  </mask>
  <g mask="url(#mask5_629_49389)">
    <path d="M73.0371 35.7469L42.7458 48.5121C42.4725 48.6268 42.2559 48.8454 42.1438 49.1198C42.0316 49.3943 42.033 49.702 42.1478 49.9753C42.2625 50.2487 42.4811 50.4653 42.7555 50.5774C43.03 50.6896 43.3377 50.6881 43.611 50.5734L73.8975 37.8035C74.0351 37.7485 74.1604 37.6666 74.266 37.5626C74.3716 37.4587 74.4554 37.3347 74.5126 37.198C74.5697 37.0613 74.5991 36.9145 74.5989 36.7664C74.5988 36.6182 74.5691 36.4715 74.5116 36.3349C74.4542 36.1983 74.3701 36.0745 74.2642 35.9708C74.1584 35.867 74.033 35.7854 73.8953 35.7307C73.7576 35.676 73.6103 35.6492 73.4622 35.652C73.314 35.6548 73.1679 35.6871 73.0323 35.7469H73.0371Z" fill="#263238"/>
    <path d="M67.2456 43.1649L52.1165 49.538C51.9798 49.5957 51.8717 49.7053 51.8158 49.8427C51.76 49.9801 51.761 50.1341 51.8187 50.2708C51.8763 50.4075 51.986 50.5156 52.1234 50.5715C52.2608 50.6274 52.4148 50.6263 52.5515 50.5686L67.6805 44.1908C67.7516 44.1648 67.8166 44.1247 67.8717 44.0728C67.9267 44.021 67.9707 43.9584 68.0008 43.8891C68.0309 43.8197 68.0466 43.7449 68.047 43.6692C68.0473 43.5936 68.0322 43.5187 68.0027 43.449C67.9732 43.3794 67.9298 43.3165 67.8752 43.2641C67.8206 43.2118 67.7559 43.1711 67.6851 43.1445C67.6143 43.1179 67.5388 43.106 67.4633 43.1095C67.3877 43.113 67.3136 43.1318 67.2456 43.1649Z" fill="#263238"/>
    <path d="M92.1657 82.0087C92.1657 82.0087 92.804 87.0249 90.9365 87.8097C89.2298 88.5284 86.984 85.8382 85.022 86.6609C83.0599 87.4835 84.6059 94.6036 82.7148 95.3979C80.8237 96.1922 78.5449 93.2704 76.909 93.9796C75.2732 94.6887 76.2661 98.3292 74.5829 99.0383C73.193 99.6199 71.2073 96.7122 69.6187 96.074C69.4725 96.0027 69.3133 95.9618 69.1508 95.9536C68.9883 95.9455 68.8258 95.9704 68.6732 96.0267C67.009 96.7264 67.8363 104.371 66.3991 104.972C65.9971 105.145 65.559 105.218 65.1226 105.185C64.5878 105.084 64.0451 105.031 63.5009 105.028C63.2925 105.05 63.0885 105.102 62.8957 105.185C61.6712 105.7 61.8367 109.723 60.7162 110.196C59.5957 110.669 58.4894 110.083 57.2933 110.584C56.0971 111.085 56.116 113.179 54.3289 113.931L55.0854 115.723L98.6334 97.3978" fill="#BFBFBF"/>
    <path d="M92.1657 82.0087C92.1657 82.0087 92.804 87.0249 90.9365 87.8097C89.2298 88.5284 86.984 85.8382 85.022 86.6609C83.0599 87.4835 84.6059 94.6036 82.7148 95.3979C80.8237 96.1922 78.5449 93.2704 76.909 93.9796C75.2732 94.6887 76.2661 98.3292 74.5829 99.0383C73.193 99.6199 71.2073 96.7122 69.6187 96.074C69.4725 96.0027 69.3133 95.9618 69.1508 95.9536C68.9883 95.9455 68.8258 95.9704 68.6732 96.0267C67.009 96.7264 67.8363 104.371 66.3991 104.972C65.9971 105.145 65.559 105.218 65.1226 105.185C64.5878 105.084 64.0451 105.031 63.5009 105.028C63.2925 105.05 63.0885 105.102 62.8957 105.185C61.6712 105.7 61.8367 109.723 60.7162 110.196C59.5957 110.669 58.4894 110.083 57.2933 110.584C56.0971 111.085 56.116 113.179 54.3289 113.931L55.0854 115.723L98.6334 97.3978" stroke="#263238" stroke-width="0.5" stroke-miterlimit="10"/>
    <path d="M46.2681 94.7362L55.0855 115.685L100.681 96.4996" stroke="#263238" stroke-width="0.5" stroke-linecap="round" stroke-linejoin="round"/>
    <path d="M95.6691 90.3202C95.6691 90.3202 95.4516 90.0554 95.1301 89.7387C94.5675 89.195 93.6739 88.5047 92.9931 88.7931C92.3123 89.0815 92.2698 90.1736 92.2839 91.3556C92.2839 92.7739 92.4258 94.3341 91.7024 94.6367C91.0878 94.8967 90.5394 94.509 89.972 94.0835C89.3243 93.6107 88.6624 93.0718 87.8634 93.4075C86.5207 93.9748 86.9179 95.7241 86.4451 97.2228C86.3166 97.654 86.0896 98.0494 85.7818 98.3776C85.4741 98.7059 85.0942 98.958 84.6721 99.1139C83.5138 99.5867 82.3366 99.1139 81.2255 98.3669C79.3344 97.0904 77.6702 95.0196 76.5828 95.4782C74.8477 96.2111 76.7577 100.901 74.895 101.686C73.8549 102.126 71.699 98.8492 69.6045 96.0125C67.9498 93.7762 66.3329 91.8284 65.3495 92.2302C63.1038 93.1758 66.8057 104.395 65.1746 105.08L65.1226 105.104C64.86 105.212 64.575 105.255 64.2923 105.228C64.0097 105.2 63.738 105.104 63.5009 104.948C62.9147 104.617 62.4324 104.14 61.7847 104.414C60.5791 104.924 61.2836 109.321 59.9598 109.879C58.636 110.437 57.837 109.629 56.343 110.257C55.0806 110.792 54.3289 113.851 54.3289 113.851L55.0854 115.642L98.6334 97.3174" fill="#757575"/>
    <path d="M95.6691 90.3202C95.6691 90.3202 95.4516 90.0554 95.1301 89.7387C94.5675 89.195 93.6739 88.5047 92.9931 88.7931C92.3123 89.0815 92.2698 90.1736 92.2839 91.3556C92.2839 92.7739 92.4258 94.3341 91.7024 94.6367C91.0878 94.8967 90.5394 94.509 89.972 94.0835C89.3243 93.6107 88.6624 93.0718 87.8634 93.4075C86.5207 93.9748 86.9179 95.7241 86.4451 97.2228C86.3166 97.654 86.0896 98.0494 85.7818 98.3776C85.4741 98.7059 85.0942 98.958 84.6721 99.1139C83.5138 99.5867 82.3366 99.1139 81.2255 98.3669C79.3344 97.0904 77.6702 95.0196 76.5828 95.4782C74.8477 96.2111 76.7577 100.901 74.895 101.686C73.8549 102.126 71.699 98.8492 69.6045 96.0125C67.9498 93.7762 66.3329 91.8284 65.3495 92.2302C63.1038 93.1758 66.8057 104.395 65.1746 105.08L65.1226 105.104C64.86 105.212 64.575 105.255 64.2923 105.228C64.0097 105.2 63.738 105.104 63.5009 104.948C62.9147 104.617 62.4324 104.14 61.7847 104.414C60.5791 104.924 61.2836 109.321 59.9598 109.879C58.636 110.437 57.837 109.629 56.343 110.257C55.0806 110.792 54.3289 113.851 54.3289 113.851L55.0854 115.642L98.6334 97.3174" stroke="#263238" stroke-width="0.5" stroke-linecap="round" stroke-linejoin="round"/>
    <path d="M86.4499 105.275L71.3208 111.648C71.1841 111.705 71.076 111.815 71.0201 111.952C70.9643 112.09 70.9653 112.244 71.023 112.38C71.0806 112.517 71.1902 112.625 71.3277 112.681C71.4651 112.737 71.6191 112.736 71.7558 112.678L86.8848 106.305C87.0215 106.248 87.1297 106.138 87.1855 106C87.2414 105.863 87.2404 105.709 87.1827 105.572C87.125 105.436 87.0154 105.328 86.878 105.272C86.7405 105.216 86.5865 105.217 86.4499 105.275Z" fill="#263238"/>
    <path d="M98.4445 80.1845L96.9846 80.7987C96.833 80.8625 96.7618 81.0372 96.8256 81.1888L97.4399 82.6486C97.5037 82.8003 97.6783 82.8715 97.8299 82.8077L99.2898 82.1934C99.4414 82.1296 99.5126 81.955 99.4488 81.8033L98.8345 80.3435C98.7707 80.1919 98.5961 80.1207 98.4445 80.1845Z" fill="#BFBFBF" stroke="#263238" stroke-width="0.5" stroke-miterlimit="10"/>
    <path d="M106.363 77.7066L100.312 80.2549C100.25 80.2788 100.18 80.2779 100.119 80.2524C100.057 80.2269 100.008 80.1787 99.9808 80.1178C99.9556 80.0569 99.9553 79.9886 99.9801 79.9275C100.005 79.8665 100.053 79.8176 100.113 79.7916L106.17 77.2433C106.23 77.218 106.299 77.2177 106.36 77.2425C106.421 77.2673 106.47 77.3151 106.496 77.3757C106.509 77.4061 106.516 77.4388 106.517 77.4719C106.517 77.5051 106.511 77.538 106.499 77.5688C106.486 77.5996 106.468 77.6276 106.445 77.6512C106.422 77.6749 106.394 77.6937 106.363 77.7066Z" fill="#263238"/>
    <path d="M104.94 79.4887L100.733 81.2569C100.672 81.2822 100.603 81.2825 100.542 81.2577C100.481 81.2329 100.433 81.1851 100.406 81.1246C100.393 81.0942 100.386 81.0614 100.386 81.0283C100.385 80.9951 100.391 80.9622 100.404 80.9314C100.416 80.9007 100.434 80.8726 100.457 80.849C100.481 80.8253 100.508 80.8065 100.539 80.7936L104.747 79.0254C104.807 79.0001 104.876 78.9999 104.937 79.0246C104.998 79.0494 105.047 79.0973 105.073 79.1578C105.098 79.2193 105.099 79.2884 105.074 79.3502C105.049 79.412 105.001 79.4617 104.94 79.4887Z" fill="#263238"/>
    <path d="M100.34 84.6853L98.8797 85.2995C98.7281 85.3633 98.6569 85.538 98.7207 85.6896L99.3349 87.1494C99.3987 87.3011 99.5734 87.3723 99.725 87.3085L101.185 86.6942C101.336 86.6304 101.408 86.4558 101.344 86.3041L100.73 84.8443C100.666 84.6927 100.491 84.6215 100.34 84.6853Z" fill="#757575" stroke="#263238" stroke-width="0.5" stroke-linecap="round" stroke-linejoin="round"/>
    <path d="M108.255 82.2074L102.203 84.751C102.172 84.7637 102.139 84.7702 102.105 84.7701C102.072 84.77 102.038 84.7633 102.007 84.7503C101.977 84.7374 101.948 84.7184 101.925 84.6946C101.901 84.6708 101.882 84.6426 101.87 84.6115C101.857 84.5805 101.85 84.5473 101.851 84.5137C101.851 84.4802 101.857 84.447 101.87 84.416C101.883 84.3851 101.902 84.357 101.926 84.3333C101.95 84.3097 101.978 84.291 102.009 84.2782L108.061 81.7299C108.092 81.7172 108.125 81.7107 108.159 81.7108C108.192 81.711 108.225 81.7177 108.256 81.7306C108.287 81.7436 108.315 81.7625 108.339 81.7863C108.363 81.8101 108.381 81.8384 108.394 81.8694C108.407 81.9004 108.413 81.9337 108.413 81.9672C108.413 82.0008 108.406 82.034 108.393 82.0649C108.38 82.0959 108.362 82.124 108.338 82.1476C108.314 82.1713 108.286 82.19 108.255 82.2027V82.2074Z" fill="#263238"/>
    <path d="M106.832 83.985L102.629 85.758C102.566 85.7843 102.495 85.7847 102.432 85.759C102.369 85.7332 102.319 85.6836 102.293 85.6209C102.267 85.5582 102.266 85.4876 102.292 85.4246C102.318 85.3617 102.367 85.3115 102.43 85.2852L106.638 83.517C106.669 83.5043 106.702 83.4978 106.736 83.4979C106.769 83.498 106.802 83.5047 106.833 83.5177C106.864 83.5306 106.892 83.5496 106.916 83.5734C106.94 83.5972 106.958 83.6254 106.971 83.6565C106.984 83.6875 106.99 83.7207 106.99 83.7543C106.99 83.7879 106.983 83.821 106.97 83.852C106.957 83.883 106.939 83.911 106.915 83.9347C106.891 83.9583 106.863 83.977 106.832 83.9898V83.985Z" fill="#263238"/>
    <path d="M116.216 100.759L67.047 121.448C66.9103 121.506 66.8022 121.616 66.7463 121.753C66.6904 121.89 66.6915 122.044 66.7492 122.181C66.8068 122.318 66.9164 122.426 67.0539 122.482C67.1913 122.538 67.3453 122.537 67.482 122.479L116.651 101.785C116.722 101.759 116.787 101.719 116.843 101.667C116.898 101.615 116.942 101.553 116.972 101.484C117.002 101.414 117.017 101.339 117.018 101.264C117.018 101.188 117.003 101.113 116.974 101.043C116.944 100.974 116.901 100.911 116.846 100.859C116.791 100.806 116.727 100.766 116.656 100.739C116.585 100.712 116.51 100.7 116.434 100.704C116.359 100.707 116.284 100.726 116.216 100.759Z" fill="#263238"/>
    <path d="M117.777 104.461L60.6031 128.521C60.532 128.547 60.467 128.587 60.4119 128.639C60.3569 128.691 60.313 128.754 60.2828 128.823C60.2527 128.892 60.237 128.967 60.2366 129.043C60.2363 129.118 60.2514 129.193 60.2809 129.263C60.3104 129.333 60.3538 129.395 60.4084 129.448C60.463 129.5 60.5277 129.541 60.5985 129.567C60.6693 129.594 60.7448 129.606 60.8203 129.602C60.8959 129.599 60.97 129.58 61.038 129.547L118.207 105.487C118.28 105.463 118.347 105.424 118.404 105.373C118.461 105.321 118.507 105.259 118.539 105.189C118.571 105.119 118.588 105.043 118.589 104.966C118.59 104.889 118.575 104.813 118.546 104.742C118.516 104.671 118.472 104.607 118.416 104.554C118.361 104.501 118.295 104.46 118.222 104.434C118.15 104.407 118.073 104.396 117.997 104.401C117.92 104.406 117.845 104.426 117.777 104.461Z" fill="#263238"/>
    <path d="M119.332 108.163L62.1631 132.223C62.092 132.249 62.027 132.289 61.9719 132.341C61.9169 132.393 61.8729 132.456 61.8428 132.525C61.8127 132.594 61.797 132.669 61.7966 132.745C61.7963 132.82 61.8114 132.895 61.8409 132.965C61.8704 133.035 61.9138 133.098 61.9684 133.15C62.023 133.202 62.0877 133.243 62.1585 133.27C62.2293 133.296 62.3048 133.308 62.3803 133.304C62.4559 133.301 62.53 133.282 62.598 133.249L119.757 109.189C119.829 109.163 119.894 109.123 119.949 109.071C120.004 109.019 120.048 108.957 120.078 108.887C120.108 108.818 120.124 108.743 120.124 108.668C120.124 108.592 120.109 108.517 120.08 108.447C120.05 108.378 120.007 108.315 119.952 108.263C119.898 108.21 119.833 108.169 119.762 108.143C119.691 108.116 119.616 108.104 119.54 108.108C119.465 108.111 119.391 108.13 119.323 108.163H119.332Z" fill="#263238"/>
    <path d="M120.892 111.865L63.7233 135.906C63.6503 135.93 63.5832 135.969 63.526 136.021C63.4689 136.072 63.4229 136.135 63.3911 136.205C63.3593 136.275 63.3423 136.35 63.3412 136.427C63.3401 136.504 63.3548 136.58 63.3845 136.651C63.4143 136.722 63.4583 136.786 63.5139 136.839C63.5695 136.892 63.6355 136.933 63.7077 136.96C63.7799 136.986 63.8568 136.997 63.9335 136.992C64.0102 136.988 64.0851 136.967 64.1535 136.932L121.322 112.872C121.395 112.848 121.463 112.809 121.52 112.757C121.577 112.706 121.623 112.643 121.655 112.573C121.686 112.503 121.703 112.428 121.704 112.351C121.706 112.274 121.691 112.198 121.661 112.127C121.631 112.056 121.587 111.992 121.532 111.939C121.476 111.886 121.41 111.845 121.338 111.819C121.266 111.792 121.189 111.781 121.112 111.786C121.035 111.791 120.961 111.811 120.892 111.846V111.865Z" fill="#263238"/>
    <path d="M98.4352 125.67L65.2789 139.627C65.2079 139.653 65.1428 139.693 65.0878 139.745C65.0327 139.797 64.9888 139.859 64.9587 139.929C64.9285 139.998 64.9128 140.073 64.9125 140.149C64.9121 140.224 64.9272 140.299 64.9567 140.369C64.9863 140.438 65.0296 140.501 65.0842 140.554C65.1388 140.606 65.2035 140.647 65.2743 140.673C65.3451 140.7 65.4206 140.712 65.4962 140.708C65.5717 140.705 65.6458 140.686 65.7139 140.653L98.8701 126.701C98.9378 126.673 98.9992 126.631 99.0508 126.579C99.1024 126.526 99.1432 126.464 99.1708 126.396C99.1985 126.328 99.2125 126.255 99.212 126.182C99.2115 126.109 99.1965 126.036 99.168 125.968C99.1394 125.901 99.0978 125.839 99.0455 125.788C98.9933 125.736 98.9313 125.695 98.8633 125.668C98.7952 125.64 98.7224 125.626 98.6489 125.626C98.5755 125.627 98.5028 125.642 98.4352 125.67Z" fill="#263238"/>
    <path d="M80.1763 53.5C80.1763 53.5 80.8146 58.521 78.9471 59.3058C77.2403 60.0244 74.9899 57.3343 73.0326 58.1569C71.0752 58.9796 72.6165 66.0949 70.7254 66.8939C68.8342 67.6929 66.5507 64.7664 64.9196 65.452C63.2885 66.1375 64.2766 69.8016 62.5935 70.506C61.2035 71.0923 59.2178 68.1846 57.6293 67.5464C57.483 67.4751 57.3238 67.4342 57.1613 67.426C56.9988 67.4179 56.8364 67.4428 56.6837 67.4991C55.0195 68.1988 55.8469 75.839 54.4096 76.4442C54.008 76.6183 53.5693 76.6898 53.1331 76.6522C52.5979 76.5556 52.0553 76.505 51.5115 76.5009C51.3029 76.5216 51.0988 76.5742 50.9063 76.6569C49.6818 77.1722 49.8473 81.1956 48.7268 81.6637C47.6063 82.1317 46.5 81.555 45.3038 82.0561C44.1077 82.5573 44.1266 84.6517 42.3395 85.4034L43.0959 87.1953L86.6629 68.8702" fill="#BFBFBF"/>
    <path d="M80.1763 53.5C80.1763 53.5 80.8146 58.521 78.9471 59.3058C77.2403 60.0244 74.9899 57.3343 73.0326 58.1569C71.0752 58.9796 72.6165 66.0949 70.7254 66.8939C68.8342 67.6929 66.5507 64.7664 64.9196 65.452C63.2885 66.1375 64.2766 69.8016 62.5935 70.506C61.2035 71.0923 59.2178 68.1846 57.6293 67.5464C57.483 67.4751 57.3238 67.4342 57.1613 67.426C56.9988 67.4179 56.8364 67.4428 56.6837 67.4991C55.0195 68.1988 55.8469 75.839 54.4096 76.4442C54.008 76.6183 53.5693 76.6898 53.1331 76.6522C52.5979 76.5556 52.0553 76.505 51.5115 76.5009C51.3029 76.5216 51.0988 76.5742 50.9063 76.6569C49.6818 77.1722 49.8473 81.1956 48.7268 81.6637C47.6063 82.1317 46.5 81.555 45.3038 82.0561C44.1077 82.5573 44.1266 84.6517 42.3395 85.4034L43.0959 87.1953L86.6629 68.8702" stroke="#263238" stroke-width="0.5" stroke-miterlimit="10"/>
    <path d="M82.9891 60.1897C82.9891 60.1897 83.3862 62.6198 82.4265 63.0264C81.6275 63.3621 81.1358 62.894 80.2942 62.8656C79.8833 62.8532 79.4747 62.9323 79.0981 63.0973C78.3275 63.4188 78.1525 64.4589 78.006 65.5747C77.8358 66.9505 77.7507 68.4445 76.7436 68.8842C76.0392 69.182 75.278 69.0071 74.4932 68.7329C73.2403 68.2979 71.926 67.6077 70.6542 68.1419C70.0396 68.4019 69.6093 69.0875 69.2737 69.8959C68.4841 71.8485 68.2383 74.6758 67.3825 75.0351C66.1675 75.5504 63.9407 73.4607 62.8627 73.9146C61.7848 74.3685 62.2245 76.2407 61.3498 76.6095C60.4752 76.9782 59.974 75.8908 58.4327 76.5385C56.8915 77.1862 57.6432 79.4651 55.4684 80.3823C53.2936 81.2995 52.3386 79.6116 50.2394 80.4957C48.1403 81.3798 48.5185 82.9778 47.0339 83.6019C45.5494 84.226 44.9253 83.1291 43.8663 83.6019C42.8073 84.0747 42.552 85.7247 42.5378 85.8287L43.1193 87.2092L86.6626 68.87" fill="#92E3A9"/>
    <path d="M82.9891 60.1897C82.9891 60.1897 83.3862 62.6198 82.4265 63.0264C81.6275 63.3621 81.1358 62.894 80.2942 62.8656C79.8833 62.8532 79.4747 62.9323 79.0981 63.0973C78.3275 63.4188 78.1525 64.4589 78.006 65.5747C77.8358 66.9505 77.7507 68.4445 76.7436 68.8842C76.0392 69.182 75.278 69.0071 74.4932 68.7329C73.2403 68.2979 71.926 67.6077 70.6542 68.1419C70.0396 68.4019 69.6093 69.0875 69.2737 69.8959C68.4841 71.8485 68.2383 74.6758 67.3825 75.0351C66.1675 75.5504 63.9407 73.4607 62.8627 73.9146C61.7848 74.3685 62.2245 76.2407 61.3498 76.6095C60.4752 76.9782 59.974 75.8908 58.4327 76.5385C56.8915 77.1862 57.6432 79.4651 55.4684 80.3823C53.2936 81.2995 52.3386 79.6116 50.2394 80.4957C48.1403 81.3798 48.5185 82.9778 47.0339 83.6019C45.5494 84.226 44.9253 83.1291 43.8663 83.6019C42.8073 84.0747 42.552 85.7247 42.5378 85.8287L43.1193 87.2092L86.6626 68.87" stroke="#263238" stroke-width="0.5" stroke-miterlimit="10"/>
    <path d="M34.2784 66.2461L43.0958 87.1951L88.6863 68.0048" stroke="#263238" stroke-width="0.5" stroke-linecap="round" stroke-linejoin="round"/>
    <path d="M74.3231 76.4581L59.194 82.8313C59.0573 82.8883 58.9489 82.9973 58.8926 83.1343C58.8363 83.2713 58.8367 83.425 58.8938 83.5617C58.9509 83.6984 59.0599 83.8068 59.1969 83.8631C59.3338 83.9194 59.4876 83.919 59.6243 83.8619L74.7533 77.4888C74.821 77.4603 74.8824 77.4186 74.934 77.3664C74.9856 77.3141 75.0263 77.2521 75.054 77.1841C75.0817 77.116 75.0956 77.0432 75.0952 76.9698C75.0947 76.8963 75.0797 76.8237 75.0512 76.756C75.0226 76.6883 74.981 76.6269 74.9287 76.5753C74.8764 76.5237 74.8145 76.483 74.7464 76.4553C74.6784 76.4276 74.6056 76.4137 74.5321 76.4141C74.4587 76.4146 74.386 76.4296 74.3183 76.4581H74.3231Z" fill="#263238"/>
    <path d="M85.6878 49.8753L84.228 50.4896C84.0763 50.5534 84.0051 50.728 84.0689 50.8796L84.6832 52.3395C84.747 52.4911 84.9216 52.5623 85.0733 52.4985L86.5331 51.8842C86.6847 51.8204 86.7559 51.6458 86.6921 51.4942L86.0779 50.0343C86.0141 49.8827 85.8394 49.8115 85.6878 49.8753Z" fill="#BFBFBF" stroke="#263238" stroke-width="0.5" stroke-miterlimit="10"/>
    <path d="M93.6079 47.3963L87.5563 49.9446C87.4941 49.9685 87.425 49.9677 87.3635 49.9421C87.3019 49.9166 87.2524 49.8684 87.2254 49.8075C87.2004 49.7461 87.2008 49.6772 87.2265 49.6161C87.2522 49.5549 87.3011 49.5064 87.3625 49.4813L93.4141 46.933C93.4755 46.908 93.5444 46.9084 93.6055 46.9341C93.6667 46.9598 93.7152 47.0087 93.7403 47.0701C93.7535 47.1001 93.7605 47.1325 93.7609 47.1653C93.7614 47.1981 93.7552 47.2307 93.7429 47.2611C93.7306 47.2915 93.7123 47.3191 93.6891 47.3424C93.6659 47.3656 93.6383 47.3839 93.6079 47.3963Z" fill="#263238"/>
    <path d="M92.1849 49.1787L87.9772 50.9469C87.9145 50.9726 87.8441 50.9724 87.7816 50.9462C87.7191 50.9201 87.6696 50.8702 87.6439 50.8075C87.6181 50.7448 87.6184 50.6744 87.6446 50.6119C87.6707 50.5494 87.7206 50.4999 87.7833 50.4741L91.9911 48.7012C92.052 48.676 92.1203 48.6757 92.1814 48.7005C92.2424 48.7252 92.2913 48.7731 92.3173 48.8336C92.3321 48.8648 92.3405 48.8987 92.3418 48.9333C92.3431 48.9678 92.3374 49.0022 92.3251 49.0345C92.3127 49.0668 92.2939 49.0962 92.2698 49.121C92.2457 49.1458 92.2168 49.1654 92.1849 49.1787Z" fill="#263238"/>
    <path d="M87.5874 54.3759L86.1275 54.9902C85.9759 55.054 85.9047 55.2286 85.9685 55.3802L86.5827 56.8401C86.6465 56.9917 86.8212 57.0629 86.9728 56.9991L88.4327 56.3848C88.5843 56.321 88.6555 56.1464 88.5917 55.9948L87.9774 54.5349C87.9136 54.3833 87.739 54.3121 87.5874 54.3759Z" fill="#92E3A9" stroke="#263238" stroke-width="0.5" stroke-miterlimit="10"/>
    <path d="M95.499 51.8971L89.4474 54.4454C89.3859 54.4703 89.3171 54.4699 89.2559 54.4442C89.1948 54.4185 89.1463 54.3696 89.1212 54.3083C89.108 54.2782 89.101 54.2458 89.1005 54.213C89.1001 54.1802 89.1062 54.1476 89.1186 54.1172C89.1309 54.0868 89.1492 54.0592 89.1724 54.036C89.1956 54.0128 89.2231 53.9944 89.2535 53.982L95.3052 51.4337C95.3362 51.421 95.3694 51.4145 95.403 51.4146C95.4365 51.4148 95.4697 51.4215 95.5007 51.4344C95.5317 51.4474 95.5597 51.4663 95.5834 51.4901C95.607 51.5139 95.6257 51.5422 95.6385 51.5732C95.6512 51.6043 95.6577 51.6375 95.6576 51.6711C95.6574 51.7046 95.6507 51.7378 95.6378 51.7687C95.6248 51.7997 95.6059 51.8278 95.5821 51.8514C95.5583 51.8751 95.53 51.8938 95.499 51.9065V51.8971Z" fill="#263238"/>
    <path d="M94.0759 53.6795L89.8729 55.4477C89.8102 55.474 89.7396 55.4743 89.6767 55.4486C89.6137 55.4229 89.5635 55.3733 89.5372 55.3106C89.5109 55.2479 89.5105 55.1773 89.5362 55.1143C89.562 55.0514 89.6116 55.0012 89.6743 54.9749L93.8821 53.2067C93.9131 53.1939 93.9464 53.1875 93.9799 53.1876C94.0135 53.1877 94.0467 53.1944 94.0776 53.2074C94.1086 53.2203 94.1367 53.2392 94.1603 53.2631C94.184 53.2869 94.2027 53.3151 94.2154 53.3461C94.2281 53.3772 94.2346 53.4104 94.2345 53.444C94.2344 53.4775 94.2276 53.5107 94.2147 53.5417C94.2017 53.5726 94.1828 53.6007 94.159 53.6244C94.1352 53.648 94.107 53.6667 94.0759 53.6795Z" fill="#263238"/>
    <path opacity="0.2" d="M68.607 147.381L62.0495 150.142L49.691 120.777C50.7949 119.682 51.519 118.262 51.757 116.725C52.4946 112.792 51.9745 100.145 61.8226 98.8399C71.6707 97.5351 63.3639 119.68 63.8177 123.897C64.2338 127.746 69.8457 138.918 68.607 147.381Z" fill="black" fill-opacity="0.7"/>
  </g>
  <path d="M132.225 120.607L68.607 147.381L62.0495 150.142L49.691 120.777L20.993 52.5878L91.1682 23.053L132.225 120.607Z" stroke="#263238" stroke-width="0.5" stroke-linecap="round" stroke-linejoin="round"/>
  <path d="M64.6453 125.505C65.7516 121.723 70.0634 109.61 69.4961 104.253C69.4499 103.807 69.3483 103.369 69.1935 102.948C67.6806 98.9486 61.4966 99.3363 59.1185 102.65C56.5134 106.296 54.3906 112.858 54.2015 116.834C54.0343 118.829 53.3854 120.753 52.3104 122.441C51.939 123.065 51.5201 123.659 51.0575 124.219L36.9591 90.7694C35.5348 91.9554 34.2909 93.3426 33.2667 94.8874C32.6908 95.7489 32.319 96.7303 32.1793 97.7572C31.8909 101.057 28.1559 114.631 26.6194 120.304C26.5863 120.427 26.5532 120.545 26.5248 120.659C25.0308 126.153 28.9738 146.558 27.8439 152.487C26.7139 158.415 26.0189 158.278 25.8535 162.491C25.7353 165.564 21.3384 174.906 16.3978 184.499C13.5611 189.997 10.5731 195.567 8.10046 200.101L44.1833 198.602C44.8073 194.219 45.4503 189.591 46.0366 185.109C46.2914 183.244 46.6513 181.396 47.1145 179.572C47.9088 176.357 48.878 173.45 49.4784 171.748C50.2452 169.248 50.8765 166.708 51.3696 164.141C55.5679 159.696 61.0711 152.713 62.6644 147.986V147.953C63.0546 146.981 63.1786 145.924 63.0237 144.889C62.8479 144.039 62.7513 143.175 62.7353 142.308C62.5509 137.173 63.7187 128.649 64.6453 125.505Z" fill="white"/>
  <path opacity="0.4" d="M52.3196 122.474C51.1991 124.72 49.8517 126.9 49.0101 129.415C48.1686 131.93 47.2277 132.289 44.7031 134.261C42.1784 136.232 40.3345 132.984 40.3345 132.984C40.3345 132.984 43.6771 129.514 42.5661 127.58C41.455 125.647 37.2945 120.838 37.5404 118.186C37.7862 115.534 35.0205 109.586 35.0205 109.586C35.0205 109.586 41.3227 105.884 40.0981 101.549C39.4315 99.185 36.1315 96.6651 33.2853 94.8733C34.3096 93.3285 35.5535 91.9413 36.9778 90.7553L51.0856 124.238C51.5411 123.682 51.9536 123.093 52.3196 122.474Z" fill="#92E3A9"/>
  <path opacity="0.4" d="M29.4559 142.998C29.541 143.282 31.5928 150.057 29.8625 152.879C28.1321 155.702 26.3544 159.446 27.2007 163.28C27.872 166.344 22.1986 177.407 16.4165 184.508C21.3429 174.915 25.7398 165.573 25.8722 162.5C26.0376 158.288 26.7326 158.415 27.8626 152.496C28.9925 146.577 25.0259 126.162 26.5435 120.668C26.5719 120.555 26.605 120.437 26.6381 120.314C27.7397 126.54 30.3021 138.941 31.0066 142.927C31.8718 148.014 29.5315 143.211 29.4559 142.998Z" fill="#92E3A9"/>
  <path opacity="0.4" d="M42.429 183.893C46.6226 165.838 60.7352 151.995 62.6452 147.986C61.0519 152.713 55.5535 159.696 51.3504 164.141C50.8573 166.708 50.226 169.248 49.4593 171.748C48.8683 173.45 47.8991 176.357 47.0954 179.572C43.0153 184.409 42.429 183.893 42.429 183.893Z" fill="#92E3A9"/>
  <path opacity="0.4" d="M64.6451 125.505C63.6995 128.649 62.5507 137.173 62.7303 142.293C61.988 139.079 60.5602 134.994 60.3238 129.306C59.922 119.661 65.3873 123.141 63.4962 118.371C61.6051 113.6 56.1586 119.709 58.8346 109.652C60.7872 102.31 66.3518 102.376 69.2074 102.948C69.3622 103.369 69.4639 103.807 69.51 104.253C70.0632 109.61 65.7514 121.723 64.6451 125.505Z" fill="#92E3A9"/>
  <path d="M13.5894 190.148C18.1092 181.879 22.5108 173.374 25.6737 164.202C26.0519 162.883 25.546 161.162 25.929 159.843C30.2124 147.934 25.3522 135.532 26.1512 123.33C26.8273 118.522 28.3638 113.685 29.9287 108.83C30.6521 105.326 30.9216 101.402 32.0799 97.8753C33.2713 95.2182 34.4438 92.131 36.9827 90.7835C41.805 101.832 46.6085 112.933 51.0905 124.266C53.1188 123.094 53.4544 120.484 53.7854 118.285C54.8728 113.023 55.9744 108.201 57.9648 103.771C59.9883 100.211 65.1416 98.6932 68.3045 101.601C69.2115 102.51 69.7301 103.735 69.7513 105.019C69.1366 111.127 67.2171 117.311 65.2835 123.023C64.5223 125.661 63.7469 127.869 63.4207 130.488C63.4538 131.358 63.4727 131.788 63.5105 132.658C62.39 137.05 63.4207 140.917 63.1654 145.277C62.1867 153.139 55.894 158.614 51.3458 164.453C50.2206 168.845 49.1001 173.237 47.5635 177.648C45.6724 184.267 45.0673 190.791 44.4195 197.15" stroke="#263238" stroke-width="0.5" stroke-linecap="round" stroke-linejoin="round"/>
  <path d="M51.0715 124.252C50.2157 125.903 49.5191 127.632 48.9913 129.415C48.4003 131.731 45.4076 131.401 43.8616 132.838" stroke="#263238" stroke-width="0.5" stroke-linecap="round" stroke-linejoin="round"/>
  <path d="M39.7814 120.172C39.7814 120.172 43.852 121.59 46.2254 123.458C48.5988 125.325 50.3481 125.76 50.3481 125.76" stroke="#263238" stroke-width="0.5" stroke-linecap="round" stroke-linejoin="round"/>
  <path d="M37.1857 110.078C37.1857 110.078 40.4952 111 42.9064 109.841C43.0164 108.662 43.2236 107.493 43.5258 106.348" stroke="#263238" stroke-width="0.5" stroke-linecap="round" stroke-linejoin="round"/>
  <path d="M43.6915 110.319C43.6915 110.319 43.7246 110.792 45.3982 110.792" stroke="#263238" stroke-width="0.5" stroke-linecap="round" stroke-linejoin="round"/>
  <path d="M51.3507 164.141C49.0567 166.456 47.295 169.244 46.1879 172.31" stroke="#263238" stroke-width="0.5" stroke-linecap="round" stroke-linejoin="round"/>
  <path d="M26.3166 121.685C26.1653 124.522 29.4937 134.582 30.5008 139.584C31.5078 144.586 31.8908 148.123 31.8908 148.123" stroke="#263238" stroke-width="0.5" stroke-linecap="round" stroke-linejoin="round"/>
</svg>