<svg xmlns="http://www.w3.org/2000/svg" width="220" height="220" viewBox="0 0 220 220" fill="none">
  <g opacity="0.6">
    <rect width="220" height="220" fill="white"/>
    <path d="M109.44 209.948C168.456 209.948 216.299 200.405 216.299 188.634C216.299 176.862 168.456 167.32 109.44 167.32C50.4232 167.32 2.58086 176.862 2.58086 188.634C2.58086 200.405 50.4232 209.948 109.44 209.948Z" fill="#92E3A9"/>
    <path opacity="0.5" d="M109.44 209.948C168.456 209.948 216.299 200.405 216.299 188.634C216.299 176.862 168.456 167.32 109.44 167.32C50.4232 167.32 2.58086 176.862 2.58086 188.634C2.58086 200.405 50.4232 209.948 109.44 209.948Z" fill="white"/>
    <path d="M153.616 8.40897H155.646C163.287 8.40897 170.615 11.4442 176.017 16.847C181.42 22.2498 184.455 29.5775 184.455 37.2182V145.485H124.806V37.2182C124.806 29.5775 127.842 22.2498 133.244 16.847C138.647 11.4442 145.975 8.40897 153.616 8.40897Z" stroke="#263238" stroke-width="0.5" stroke-linecap="round" stroke-linejoin="round"/>
    <path d="M131.539 145.178V39.193C131.539 33.0694 133.971 27.1966 138.302 22.8665C142.632 18.5364 148.504 16.1038 154.628 16.1038C157.662 16.1014 160.666 16.6968 163.47 17.8561C166.273 19.0153 168.821 20.7156 170.967 22.8599C173.113 25.0042 174.815 27.5503 175.976 30.3529C177.138 33.1554 177.736 36.1593 177.736 39.193V145.178" stroke="#263238" stroke-width="0.5" stroke-linecap="round" stroke-linejoin="round"/>
    <path d="M154.628 8.40897V145.336" stroke="#263238" stroke-width="0.5" stroke-linecap="round" stroke-linejoin="round"/>
    <path d="M125.127 34.7833H184.051" stroke="#263238" stroke-width="0.5" stroke-linecap="round" stroke-linejoin="round"/>
    <path d="M125.127 53.3839H184.051" stroke="#263238" stroke-width="0.5" stroke-linecap="round" stroke-linejoin="round"/>
    <path d="M125.127 71.9844H184.051" stroke="#263238" stroke-width="0.5" stroke-linecap="round" stroke-linejoin="round"/>
    <path d="M125.127 90.5802H184.051" stroke="#263238" stroke-width="0.5" stroke-linecap="round" stroke-linejoin="round"/>
    <path d="M125.127 109.181H184.051" stroke="#263238" stroke-width="0.5" stroke-linecap="round" stroke-linejoin="round"/>
    <path d="M125.127 127.781H184.051" stroke="#263238" stroke-width="0.5" stroke-linecap="round" stroke-linejoin="round"/>
    <path d="M133.002 17.7162L138.346 22.5813" stroke="#263238" stroke-width="0.5" stroke-linecap="round" stroke-linejoin="round"/>
    <path d="M176.026 17.7162L170.683 22.5813" stroke="#263238" stroke-width="0.5" stroke-linecap="round" stroke-linejoin="round"/>
    <path d="M199.297 169.318C199.297 169.318 209.951 150.508 212.433 141.833C214.914 133.157 205.579 139.974 205.579 139.974C205.579 139.974 216.661 121.662 217.521 109.613C218.38 97.5641 205.667 112.494 205.667 112.494C205.667 112.494 210.035 96.9694 210.988 83.5266C211.94 70.0839 205.876 76.6403 205.876 76.6403C205.876 76.6403 205.37 50.9862 201.927 53.5325C198.483 56.0789 196.964 64.3639 196.964 64.3639C196.964 64.3639 195.036 39.0675 192.224 45.8563C189.413 52.645 193.86 88.3638 193.86 88.3638C193.86 88.3638 187.266 69.7261 185.649 79.3958C184.032 89.0654 196.086 116.007 196.086 116.007C196.086 116.007 189.961 116.969 189.204 121.118C188.447 125.267 198.181 145.945 198.181 145.945C198.181 145.945 190.101 135.123 188.646 142.469C187.192 149.816 195.375 172.296 195.375 172.296L199.297 169.318Z" fill="#92E3A9"/>
    <path d="M211.266 131.968C209.779 126.74 205.806 130.184 205.806 130.184C205.806 130.184 214.24 103.298 210.662 101.179C207.084 99.0604 204.078 108.614 204.078 108.614C204.078 108.614 208.404 67.4632 205.936 69.6146C203.469 71.766 202.038 85.1762 202.038 85.1762C202.038 85.1762 199.11 47.7196 195.858 54.0112C192.605 60.3027 196.434 98.3076 196.434 98.3076C196.434 98.3076 190.338 79.2564 189.747 87.5832C189.157 95.9099 195.584 123.399 195.584 123.399C195.584 123.399 188.298 121.02 188.465 125.221C188.632 129.422 192.842 148.826 192.842 148.826C192.842 148.826 188.339 146.642 189.431 150.912C190.523 155.183 195.663 168.105 195.663 168.105L201.127 169.889C201.127 169.889 209.026 156.944 205.774 157.176C204.842 157.223 203.93 157.466 203.098 157.887C202.265 158.309 201.53 158.901 200.941 159.625C200.941 159.625 212.758 137.186 211.266 131.968Z" stroke="#263238" stroke-width="0.5" stroke-linecap="round" stroke-linejoin="round"/>
    <path d="M198.381 167.603C198.381 167.603 200.779 124.719 199.775 97.5781" stroke="#263238" stroke-width="0.5" stroke-linecap="round" stroke-linejoin="round"/>
    <path d="M202.87 187.37H192.708L191.513 165.531H204.059L202.87 187.37Z" fill="#263238" stroke="#263238" stroke-width="0.5" stroke-linecap="round" stroke-linejoin="round"/>
    <path d="M116.804 30.002H88.8221V68.3461H116.804V30.002Z" stroke="#263238" stroke-width="0.5" stroke-linecap="round" stroke-linejoin="round"/>
    <path d="M112.646 35.6987H92.9809V62.6446H112.646V35.6987Z" stroke="#263238" stroke-width="0.5" stroke-linecap="round" stroke-linejoin="round"/>
    <path d="M46.9933 69.833C48.3956 70.1147 49.7225 70.6894 50.8872 71.5197C52.5135 72.7743 58.4473 82.4347 60.6452 84.5303C62.843 86.6259 65.4498 89.2048 64.5437 91.2819C63.6376 93.3589 62.2204 96.9972 58.3079 95.4639C54.3954 93.9305 53.3453 91.9463 52.3044 90.1295C51.2636 88.3127 47.8901 85.5851 47.8901 85.5851" fill="#92E3A9"/>
    <path d="M46.9933 69.833C48.3956 70.1147 49.7225 70.6894 50.8872 71.5197C52.5135 72.7743 58.4473 82.4347 60.6452 84.5303C62.843 86.6259 65.4498 89.2048 64.5437 91.2819C63.6376 93.3589 62.2204 96.9972 58.3079 95.4639C54.3954 93.9305 53.3453 91.9463 52.3044 90.1295C51.2636 88.3127 47.8901 85.5851 47.8901 85.5851" stroke="#263238" stroke-width="0.5" stroke-linecap="round" stroke-linejoin="round"/>
    <path d="M63.0988 89.7345C60.3434 86.7514 57.9085 88.9818 56.2822 91.5467C54.4747 94.4044 52.8669 97.3876 51.2685 100.375C51.2685 100.375 48.8615 102.662 48.7407 103.744C48.6199 104.827 50.5436 107.712 51.5287 107.596C52.5138 107.48 54.4189 106.871 54.5397 106.272C54.6605 105.673 53.6987 105.807 53.6987 105.807L54.4189 104.725L53.9542 102.155C57.1186 99.46 62.0162 95.2641 63.3869 93.8886C64.6462 92.6015 64.2001 90.9287 63.0988 89.7345Z" fill="white" stroke="#263238" stroke-width="0.5" stroke-linecap="round" stroke-linejoin="round"/>
    <path d="M29.6749 107.159C29.6749 107.159 28.4017 112.61 28.9453 114.25C29.489 115.89 31.4685 119.933 31.4685 119.933L35.5854 172.31L40.0369 172.199L42.0535 117.071L42.955 116.964L44.5581 172.199L49.1443 172.38L52.2343 118.976C52.2343 118.976 52.699 112.071 52.699 111.341C52.699 110.612 51.4955 103.907 51.4955 103.907L29.6749 107.159Z" fill="#263238" stroke="#263238" stroke-width="0.5" stroke-linecap="round" stroke-linejoin="round"/>
    <path d="M35.5858 172.31C35.5858 172.31 30.3026 176.683 30.1911 178.169C30.0796 179.656 34.4381 178.973 36.2735 176.776C38.109 174.578 39.8654 175.168 39.949 173.676L40.0373 172.185L35.5858 172.31Z" fill="white" stroke="#263238" stroke-width="0.5" stroke-linecap="round" stroke-linejoin="round"/>
    <path d="M48.9913 172.31C48.9913 172.31 54.2745 176.678 54.3907 178.169C54.5069 179.661 50.139 178.973 48.3036 176.776C46.4682 174.578 44.7164 175.168 44.6281 173.676L44.5398 172.185L48.9913 172.31Z" fill="white" stroke="#263238" stroke-width="0.5" stroke-linecap="round" stroke-linejoin="round"/>
    <path d="M48.81 76.4544L48.2896 70.3534C44.9115 68.9222 38.9127 68.7271 37.1377 69.4241C37.1377 69.4241 26.8825 74.619 25.8417 75.6598C24.8008 76.7007 21.2833 92.2948 21.2833 94.9016C21.2833 97.5084 22.7145 99.3159 25.3073 99.8363C27.9001 100.357 29.5962 97.1088 29.5962 97.1088C29.5962 97.1088 28.165 105.008 28.4252 105.937C28.6854 106.867 29.1687 108.191 30.2049 108.321C31.2411 108.451 50.2366 107.624 51.0172 107.234C51.7978 106.843 52.3136 106.067 52.3136 104.251C52.3136 102.434 49.7161 83.9959 49.7161 83.9959" fill="#92E3A9"/>
    <path d="M48.81 76.4544L48.2896 70.3534C44.9115 68.9222 38.9127 68.7271 37.1377 69.4241C37.1377 69.4241 26.8825 74.619 25.8417 75.6598C24.8008 76.7007 21.2833 92.2948 21.2833 94.9016C21.2833 97.5084 22.7145 99.3159 25.3073 99.8363C27.9001 100.357 29.5962 97.1088 29.5962 97.1088C29.5962 97.1088 28.165 105.008 28.4252 105.937C28.6854 106.867 29.1687 108.191 30.2049 108.321C31.2411 108.451 50.2366 107.624 51.0172 107.234C51.7978 106.843 52.3136 106.067 52.3136 104.251C52.3136 102.434 49.7161 83.9959 49.7161 83.9959" stroke="#263238" stroke-width="0.5" stroke-linecap="round" stroke-linejoin="round"/>
    <path d="M30.0887 87.165L29.9818 82.2999" stroke="#263238" stroke-width="0.5" stroke-linecap="round" stroke-linejoin="round"/>
    <path d="M39.3962 79.7024C42.0138 79.7024 44.1358 77.3766 44.1358 74.5075C44.1358 71.6384 42.0138 69.3125 39.3962 69.3125C36.7786 69.3125 34.6566 71.6384 34.6566 74.5075C34.6566 77.3766 36.7786 79.7024 39.3962 79.7024Z" fill="white" stroke="#263238" stroke-width="0.5" stroke-linecap="round" stroke-linejoin="round"/>
    <path d="M36.343 65.4187C36.343 65.4187 36.343 74.7677 37.2723 76.4545C38.2017 78.1412 41.5565 78.6616 41.8167 76.4545C42.077 74.2473 41.9468 66.1993 41.9468 66.1993L36.343 65.4187Z" fill="white" stroke="#263238" stroke-width="0.5" stroke-linecap="round" stroke-linejoin="round"/>
    <path d="M41.9609 69.9305C41.9609 67.886 41.9284 66.2132 41.9284 66.2132L36.3524 65.4326C36.3524 65.4326 36.3524 66.9195 36.4128 68.8153C37.1843 69.4252 38.089 69.8442 39.0532 70.038C40.0174 70.2318 41.0137 70.195 41.9609 69.9305Z" fill="#263238" stroke="#263238" stroke-width="0.5" stroke-linecap="round" stroke-linejoin="round"/>
    <path d="M45.6926 47.8915C45.6926 47.8915 46.6219 57.3707 46.8635 60.0983C47.1052 62.8258 46.0829 66.1993 42.5793 67.4957C39.0758 68.7921 36.2181 66.9799 34.3966 64.5126C32.5751 62.0452 32.0733 61.9151 32.0733 61.9151C31.7836 61.9853 31.4829 61.9973 31.1886 61.9503C30.8943 61.9033 30.6123 61.7983 30.359 61.6413C30.1056 61.4844 29.886 61.2787 29.7128 61.0361C29.5397 60.7935 29.4165 60.519 29.3504 60.2284C28.6998 58.0212 30.5167 57.1105 31.9432 56.7201C31.9432 56.7201 29.6199 51.3997 29.6199 49.9686C29.6199 48.5374 32.0826 45.5543 37.2775 44.2578C42.4725 42.9614 45.6926 47.8915 45.6926 47.8915Z" fill="white" stroke="#263238" stroke-width="0.5" stroke-linecap="round" stroke-linejoin="round"/>
    <path d="M41.538 53.4768L41.6681 55.5538C41.6681 55.5538 44.6559 55.8141 43.615 56.7201C42.8064 57.3391 41.8774 57.7823 40.8875 58.0212" stroke="#263238" stroke-width="0.5" stroke-linecap="round" stroke-linejoin="round"/>
    <path d="M36.7339 60.7441C37.2245 61.2196 37.8267 61.5641 38.4852 61.746C39.1437 61.9279 39.8373 61.9413 40.5024 61.785" stroke="#263238" stroke-width="0.5" stroke-linecap="round" stroke-linejoin="round"/>
    <path d="M38.2947 55.1635C38.2947 55.7722 38.002 56.2648 37.6442 56.2648C37.2864 56.2648 36.9937 55.7722 36.9937 55.1635C36.9937 54.5548 37.2864 54.0576 37.6442 54.0576C38.002 54.0576 38.2947 54.5548 38.2947 55.1635Z" fill="#263238"/>
    <path d="M43.2245 55.0984C43.5837 55.0984 43.875 54.6033 43.875 53.9925C43.875 53.3818 43.5837 52.8866 43.2245 52.8866C42.8652 52.8866 42.5739 53.3818 42.5739 53.9925C42.5739 54.6033 42.8652 55.0984 43.2245 55.0984Z" fill="#263238"/>
    <path d="M35.1769 53.2166C35.1769 53.2166 36.3432 51.6553 38.9407 51.7854" stroke="#263238" stroke-width="0.5" stroke-linecap="round" stroke-linejoin="round"/>
    <path d="M41.148 50.3589C41.2988 49.7811 41.6662 49.2835 42.1741 48.9694C42.682 48.6554 43.2913 48.5489 43.8756 48.6722" stroke="#263238" stroke-width="0.5" stroke-linecap="round" stroke-linejoin="round"/>
    <path d="M30.6327 56.7201C30.6327 56.7201 32.5797 58.7972 33.2302 57.761C33.8807 56.7248 33.2302 54.9033 33.3603 53.4768C33.4904 52.0502 35.0471 52.1757 34.5266 51.0094C34.0062 49.8431 32.2033 51.1395 32.2033 49.8384C32.2033 48.5374 35.7115 46.465 39.085 46.465C42.4585 46.465 46.0968 49.7176 49.0846 48.2818C52.0724 46.846 50.9014 43.7374 49.2147 42.3109C47.5279 40.8844 44.1498 41.0098 44.1498 41.0098C44.1498 41.0098 48.3039 39.7134 46.8774 38.4123C45.4509 37.1113 41.8126 36.9858 39.8656 37.7665C37.9187 38.5471 35.8277 39.6065 35.8277 39.6065C35.8277 39.6065 37.5144 36.879 35.1772 38.0499C34.2604 38.4798 33.4418 39.0935 32.7719 39.8528C32.1021 40.6121 31.5954 41.501 31.2833 42.4642C30.6327 44.151 30.1123 45.3173 30.1123 45.3173C30.1123 45.3173 28.5557 44.151 27.3894 44.6714C26.2231 45.1918 28.3187 45.6007 28.3187 45.6007C28.3187 45.6007 25.5911 47.162 25.9954 49.239C26.3997 51.3161 28.8531 54.2992 29.5036 54.6895C30.1541 55.0799 30.6327 56.7201 30.6327 56.7201Z" fill="#263238" stroke="#263238" stroke-width="0.5" stroke-linecap="round" stroke-linejoin="round"/>
    <path d="M43.8753 78.4014V72.9509C43.8753 72.4304 47.2534 72.1702 47.2534 72.1702L47.3789 72.9509L45.9524 73.7268L46.9189 75.8829C46.9189 75.8829 51.7932 72.6907 52.3136 73.3412C52.5205 73.6545 52.6196 74.0267 52.5962 74.4015C52.5727 74.7762 52.4278 75.1331 52.1835 75.4182C51.9259 75.7139 51.7483 76.0706 51.6677 76.4544C51.6677 76.4544 51.7932 79.9626 50.8871 80.3483C49.981 80.734 45.1717 82.0397 45.1717 82.0397C41.3661 86.5469 37.5187 91.1007 32.9418 94.8598C31.0831 96.3932 28.8574 98.9814 26.4783 97.527C24.1921 96.133 24.2479 92.6247 25.6976 90.7382C28.2951 87.3601 31.7383 86.7096 35.1861 84.7952C38.3006 82.9773 41.2133 80.8341 43.8753 78.4014Z" fill="white" stroke="#263238" stroke-width="0.5" stroke-linecap="round" stroke-linejoin="round"/>
    <path d="M46.9191 75.8829L47.8484 67.3795C47.8679 67.1308 47.9789 66.8981 48.16 66.7264C48.3411 66.5547 48.5794 66.4563 48.8289 66.4502L51.9328 66.2272C52.069 66.224 52.2044 66.2484 52.3309 66.2987C52.4574 66.3491 52.5725 66.4245 52.6692 66.5204C52.7659 66.6162 52.8423 66.7306 52.8939 66.8567C52.9454 66.9827 52.9709 67.1179 52.969 67.2541L52.3185 73.3598L46.9191 75.8829Z" fill="#263238" stroke="#263238" stroke-width="0.5" stroke-linecap="round" stroke-linejoin="round"/>
    <path d="M175.552 145.192C175.552 145.192 178.154 138.687 176.481 125.212C175.752 119.292 176.272 107.132 168.178 106.737C159.54 106.318 156.013 107.173 147.356 107.271C116.131 107.629 93.1671 110.742 74.1298 108.907C58.8284 107.429 45.6273 105.003 40.2093 110.445C34.7914 115.886 35.2421 127.475 35.716 129.724C36.19 131.973 39.7307 147.339 39.7307 147.339L174.725 146.73L175.552 145.192Z" fill="#999999" stroke="#263238" stroke-width="0.5" stroke-linecap="round" stroke-linejoin="round"/>
    <path d="M41.5054 141.308C41.5054 141.308 38.9033 130.899 34.6423 128.06C30.3813 125.221 24.8286 128.297 20.2377 132.79C15.6468 137.284 14.3225 142.609 16.2184 151.479C18.1142 160.35 23.653 173.476 25.3258 179.392C26.9986 185.307 26.98 188.383 32.5374 190.274C38.0947 192.165 43.4198 192.286 46.849 187.551C50.2783 182.816 49.335 161.065 46.6121 152.896C43.8891 144.728 41.5054 141.308 41.5054 141.308Z" fill="#B2B2B2" stroke="#263238" stroke-width="0.5" stroke-linecap="round" stroke-linejoin="round"/>
    <path d="M41.0315 187.198C38.6664 182.723 31.571 150.661 31.6871 146.275C31.8033 141.888 28.2579 134.565 23.8808 133.971C20.275 133.506 17.3755 136.935 16.488 138.153C15.094 141.624 14.9917 145.829 16.1952 151.47C18.0864 160.34 17.8494 173.741 19.5036 179.656C21.1578 185.572 21.1439 188.657 26.7199 190.548C30.3768 191.793 39.7305 191.993 42.709 190.827C42.234 189.58 41.6735 188.368 41.0315 187.198Z" fill="#8A8A8A" stroke="#263238" stroke-width="0.5" stroke-linecap="round" stroke-linejoin="round"/>
    <path d="M168.443 141.108C168.443 141.108 171.194 130.699 175.687 127.86C180.18 125.021 186.058 128.097 190.928 132.591C195.798 137.084 197.178 142.409 195.18 151.279C193.182 160.15 187.308 173.277 185.556 179.192C183.805 185.107 183.809 188.183 177.936 190.074C172.063 191.965 166.445 192.086 162.82 187.356C159.196 182.626 160.2 160.87 163.071 152.697C165.943 144.523 168.443 141.108 168.443 141.108Z" fill="#B2B2B2" stroke="#263238" stroke-width="0.5" stroke-linecap="round" stroke-linejoin="round"/>
    <path d="M168.935 187.658C171.431 183.104 178.926 150.657 178.805 146.228C178.684 141.8 182.425 134.398 187.029 133.775C190.84 133.278 193.883 136.773 194.836 138.013C196.327 141.526 196.42 145.782 195.152 151.488C193.149 160.47 190.096 173.76 188.344 179.749C186.593 185.739 186.597 188.847 180.724 190.766C176.862 192.026 170.292 192.509 167.142 191.324C167.654 190.062 168.253 188.837 168.935 187.658Z" fill="#8A8A8A" stroke="#263238" stroke-width="0.5" stroke-linecap="round" stroke-linejoin="round"/>
    <path d="M178.865 161.279C178.865 161.279 175.91 179.642 174.014 185.795C172.118 191.947 172.713 191.947 169.521 192.184C166.328 192.421 45.1717 192.082 41.3847 191.491C37.5976 190.901 35.5903 188.058 34.5262 184.057C33.4621 180.056 32.3981 161.785 32.3981 161.785L173.777 161.321L178.865 161.279Z" fill="#999999" stroke="#263238" stroke-width="0.5" stroke-linecap="round" stroke-linejoin="round"/>
    <path d="M32.4029 164.676C32.6723 165.33 33.1066 165.904 33.6635 166.342C34.2205 166.779 34.8811 167.065 35.5812 167.171C38.0811 167.635 102.126 168.309 104.166 168.309C106.205 168.309 158.443 168.309 166.849 167.626C175.255 166.943 179.53 165.833 178.865 161.279C178.201 156.725 178.428 160.35 178.428 160.35L31.0414 162.176L32.4029 164.676Z" fill="#263238"/>
    <path d="M41.859 140.713C41.859 140.713 32.7609 146.865 30.1494 149.704C27.538 152.543 28.9692 154.788 29.2201 156.92C29.471 159.053 30.5212 163.779 33.5926 165.433C36.664 167.087 74.8734 166.362 97.1122 167.092C119.351 167.821 167.156 166.957 173.089 165.531C179.023 164.104 180.408 156.776 180.761 152.636C181.114 148.496 176.872 142.702 174.507 141.995C172.142 141.289 152.468 141.182 130.587 141.656C108.706 142.13 98.6781 144.035 73.721 143.561C48.7639 143.087 47.5372 139.649 41.859 140.713Z" fill="#B2B2B2"/>
    <mask id="mask0_405_27938" style="mask-type:luminance" maskUnits="userSpaceOnUse" x="28" y="140" width="153" height="28">
      <path d="M41.859 140.713C41.859 140.713 32.7609 146.865 30.1494 149.704C27.538 152.543 28.9692 154.788 29.2201 156.92C29.471 159.053 30.5212 163.779 33.5926 165.433C36.664 167.087 74.8734 166.362 97.1122 167.092C119.351 167.821 167.156 166.957 173.089 165.531C179.023 164.104 180.408 156.776 180.761 152.636C181.114 148.496 176.872 142.702 174.507 141.995C172.142 141.289 152.468 141.182 130.587 141.656C108.706 142.13 98.6781 144.035 73.721 143.561C48.7639 143.087 47.5372 139.649 41.859 140.713Z" fill="white"/>
    </mask>
    <g mask="url(#mask0_405_27938)">
      <path d="M29.2057 156.92C29.4381 159.049 30.5068 163.779 33.5782 165.433C36.6497 167.087 74.859 166.362 97.0978 167.092C119.337 167.821 167.155 166.957 173.089 165.531C179.023 164.104 182.55 158.435 182.903 154.295C182.944 153.668 182.874 153.039 182.698 152.436C181.862 153.268 180.259 152.367 178.358 152.097C174.144 151.488 129.801 154.249 96.6146 154.249C60.5752 154.249 48.8332 154.249 30.9993 150.819C28.3461 150.308 30.1676 149.69 30.1676 149.69C27.5469 152.543 28.9688 154.788 29.2057 156.92Z" fill="#999999"/>
    </g>
    <path d="M41.859 140.713C41.859 140.713 32.7609 146.865 30.1494 149.704C27.538 152.543 28.9692 154.788 29.2201 156.92C29.471 159.053 30.5212 163.779 33.5926 165.433C36.664 167.087 74.8734 166.362 97.1122 167.092C119.351 167.821 167.156 166.957 173.089 165.531C179.023 164.104 180.408 156.776 180.761 152.636C181.114 148.496 176.872 142.702 174.507 141.995C172.142 141.289 152.468 141.182 130.587 141.656C108.706 142.13 98.6781 144.035 73.721 143.561C48.7639 143.087 47.5372 139.649 41.859 140.713Z" stroke="#263238" stroke-width="0.5" stroke-linecap="round" stroke-linejoin="round"/>
    <path d="M106.243 109.371L106.057 142.887C106.057 142.887 104.593 152.055 104.784 153.324C104.974 154.592 104.965 167.059 104.965 167.059" stroke="#263238" stroke-width="0.5" stroke-linecap="round" stroke-linejoin="round"/>
    <path d="M165.655 117.912C167.081 117.692 168.541 117.947 169.809 118.637C171.667 119.78 174.692 123.52 174.692 123.52L177.913 114.585C177.913 114.585 176.458 111.885 176.458 110.951C176.458 110.017 176.356 109.092 176.356 108.665C176.356 108.237 177.285 107.833 177.285 108.251C177.35 108.811 177.454 109.365 177.597 109.91L178.665 111.165L179.288 105.975C179.288 105.975 179.804 105.352 180.013 105.868C180.222 106.383 180.134 109.06 180.134 109.06H180.649L181.142 104.855C181.142 104.855 181.291 104.655 181.788 104.706C181.848 104.704 181.907 104.717 181.96 104.743C182.014 104.77 182.06 104.81 182.094 104.859C182.128 104.908 182.149 104.964 182.156 105.024C182.163 105.083 182.154 105.143 182.132 105.199L181.788 109.162L182.085 109.209L182.912 105.552C182.912 105.552 183.261 105.208 183.507 105.403C183.669 105.579 183.757 105.81 183.753 106.049L183.224 109.854L184.399 107.68C184.399 107.68 184.892 107.485 184.892 107.88C184.534 109.193 184.092 110.481 183.567 111.736C183.47 111.885 181.588 115.347 181.588 115.347C181.588 115.347 180.055 124.505 179.362 126.499C178.67 128.492 177.183 130.258 175.055 130.36C172.927 130.462 170.501 128.037 170.501 128.037L165.655 117.912Z" fill="white" stroke="#263238" stroke-width="0.5" stroke-linecap="round" stroke-linejoin="round"/>
    <path d="M179.818 114.106C179.818 114.106 180.18 112.494 180.621 111.983C181.023 111.599 181.497 111.299 182.015 111.1" stroke="#263238" stroke-width="0.5" stroke-linecap="round" stroke-linejoin="round"/>
    <path d="M158.684 114.376C158.684 114.376 158.48 117.284 158.271 118.093C158.062 118.902 156.817 118.716 155.673 118.716C154.53 118.716 154.117 120.574 153.908 122.247C153.699 123.92 151.208 142.4 151.622 145.016C152.035 147.632 156.403 150.42 161.18 150.731C165.956 151.042 172.708 150.313 175.412 148.236C178.117 146.159 178.423 144.518 177.801 142.418C177.178 140.318 175.515 138.162 174.683 137.228C173.851 136.294 173.019 135.151 173.019 135.151C173.019 135.151 168.345 119.673 167.202 118.53C166.059 117.387 163.777 117.907 163.777 117.907L163.048 114.06L158.684 114.376Z" fill="#92E3A9" stroke="#263238" stroke-width="0.5" stroke-linecap="round" stroke-linejoin="round"/>
    <path d="M154.345 143.227C154.345 143.227 159.256 132.414 171.798 135.792" stroke="#263238" stroke-width="0.5" stroke-linecap="round" stroke-linejoin="round"/>
    <path d="M157.528 137.335C157.528 137.335 161.073 134.426 164.888 134.519" stroke="#263238" stroke-width="0.5" stroke-linecap="round" stroke-linejoin="round"/>
    <path d="M164.692 117.8C164.388 117.812 164.085 117.85 163.786 117.912L163.057 114.064L158.694 114.376C158.694 114.376 158.489 117.284 158.28 118.093C158.178 118.507 157.815 118.66 157.351 118.716C157.699 119.645 158.977 122.493 161.918 122.665C164.525 122.842 164.753 119.529 164.692 117.8Z" fill="white" stroke="#263238" stroke-width="0.5" stroke-linecap="round" stroke-linejoin="round"/>
    <path d="M158.485 116.741C159.271 116.918 160.072 117.014 160.878 117.029C161.784 117.049 162.687 116.909 163.545 116.615L163.08 114.05L158.717 114.362C158.717 114.362 158.606 115.649 158.485 116.741Z" fill="#263238" stroke="#263238" stroke-width="0.5" stroke-linecap="round" stroke-linejoin="round"/>
    <path d="M169.706 96.9275C169.706 96.9275 173.136 94.4323 177.29 95.0689C181.444 95.7055 181.133 102.239 179.576 104.004C178.019 105.77 174.279 104.627 174.279 103.795C174.279 102.964 174.901 100.162 173.349 98.684C172.937 98.2684 172.42 97.9718 171.854 97.8254C171.287 97.679 170.691 97.6883 170.129 97.8522L169.706 96.9275Z" fill="#263238" stroke="#263238" stroke-width="0.5" stroke-linecap="round" stroke-linejoin="round"/>
    <path d="M153.109 104.511C152.997 105.436 152.963 106.368 153.006 107.299C153.109 108.34 151.654 109.065 152.588 110.83C153.522 112.596 155.706 115.612 160.901 115.714C166.096 115.816 169.521 110.937 169.521 106.365C169.521 101.793 163.796 98.2751 160.771 98.2751C157.746 98.2751 154.438 100.873 153.801 101.913C153.402 102.725 153.166 103.608 153.109 104.511Z" fill="white" stroke="#263238" stroke-width="0.5" stroke-linecap="round" stroke-linejoin="round"/>
    <path d="M159.112 108.377C159.146 108.558 159.124 108.746 159.048 108.914C158.972 109.082 158.846 109.222 158.687 109.316C158.528 109.41 158.345 109.453 158.161 109.438C157.977 109.424 157.802 109.353 157.66 109.235C157.517 109.118 157.415 108.959 157.366 108.782C157.317 108.604 157.324 108.415 157.387 108.241C157.449 108.068 157.563 107.918 157.714 107.811C157.865 107.705 158.045 107.648 158.229 107.647C158.442 107.629 158.654 107.695 158.82 107.832C158.985 107.968 159.09 108.164 159.112 108.377Z" stroke="#263238" stroke-width="0.5" stroke-linecap="round" stroke-linejoin="round"/>
    <path d="M156.617 110.017C156.617 110.017 157.867 111.472 160.358 110.119" stroke="#263238" stroke-width="0.5" stroke-linecap="round" stroke-linejoin="round"/>
    <path d="M155.994 107.317C156.338 107.317 156.617 106.851 156.617 106.277C156.617 105.702 156.338 105.236 155.994 105.236C155.651 105.236 155.372 105.702 155.372 106.277C155.372 106.851 155.651 107.317 155.994 107.317Z" fill="#263238"/>
    <path d="M161.087 106.379C161.087 106.955 160.803 107.42 160.46 107.42C160.116 107.42 159.837 106.955 159.837 106.379C159.837 105.803 160.116 105.343 160.46 105.343C160.803 105.343 161.087 105.807 161.087 106.379Z" fill="#263238"/>
    <path d="M154.967 104.511C155.23 104.236 155.559 104.035 155.924 103.926C156.288 103.816 156.674 103.804 157.044 103.888" stroke="#263238" stroke-width="0.5" stroke-linecap="round" stroke-linejoin="round"/>
    <path d="M159.614 103.781C159.614 103.781 161.584 103.368 162.207 105.133" stroke="#263238" stroke-width="0.5" stroke-linecap="round" stroke-linejoin="round"/>
    <path d="M159.526 98.9024C159.526 98.9024 162.435 105.343 165.032 107.001C167.629 108.66 170.12 107.522 170.538 106.588C171.637 104.432 171.861 101.935 171.161 99.6179C170.12 96.0865 167.941 93.8003 164.512 94.0094C161.082 94.2185 157.137 97.0205 157.137 97.0205L159.526 98.9024Z" fill="#263238" stroke="#263238" stroke-width="0.5" stroke-linecap="round" stroke-linejoin="round"/>
    <path d="M160.771 99.2137C160.771 99.2137 154.038 104.302 152.774 105.343C151.51 106.383 149.866 105.756 148.722 102.016C147.579 98.2751 149.972 95.1618 153.193 95.1618C156.413 95.1618 160.046 97.2249 160.046 97.2249" fill="#263238"/>
    <path d="M160.771 99.2137C160.771 99.2137 154.038 104.302 152.774 105.343C151.51 106.383 149.866 105.756 148.722 102.016C147.579 98.2751 149.972 95.1618 153.193 95.1618C156.413 95.1618 160.046 97.2249 160.046 97.2249" stroke="#263238" stroke-width="0.5" stroke-linecap="round" stroke-linejoin="round"/>
    <path d="M166.528 108.233C166.528 108.233 168.187 105.445 169.748 105.635C171.309 105.826 170.473 109.687 169.641 110.621C168.809 111.555 167.253 110.519 167.253 110.519" fill="white"/>
    <path d="M166.528 108.233C166.528 108.233 168.187 105.445 169.748 105.635C171.309 105.826 170.473 109.687 169.641 110.621C168.809 111.555 167.253 110.519 167.253 110.519" stroke="#263238" stroke-width="0.5" stroke-linecap="round" stroke-linejoin="round"/>
    <path d="M157.137 120.402C157.069 120.135 156.945 119.884 156.773 119.668C156.601 119.451 156.386 119.274 156.141 119.146C155.896 119.018 155.626 118.944 155.35 118.927C155.075 118.911 154.798 118.953 154.54 119.05C152.463 119.677 151.752 124.245 151.217 127.154C150.683 130.063 147.375 146.582 147.375 146.582C147.375 146.582 143.945 147.097 142.491 147.511C141.037 147.924 142.18 148.134 144.257 148.343C146.334 148.552 147.579 148.756 147.579 148.756C147.579 148.756 145.298 149.899 147.375 149.899C149.452 149.899 150.697 148.547 150.906 148.041C151.115 147.534 156.724 126.536 157.137 124.148C157.551 121.759 157.137 120.402 157.137 120.402Z" fill="white" stroke="#263238" stroke-width="0.5" stroke-linecap="round" stroke-linejoin="round"/>
    <path d="M176.885 139.045C176.885 139.045 173.888 137.042 170.798 139.133C167.708 141.224 170.069 146.949 170.705 148.951C171.342 150.954 173.795 156.674 174.98 159.583C176.165 162.492 177.16 167.018 177.434 167.854C177.708 168.69 179.887 169.22 180.793 169.039C182.935 168.361 185.006 167.477 186.978 166.399C188.065 165.675 188.339 164.401 187.703 164.127C187.066 163.853 180.793 163.946 180.793 163.946C180.793 163.946 179.613 160.229 179.432 157.404C179.251 154.578 178.159 146.405 178.07 143.677C177.982 140.95 177.271 139.607 176.885 139.045Z" fill="white" stroke="#263238" stroke-width="0.5" stroke-linecap="round" stroke-linejoin="round"/>
    <path d="M180.161 164.782C180.153 165.101 180.09 165.415 179.975 165.712C178.969 165.887 177.952 165.987 176.932 166.014C177.169 166.943 177.341 167.622 177.434 167.872C177.703 168.69 179.887 169.239 180.793 169.057C182.935 168.379 185.006 167.495 186.978 166.418C188.065 165.693 188.339 164.42 187.703 164.146C187.066 163.872 180.793 163.965 180.793 163.965C180.793 163.965 180.161 164.332 180.161 164.782Z" fill="#263238" stroke="#263238" stroke-width="0.5" stroke-linecap="round" stroke-linejoin="round"/>
    <path d="M172.071 167.603C172.071 167.603 171.323 167.603 169.66 156.2C168.93 151.21 169.479 143.059 167.569 140.332C165.659 137.604 159.67 138.427 159.67 144.286C159.67 150.146 165.12 162.966 166.64 166.646C168.159 170.326 168.549 172.645 169.892 172.919C171.235 173.193 176.574 171.827 178.619 170.465C180.663 169.104 181.072 167.213 179.711 167.213C178.349 167.213 172.071 167.603 172.071 167.603Z" fill="white" stroke="#263238" stroke-width="0.5" stroke-linecap="round" stroke-linejoin="round"/>
    <path d="M171.142 168.17C171.05 168.402 171.014 168.653 171.038 168.902C171.062 169.151 171.146 169.391 171.282 169.601C171.537 169.88 170.64 170.019 167.904 170.066C168.531 171.739 169.014 172.756 169.888 172.933C171.254 173.207 176.57 171.841 178.614 170.479C180.659 169.118 181.068 167.227 179.706 167.227C178.345 167.227 172.072 167.636 172.072 167.636C171.889 167.659 171.713 167.718 171.554 167.81C171.394 167.902 171.254 168.024 171.142 168.17Z" fill="#263238" stroke="#263238" stroke-width="0.5" stroke-linecap="round" stroke-linejoin="round"/>
    <path d="M126.297 80.0324C126.209 77.9201 125.33 75.9181 123.835 74.4239C121.372 72.1005 115.903 71.5522 113.305 75.1069C110.708 78.6616 110.708 81.5379 111.665 82.2209L112.622 82.904C112.622 82.904 111.391 85.2273 112.757 86.3239C114.123 87.4205 115.22 88.5125 115.494 87.2811C115.768 86.0498 113.714 83.4523 116.86 81.3985C120.006 79.3447 126.297 80.0324 126.297 80.0324Z" fill="#263238" stroke="#263238" stroke-width="0.5" stroke-linecap="round" stroke-linejoin="round"/>
    <path d="M124.792 77.1514C124.792 77.1514 128.895 73.7315 131.219 76.6031C133.542 79.4747 128.76 83.1688 128.077 83.5731C127.394 83.9773 124.657 78.3781 124.657 78.3781C124.657 78.3781 123.974 77.8345 124.792 77.1514Z" fill="#263238" stroke="#263238" stroke-width="0.5" stroke-linecap="round" stroke-linejoin="round"/>
    <path d="M128.533 84.2655C128.533 84.2655 130.08 81.9886 130.898 83.8984C131.716 85.8081 129.969 88.4521 129.169 89.0097C128.37 89.5673 128.533 84.2655 128.533 84.2655Z" fill="white" stroke="#263238" stroke-width="0.5" stroke-linecap="round" stroke-linejoin="round"/>
    <path d="M114.607 86.5376C114.607 86.5376 113.148 83.1735 112.149 84.6279C111.15 86.0823 112.242 89.9065 114.152 89.9065C114.399 89.5136 114.583 89.0839 114.695 88.6333" fill="white"/>
    <path d="M114.607 86.5376C114.607 86.5376 113.148 83.1735 112.149 84.6279C111.15 86.0823 112.242 89.9065 114.152 89.9065C114.399 89.5136 114.583 89.0839 114.695 88.6333" stroke="#263238" stroke-width="0.5" stroke-linecap="round" stroke-linejoin="round"/>
    <path d="M136.776 119.529C135.182 115.319 137.505 104.292 133.876 102.55C130.247 100.807 125.173 100.227 125.173 100.227L120.963 100.38L116.753 100.227C116.753 100.227 111.674 100.807 108.045 102.55C104.416 104.292 106.74 115.319 105.146 119.529C103.552 123.739 102.242 129.245 102.823 132.73C103.403 136.215 105.434 137.516 107.032 137.953C108.129 138.25 116.098 138.139 120.972 138.041C125.833 138.139 133.802 138.25 134.912 137.953C136.506 137.516 138.537 136.21 139.117 132.73C139.698 129.25 138.374 123.711 136.776 119.529Z" fill="#92E3A9" stroke="#263238" stroke-width="0.5" stroke-linecap="round" stroke-linejoin="round"/>
    <path d="M111.656 120.979C111.656 120.979 121.8 115.979 129.857 119.585" stroke="#263238" stroke-width="0.5" stroke-linecap="round" stroke-linejoin="round"/>
    <path d="M118.189 116.118C118.189 116.118 123.049 115.421 126.386 117.229" stroke="#263238" stroke-width="0.5" stroke-linecap="round" stroke-linejoin="round"/>
    <path d="M118.724 97.5502C118.724 97.5502 115.903 98.4795 115.448 99.7388C114.993 100.998 114.082 104.469 114.175 106.016C114.268 107.564 115.174 108.382 115.629 107.657C116.085 106.932 120.453 105.017 121.001 104.743C121.549 104.469 124.913 105.473 125.55 106.198C126.186 106.922 128.008 108.93 128.282 108.2C128.556 107.471 128.282 104.195 127.353 101.286C126.423 98.3773 125.624 97.9173 123.984 97.4619C122.344 97.0065 118.724 97.5502 118.724 97.5502Z" fill="white" stroke="#263238" stroke-width="0.5" stroke-linecap="round" stroke-linejoin="round"/>
    <path d="M117.701 97.369C117.701 97.369 117.882 101.923 118.631 104.288C119.379 106.653 121.358 109.841 122.269 109.399C123.18 108.958 124.183 104.752 124.634 103.029C124.988 101.316 125.232 99.5822 125.364 97.8383C125.364 97.8383 118.881 98.2797 117.701 97.369Z" fill="white" stroke="#263238" stroke-width="0.5" stroke-linecap="round" stroke-linejoin="round"/>
    <path d="M125.345 97.8243C125.345 97.8243 118.881 98.289 117.701 97.3597C117.701 97.3597 117.752 98.6003 117.901 100.124C120.066 100.823 122.367 100.992 124.611 100.617C124.769 100.584 124.913 100.543 125.075 100.505C125.229 99.1161 125.345 97.8243 125.345 97.8243Z" fill="#263238" stroke="#263238" stroke-width="0.5" stroke-linecap="round" stroke-linejoin="round"/>
    <path d="M114.491 82.0258C114.491 82.0258 112.943 94.2604 114.491 96.37C116.038 98.4795 121.377 99.6226 124.611 98.8977C127.845 98.1729 129.392 96.1097 129.536 92.0068C129.68 87.9038 128.551 81.1801 127.143 80.1996C125.735 79.2192 122.223 77.946 119.128 78.9311C116.033 79.9162 114.909 80.9013 114.491 82.0258Z" fill="white" stroke="#263238" stroke-width="0.5" stroke-linecap="round" stroke-linejoin="round"/>
    <path d="M119.132 78.1737C119.132 78.1737 118.203 81.6958 115.982 82.8203C113.761 83.9448 114.314 80.9617 114.871 79.2982" fill="#263238"/>
    <path d="M119.132 78.1737C119.132 78.1737 118.203 81.6958 115.982 82.8203C113.761 83.9448 114.314 80.9617 114.871 79.2982" stroke="#263238" stroke-width="0.5" stroke-linecap="round" stroke-linejoin="round"/>
    <path d="M117.841 86.4075C117.841 86.4075 119.425 85.0136 120.629 86.2217" stroke="#263238" stroke-width="0.5" stroke-linecap="round" stroke-linejoin="round"/>
    <path d="M123.914 86.1241C123.914 86.1241 125.22 84.3491 126.623 86.2217" stroke="#263238" stroke-width="0.5" stroke-linecap="round" stroke-linejoin="round"/>
    <path d="M122.98 83.8101L123.524 89.8182C123.524 89.8182 121.888 90.636 121.158 89.0886" fill="white"/>
    <path d="M122.98 83.8101L123.524 89.8182C123.524 89.8182 121.888 90.636 121.158 89.0886" stroke="#263238" stroke-width="0.5" stroke-linecap="round" stroke-linejoin="round"/>
    <path d="M117.608 83.8101C118.562 83.1663 119.723 82.9058 120.861 83.0806" stroke="#263238" stroke-width="0.5" stroke-linecap="round" stroke-linejoin="round"/>
    <path d="M123.161 83.1735C123.618 82.8723 124.149 82.7041 124.695 82.6877C125.242 82.6713 125.782 82.8073 126.256 83.0806" stroke="#263238" stroke-width="0.5" stroke-linecap="round" stroke-linejoin="round"/>
    <path d="M121.707 89.7253C121.707 89.7253 117.938 90.4408 118.212 91.0774C118.486 91.714 119.643 92.4714 120.735 92.3878C121.827 92.3041 122.617 90.9938 122.617 90.9938C122.617 90.9938 124.378 93.5959 126.716 91.3516C127.464 90.636 123.523 89.8135 123.523 89.8135C123.523 89.8135 122.25 90.3618 121.707 89.7253Z" fill="#263238"/>
    <path d="M136.524 134.366C136.524 134.366 136.246 131.917 127.496 129.9C118.746 127.883 112.353 129.751 109.43 131.917C106.507 134.082 104.704 135.518 103.594 139.407C102.483 143.296 102.2 150.926 110.959 152.943C119.717 154.959 133.602 154.657 137.63 150.708C144.131 144.342 137.774 135.792 136.524 134.366Z" fill="#263238" stroke="#263238" stroke-width="0.5" stroke-linecap="round" stroke-linejoin="round"/>
    <path d="M126.99 132.883C126.99 132.883 124.286 132.632 123.51 132.46C122.734 132.289 120.057 133.757 118.589 134.533C117.472 135.209 116.619 136.244 116.168 137.47C116.168 137.73 115.912 139.021 116.344 139.198C116.777 139.375 118.933 138.85 119.537 138.85C120.141 138.85 123.51 137.813 124.374 137.92C125.238 138.027 128.356 136.257 128.356 136.257L126.99 132.883Z" fill="white" stroke="#263238" stroke-width="0.5" stroke-linecap="round" stroke-linejoin="round"/>
    <path d="M123.426 136.605C123.426 136.605 121.005 136.865 120.401 137.381C119.745 137.867 119.052 138.301 118.329 138.678" stroke="#263238" stroke-width="0.5" stroke-linecap="round" stroke-linejoin="round"/>
    <path d="M122.39 135.327C121.343 135.626 120.329 136.031 119.365 136.536C118.46 137.23 117.621 138.008 116.86 138.859" stroke="#263238" stroke-width="0.5" stroke-linecap="round" stroke-linejoin="round"/>
    <path d="M121.869 134.189C121.869 134.189 118.5 135.397 117.896 135.829C117.283 136.336 116.706 136.884 116.168 137.47" stroke="#263238" stroke-width="0.5" stroke-linecap="round" stroke-linejoin="round"/>
    <path d="M133.769 101.969C133.769 101.969 137.979 102.694 140.01 104.869C142.04 107.043 144.508 118.07 145.669 122.28C146.831 126.49 147.412 132.809 146.831 134.115C146.25 135.42 143.653 136.257 141.492 136.257C139.331 136.257 127.979 136.503 127.979 136.503L126.386 133.018L137.775 127.716L134.912 111.109" fill="#92E3A9"/>
    <path d="M133.769 101.969C133.769 101.969 137.979 102.694 140.01 104.869C142.04 107.043 144.508 118.07 145.669 122.28C146.831 126.49 147.412 132.809 146.831 134.115C146.25 135.42 143.653 136.257 141.492 136.257C139.331 136.257 127.979 136.503 127.979 136.503L126.386 133.018L137.775 127.716L134.912 111.109" stroke="#263238" stroke-width="0.5" stroke-linecap="round" stroke-linejoin="round"/>
    <path d="M109.788 101.969C109.788 101.969 105.578 102.694 103.548 104.869C101.517 107.043 99.0497 118.07 97.8927 122.28C96.7357 126.49 96.0666 131.842 96.6474 133.148C97.2283 134.454 100.276 136.484 102.451 136.484C104.626 136.484 115.229 136.238 115.229 136.238L116.595 132.883L105.936 127.056L108.626 111.109" fill="#92E3A9"/>
    <path d="M109.788 101.969C109.788 101.969 105.578 102.694 103.548 104.869C101.517 107.043 99.0497 118.07 97.8927 122.28C96.7357 126.49 96.0666 131.842 96.6474 133.148C97.2283 134.454 100.276 136.484 102.451 136.484C104.626 136.484 115.229 136.238 115.229 136.238L116.595 132.883L105.936 127.056L108.626 111.109" stroke="#263238" stroke-width="0.5" stroke-linecap="round" stroke-linejoin="round"/>
    <path d="M116.596 132.883C116.596 132.883 119.295 132.632 120.071 132.46C120.847 132.289 123.528 133.757 124.997 134.533C126.112 135.209 126.965 136.244 127.413 137.47C127.413 137.73 127.673 139.021 127.241 139.198C126.809 139.375 124.648 138.85 124.044 138.85C123.44 138.85 120.071 137.813 119.207 137.92C118.343 138.027 115.229 136.257 115.229 136.257L116.596 132.883Z" fill="white" stroke="#263238" stroke-width="0.5" stroke-linecap="round" stroke-linejoin="round"/>
    <path d="M120.159 136.605C120.159 136.605 122.575 136.865 123.179 137.381C123.836 137.866 124.529 138.299 125.252 138.678" stroke="#263238" stroke-width="0.5" stroke-linecap="round" stroke-linejoin="round"/>
    <path d="M121.196 135.327C122.241 135.625 123.253 136.03 124.216 136.536C125.122 137.229 125.961 138.007 126.72 138.859" stroke="#263238" stroke-width="0.5" stroke-linecap="round" stroke-linejoin="round"/>
    <path d="M121.711 134.189C121.711 134.189 125.08 135.397 125.684 135.829C126.297 136.336 126.875 136.884 127.413 137.47" stroke="#263238" stroke-width="0.5" stroke-linecap="round" stroke-linejoin="round"/>
    <path d="M118.464 141.54C118.464 141.54 111.517 135.151 105.685 135.011C99.8537 134.872 96.392 139.04 96.6522 145.429C96.9124 151.818 103.45 194.595 103.45 194.595L110.118 194.456L111.796 145.847" fill="#263238"/>
    <path d="M118.464 141.54C118.464 141.54 111.517 135.151 105.685 135.011C99.8537 134.872 96.392 139.04 96.6522 145.429C96.9124 151.818 103.45 194.595 103.45 194.595L110.118 194.456L111.796 145.847" stroke="#263238" stroke-width="0.5" stroke-linecap="round" stroke-linejoin="round"/>
    <path d="M103.45 194.595C103.45 194.595 99.8349 197.095 98.8637 200.013C97.8926 202.931 103.45 202.1 105.834 199.739C107.417 198.103 108.858 196.336 110.141 194.456L103.45 194.595Z" fill="white" stroke="#263238" stroke-width="0.5" stroke-linecap="round" stroke-linejoin="round"/>
    <path d="M124.146 141.54C124.146 141.54 131.093 135.151 136.929 135.011C142.765 134.872 146.222 139.04 145.957 145.429C145.693 151.818 136.636 194.595 136.636 194.595L129.968 194.456L130.805 145.847" fill="#263238"/>
    <path d="M124.146 141.54C124.146 141.54 131.093 135.151 136.929 135.011C142.765 134.872 146.222 139.04 145.957 145.429C145.693 151.818 136.636 194.595 136.636 194.595L129.968 194.456L130.805 145.847" stroke="#263238" stroke-width="0.5" stroke-linecap="round" stroke-linejoin="round"/>
    <path d="M136.636 194.595C136.636 194.595 140.251 197.095 141.222 200.013C142.193 202.931 136.636 202.1 134.276 199.739C132.693 198.103 131.252 196.336 129.968 194.456L136.636 194.595Z" fill="white" stroke="#263238" stroke-width="0.5" stroke-linecap="round" stroke-linejoin="round"/>
    <path d="M84.9051 86.7561C84.9051 86.7561 88.5714 85.534 89.1336 83.3733C89.6958 81.2126 87.6327 73.9685 81.4248 71.4268C75.2169 68.8851 65.0593 70.674 61.579 74.6283C58.0987 78.5826 61.7695 82.2442 61.8624 83.0899C61.9554 83.9356 59.1349 84.4839 58.6656 88.0757C58.1962 91.6676 62.8057 95.3152 67.7869 96.4397C72.7681 97.5642 75.2215 96.1562 75.2215 94.2743C75.2215 92.3924 74.0924 90.7011 76.2577 89.2931C78.4231 87.8852 80.8626 85.2505 81.8988 85.3435C82.935 85.4364 84.9051 86.7561 84.9051 86.7561Z" fill="#263238"/>
    <mask id="mask1_405_27938" style="mask-type:luminance" maskUnits="userSpaceOnUse" x="58" y="70" width="32" height="27">
      <path d="M84.9051 86.7561C84.9051 86.7561 88.5714 85.534 89.1336 83.3733C89.6958 81.2126 87.6327 73.9685 81.4248 71.4268C75.2169 68.8851 65.0593 70.674 61.579 74.6283C58.0987 78.5826 61.7695 82.2442 61.8624 83.0899C61.9554 83.9356 59.1349 84.4839 58.6656 88.0757C58.1962 91.6676 62.8057 95.3152 67.7869 96.4397C72.7681 97.5642 75.2215 96.1562 75.2215 94.2743C75.2215 92.3924 74.0924 90.7011 76.2577 89.2931C78.4231 87.8852 80.8626 85.2505 81.8988 85.3435C82.935 85.4364 84.9051 86.7561 84.9051 86.7561Z" fill="white"/>
    </mask>
    <g mask="url(#mask1_405_27938)">
      <path d="M76.9921 75.107C74.5054 79.1099 70.7394 82.1554 66.3048 83.7497C59.0236 86.2543 56.5237 84.4328 56.5237 84.4328" stroke="#636363" stroke-width="0.5" stroke-linecap="round" stroke-linejoin="round"/>
      <path d="M73.5768 73.5271C73.5768 73.5271 66.7555 82.6252 58.3358 82.3976" stroke="#636363" stroke-width="0.5" stroke-linecap="round" stroke-linejoin="round"/>
      <path d="M79.7193 75.107C79.7193 75.107 68.1027 92.6248 54.2418 92.6248" stroke="#636363" stroke-width="0.5" stroke-linecap="round" stroke-linejoin="round"/>
      <path d="M74.943 72.1331C74.943 72.1331 86.4945 78.197 89.1338 83.3548" stroke="#636363" stroke-width="0.5" stroke-linecap="round" stroke-linejoin="round"/>
    </g>
    <path d="M84.9051 86.7561C84.9051 86.7561 88.5714 85.534 89.1336 83.3733C89.6958 81.2126 87.6327 73.9685 81.4248 71.4268C75.2169 68.8851 65.0593 70.674 61.579 74.6283C58.0987 78.5826 61.7695 82.2442 61.8624 83.0899C61.9554 83.9356 59.1349 84.4839 58.6656 88.0757C58.1962 91.6676 62.8057 95.3152 67.7869 96.4397C72.7681 97.5642 75.2215 96.1562 75.2215 94.2743C75.2215 92.3924 74.0924 90.7011 76.2577 89.2931C78.4231 87.8852 80.8626 85.2505 81.8988 85.3435C82.935 85.4364 84.9051 86.7561 84.9051 86.7561Z" stroke="#263238" stroke-width="0.5" stroke-linecap="round" stroke-linejoin="round"/>
    <path d="M82.7396 104.906C82.7396 104.906 88.1948 106.411 90.7319 109.985C93.2689 113.558 95.4343 122.117 96.3078 125.783C97.1814 129.449 96.043 133.473 93.5198 134.788C90.9967 136.103 86.8194 131.071 85.7878 129.171C84.7563 127.27 84.7516 120.426 83.9292 115.816C83.1067 111.207 81.3921 105.473 81.3921 105.473C81.3921 105.473 80.5789 104.529 82.7396 104.906Z" fill="white" stroke="#263238" stroke-width="0.5" stroke-linecap="round" stroke-linejoin="round"/>
    <path d="M71.8296 93.043C71.8296 93.043 72.3965 98.6886 71.8296 99.9107C71.2627 101.133 69.1996 102.541 65.7192 103.67C62.2389 104.799 59.8877 105.742 58.0058 108.939C56.1239 112.136 54.0655 128.367 51.705 132.637C49.298 136.996 48.7358 145.908 54.4418 150.331C59.0885 153.951 75.4075 153.514 81.2344 152.655C87.0613 151.795 92.2469 152.622 93.8454 148.58C95.4438 144.537 92.1447 137.702 90.5463 135.634C88.9478 133.566 85.7323 131.522 85.7323 131.522C85.7323 131.522 87.7397 128.037 87.893 125.128C88.1765 119.859 82.7213 104.906 82.7213 104.906C82.7213 104.906 79.4315 103.512 78.6787 101.709C77.926 99.9061 78.2141 97.3829 78.2141 97.3829L71.8296 93.043Z" fill="#92E3A9" stroke="#263238" stroke-width="0.5" stroke-linecap="round" stroke-linejoin="round"/>
    <path d="M62.9918 137C62.9918 137 72.5825 137.418 77.7961 141.586" stroke="#263238" stroke-width="0.5" stroke-linecap="round" stroke-linejoin="round"/>
    <path d="M69.1996 128.325C69.1996 128.325 74.8406 129.171 80.1053 127.196" stroke="#263238" stroke-width="0.5" stroke-linecap="round" stroke-linejoin="round"/>
    <path d="M75.6861 129.171C75.6861 129.171 79.4499 128.608 81.6106 127.289" stroke="#263238" stroke-width="0.5" stroke-linecap="round" stroke-linejoin="round"/>
    <path d="M60.5473 121.388C62.615 120.165 65.1521 114.524 65.6261 110.008C65.9978 106.421 65.1242 104.618 64.7525 104.032C61.7972 105.036 59.7062 106.086 58.0056 108.976C56.8439 110.951 55.3244 117.777 53.9537 123.794C55.8077 123.804 58.6747 122.47 60.5473 121.388Z" fill="white" stroke="#263238" stroke-width="0.5" stroke-linecap="round" stroke-linejoin="round"/>
    <path d="M78.6975 101.709C77.9447 99.9246 78.2328 97.3829 78.2328 97.3829L71.8297 93.043C71.8297 93.043 72.3966 98.6886 71.8297 99.9107C71.3929 100.84 70.0501 101.918 67.8429 102.875C68.2332 104.599 69.3763 109.018 71.1746 110.816C73.4282 113.075 77.7542 113.544 79.2597 110.538C80.7652 107.531 80.0125 103.391 80.0125 103.391L80.0496 103.293C79.4793 102.88 79.0158 102.337 78.6975 101.709Z" fill="white" stroke="#263238" stroke-width="0.5" stroke-linecap="round" stroke-linejoin="round"/>
    <path d="M78.2283 97.3829L72.6755 93.6284L71.9181 94.042C71.9739 94.7529 72.0436 95.752 72.0715 96.7463C73.3028 98.1403 75.0871 99.8642 76.7413 100.18C77.257 100.279 77.7832 100.312 78.3072 100.278C78.1659 99.3194 78.1394 98.3476 78.2283 97.3829Z" fill="#263238"/>
    <path d="M80.6719 80.3623C80.6719 80.3623 78.6041 83.8426 75.3097 85.6269C73.5297 86.6327 71.6359 87.422 69.6686 87.9781C69.6686 87.9781 69.7616 89.1073 69.2922 89.1073C68.8229 89.1073 67.7867 87.4159 67.1316 87.3229C66.4764 87.23 64.404 89.9529 65.1521 91.0821C65.8517 92.0959 66.8342 92.8813 67.9772 93.3403C68.9066 93.7167 69.9521 92.4947 69.9521 92.4947C69.9521 92.4947 77.1915 101.323 81.3317 99.079C85.4719 96.8346 85.1838 85.2552 85.1838 85.2552C85.1838 85.2552 84.2451 82.7135 80.6719 80.3623Z" fill="white" stroke="#263238" stroke-width="0.5" stroke-linecap="round" stroke-linejoin="round"/>
    <path d="M77.8981 87.6993C77.8981 88.2941 77.6239 88.7774 77.2847 88.7774C76.9455 88.7774 76.676 88.3127 76.676 87.6993C76.676 87.086 76.9502 86.6167 77.2847 86.6167C77.6193 86.6167 77.8981 87.0999 77.8981 87.6993Z" fill="#263238"/>
    <path d="M83.7295 87.1324C83.7295 87.7319 83.4553 88.2151 83.1161 88.2151C82.7769 88.2151 82.5074 87.7504 82.5074 87.1324C82.5074 86.5144 82.7769 86.0544 83.1161 86.0544C83.4553 86.0544 83.7295 86.5377 83.7295 87.1324Z" fill="#263238"/>
    <path d="M81.5177 86.1009L80.9555 87.8852C80.9555 87.8852 82.4564 88.3499 82.4564 89.2049C82.4564 90.0598 81.0624 90.4269 80.765 90.4269" stroke="#263238" stroke-width="0.5" stroke-linecap="round" stroke-linejoin="round"/>
    <path d="M79.6361 93.1545C79.9401 93.3164 80.2791 93.4011 80.6235 93.4011C80.9679 93.4011 81.307 93.3164 81.6109 93.1545" stroke="#263238" stroke-width="0.5" stroke-linecap="round" stroke-linejoin="round"/>
    <path d="M76.0622 85.441C76.0622 85.441 76.9079 83.9355 78.5063 84.3119" stroke="#263238" stroke-width="0.5" stroke-linecap="round" stroke-linejoin="round"/>
    <path d="M82.3632 84.5954C82.5104 84.5172 82.6719 84.4697 82.838 84.4558C83.004 84.4419 83.1712 84.4618 83.3293 84.5143C83.4874 84.5669 83.6333 84.651 83.7579 84.7616C83.8826 84.8722 83.9835 85.0069 84.0546 85.1576" stroke="#263238" stroke-width="0.5" stroke-linecap="round" stroke-linejoin="round"/>
    <path d="M79.3522 135.89C79.3522 135.89 82.5538 136.415 82.7443 136.819C82.9348 137.223 83.9989 139.523 83.7108 140.197C83.4227 140.871 82.8419 139.909 82.6514 139.231C82.4608 138.552 80.328 137.014 80.328 137.014" fill="white"/>
    <path d="M79.3522 135.89C79.3522 135.89 82.5538 136.415 82.7443 136.819C82.9348 137.223 83.9989 139.523 83.7108 140.197C83.4227 140.871 82.8419 139.909 82.6514 139.231C82.4608 138.552 80.328 137.014 80.328 137.014" stroke="#263238" stroke-width="0.5" stroke-linecap="round" stroke-linejoin="round"/>
    <path d="M78.7903 135.945C78.7903 135.945 81.5039 136.786 81.7688 137.13C82.331 137.86 83.4369 139.672 83.1628 140.346C82.8886 141.02 82.5122 140.615 81.109 138.422C80.7316 137.94 80.2854 137.515 79.7847 137.163" fill="white"/>
    <path d="M78.7903 135.945C78.7903 135.945 81.5039 136.786 81.7688 137.13C82.331 137.86 83.4369 139.672 83.1628 140.346C82.8886 141.02 82.5122 140.615 81.109 138.422C80.7316 137.94 80.2854 137.515 79.7847 137.163" stroke="#263238" stroke-width="0.5" stroke-linecap="round" stroke-linejoin="round"/>
    <path d="M64.2646 104.009C64.2646 104.009 57.9266 105.222 54.3533 107.922C50.78 110.621 48.5589 124.993 48.1825 128.469C47.8062 131.945 47.4112 135.221 49.1444 135.904C50.8776 136.587 63.8092 137.158 66.4113 137.158C69.0135 137.158 76.2529 138.115 76.8291 138.115C77.4053 138.115 80.7834 140.239 81.3642 140.82C81.9451 141.401 82.0287 140.318 81.7499 139.272C81.3735 137.878 79.4266 135.704 77.0243 134.932C74.6219 134.161 70.5608 134.547 67.954 133.102C65.3473 131.657 59.0836 128.357 58.1171 128.176C57.7044 128.081 57.285 128.017 56.8625 127.986C56.8625 127.986 61.8809 116.797 62.3595 115.156" fill="white"/>
    <path d="M64.2646 104.009C64.2646 104.009 57.9266 105.222 54.3533 107.922C50.78 110.621 48.5589 124.993 48.1825 128.469C47.8062 131.945 47.4112 135.221 49.1444 135.904C50.8776 136.587 63.8092 137.158 66.4113 137.158C69.0135 137.158 76.2529 138.115 76.8291 138.115C77.4053 138.115 80.7834 140.239 81.3642 140.82C81.9451 141.401 82.0287 140.318 81.7499 139.272C81.3735 137.878 79.4266 135.704 77.0243 134.932C74.6219 134.161 70.5608 134.547 67.954 133.102C65.3473 131.657 59.0836 128.357 58.1171 128.176C57.7044 128.081 57.285 128.017 56.8625 127.986C56.8625 127.986 61.8809 116.797 62.3595 115.156" stroke="#263238" stroke-width="0.5" stroke-linecap="round" stroke-linejoin="round"/>
    <path d="M79.05 137.725C79.05 137.725 81.3733 139.365 81.3733 140.815" stroke="#263238" stroke-width="0.5" stroke-linecap="round" stroke-linejoin="round"/>
    <path d="M93.1668 128.357C91.0957 127.84 88.9048 128.143 87.0518 129.203C84.0454 130.992 82.3494 132.683 80.5465 133.153C78.7436 133.622 75.7512 133.343 73.4929 134.282C71.9245 134.901 70.3237 135.435 68.6976 135.88C67.5684 136.257 67.6613 137.102 68.507 137.102C69.3527 137.102 70.4819 137.01 70.4819 137.01C70.4819 137.01 68.981 139.361 68.981 140.113C68.981 140.866 71.2346 140.959 72.0803 140.769C72.926 140.578 74.3386 138.794 74.8079 138.608C75.2772 138.422 77.0662 138.701 78.3812 137.762C79.6962 136.824 80.263 136.368 80.263 136.368C80.263 136.368 85.6253 138.06 89.5563 137.121C93.4874 136.182 94.8675 135.29 95.9966 131.248" fill="white"/>
    <path d="M93.1668 128.357C91.0957 127.84 88.9048 128.143 87.0518 129.203C84.0454 130.992 82.3494 132.683 80.5465 133.153C78.7436 133.622 75.7512 133.343 73.4929 134.282C71.9245 134.901 70.3237 135.435 68.6976 135.88C67.5684 136.257 67.6613 137.102 68.507 137.102C69.3527 137.102 70.4819 137.01 70.4819 137.01C70.4819 137.01 68.981 139.361 68.981 140.113C68.981 140.866 71.2346 140.959 72.0803 140.769C72.926 140.578 74.3386 138.794 74.8079 138.608C75.2772 138.422 77.0662 138.701 78.3812 137.762C79.6962 136.824 80.263 136.368 80.263 136.368C80.263 136.368 85.6253 138.06 89.5563 137.121C93.4874 136.182 94.8675 135.29 95.9966 131.248" stroke="#263238" stroke-width="0.5" stroke-linecap="round" stroke-linejoin="round"/>
    <path d="M70.501 137.014C71.0359 136.381 71.6718 135.841 72.3829 135.416" stroke="#263238" stroke-width="0.5" stroke-linecap="round" stroke-linejoin="round"/>
    <path d="M69.6552 140.397C69.6552 140.397 71.3512 137.2 73.6048 135.885" stroke="#263238" stroke-width="0.5" stroke-linecap="round" stroke-linejoin="round"/>
    <path d="M70.9652 140.639C70.9652 140.639 71.6483 138.041 74.7336 136.457" stroke="#263238" stroke-width="0.5" stroke-linecap="round" stroke-linejoin="round"/>
    <path d="M72.0993 140.773C72.3117 139.933 72.7372 139.161 73.3345 138.533C73.9319 137.904 74.6811 137.441 75.5099 137.186" stroke="#263238" stroke-width="0.5" stroke-linecap="round" stroke-linejoin="round"/>
    <path d="M90.9642 143.459C90.9642 143.459 86.7822 141.517 82.7489 145.248C78.7156 148.979 78.7528 150.824 73.3813 158.458C68.0098 166.093 60.2406 180.107 58.6003 181.153C56.96 182.198 51.7326 184.284 50.701 187.421C49.6695 190.557 51.1657 191.454 53.3868 190.557C55.6079 189.661 59.3577 183.239 59.9571 182.793C60.5565 182.347 73.2465 172.194 79.9656 168.309C86.6846 164.425 90.0813 160.777 92.7671 154.058C95.4528 147.339 93.3526 143.905 90.9642 143.459Z" fill="white" stroke="#263238" stroke-width="0.5" stroke-linecap="round" stroke-linejoin="round"/>
    <path d="M59.8409 182.895C59.1567 182.564 58.5824 182.043 58.1866 181.394C56.2258 182.5 51.6813 184.512 50.687 187.435C49.6415 190.571 51.1516 191.468 53.3727 190.571C55.5288 189.693 59.0045 183.82 59.8409 182.895Z" fill="#263238" stroke="#263238" stroke-width="0.5" stroke-linecap="round" stroke-linejoin="round"/>
    <path d="M60.7796 186.259C60.7796 186.259 68.3072 174.011 73.084 166.395C77.8607 158.779 80.105 154.156 80.105 150.42C80.105 150.42 80.3002 144.923 75.9231 144.895C73.2326 144.895 68.1585 146.54 64.4273 153.723C60.696 160.907 58.0056 184.331 57.5595 185.674C57.1134 187.017 57.0949 195.381 58.303 197.323C59.5111 199.265 61.5882 197.918 61.7368 193.736C61.8297 191.208 61.5063 188.682 60.7796 186.259Z" fill="white" stroke="#263238" stroke-width="0.5" stroke-linecap="round" stroke-linejoin="round"/>
    <path d="M57.4529 186.157C57.1183 188.406 57.2159 195.529 58.3032 197.309C59.502 199.247 61.5884 197.904 61.7371 193.722C61.8279 191.2 61.5045 188.681 60.7799 186.264C60.7799 186.264 59.0745 188.322 57.4529 186.157Z" fill="#263238" stroke="#263238" stroke-width="0.5" stroke-linecap="round" stroke-linejoin="round"/>
  </g>
</svg>