<?xml version="1.0" encoding="UTF-8"?>
<svg id="Layer_2" data-name="Layer 2" xmlns="http://www.w3.org/2000/svg" viewBox="0 0 848.5 164.26">
  <defs>
    <style>
      .cls-1 {
        fill: #fff;
      }
    </style>
  </defs>
  <g id="Layer_1-2" data-name="Layer 1">
    <g>
      <g>
        <path class="cls-1" d="m347.38,50.05c0,2.77-.53,5.58-1.58,8.44-1.05,2.86-2.64,5.48-4.76,7.88-2.12,2.39-4.8,4.33-8.05,5.82-3.24,1.49-7.09,2.23-11.53,2.23-5.91,0-10.96-1.41-15.14-4.22s-7.38-6.7-9.58-11.66c-2.21-4.96-3.31-10.66-3.31-17.09s1.1-12.12,3.31-17.05c2.21-4.93,5.4-8.8,9.58-11.6,4.18-2.8,9.23-4.2,15.14-4.2,4.93,0,9.14.89,12.61,2.68,3.48,1.79,6.26,4.11,8.35,6.97,2.09,2.86,3.51,5.87,4.26,9.04.46,1.93.69,3.79.69,5.58h-13.46c0-.87-.07-1.7-.22-2.51-.29-2.1-.95-3.98-1.99-5.62-1.04-1.64-2.42-2.95-4.13-3.92-1.72-.97-3.76-1.45-6.12-1.45-2.77,0-5.24.79-7.4,2.38-2.16,1.59-3.87,4.01-5.11,7.27-1.24,3.26-1.86,7.4-1.86,12.42s.62,9.21,1.86,12.48c1.24,3.27,2.94,5.71,5.11,7.31s4.63,2.4,7.4,2.4c1.99,0,3.76-.36,5.3-1.08,1.54-.72,2.84-1.72,3.89-2.99,1.05-1.27,1.86-2.73,2.42-4.37.56-1.64.84-3.36.84-5.15h13.46Z"/>
        <path class="cls-1" d="m379.18,74.36c-4.96,0-9.33-1.02-13.11-3.07-3.78-2.05-6.73-4.87-8.85-8.46-2.12-3.59-3.18-7.74-3.18-12.44s1.06-8.8,3.18-12.4,5.07-6.39,8.85-8.39c3.78-2,8.15-3.01,13.11-3.01s9.33,1,13.11,3.01c3.78,2.01,6.73,4.8,8.85,8.39s3.18,7.72,3.18,12.4-1.06,8.85-3.18,12.44c-2.12,3.59-5.07,6.41-8.85,8.46-3.78,2.05-8.15,3.07-13.11,3.07Zm0-10.64c2.34,0,4.37-.55,6.1-1.64,1.73-1.1,3.07-2.65,4.02-4.65s1.43-4.35,1.43-7.03-.48-5.01-1.43-6.99-2.29-3.5-4.02-4.56c-1.73-1.07-3.76-1.6-6.1-1.6s-4.33.53-6.08,1.6c-1.75,1.07-3.09,2.59-4.05,4.56s-1.43,4.3-1.43,6.99.48,5.03,1.43,7.03,2.3,3.55,4.05,4.65c1.74,1.1,3.77,1.64,6.08,1.64Z"/>
        <path class="cls-1" d="m426.56,5.74v67.63h-13.24V5.74h13.24Z"/>
        <path class="cls-1" d="m451.13,5.74v67.63h-13.24V5.74h13.24Z"/>
        <path class="cls-1" d="m466.97,54.42v-8.87h30.46l-1.3,2.25v-1.3c0-1.64-.39-3.22-1.17-4.74-.78-1.51-1.98-2.75-3.61-3.72-1.63-.97-3.71-1.45-6.25-1.45s-4.72.54-6.55,1.62c-1.83,1.08-3.23,2.63-4.2,4.65-.97,2.02-1.45,4.46-1.45,7.31s.47,5.46,1.41,7.55c.94,2.09,2.34,3.7,4.2,4.82s4.17,1.69,6.94,1.69c1.79,0,3.33-.17,4.63-.5,1.3-.33,2.36-.76,3.18-1.28.82-.52,1.45-1.1,1.88-1.73.43-.63.69-1.25.78-1.86h13.24c-.17,1.93-.84,3.83-1.99,5.69-1.15,1.86-2.75,3.53-4.8,5.02-2.05,1.49-4.54,2.66-7.46,3.53-2.93.87-6.27,1.3-10.02,1.3-5.08,0-9.5-1.02-13.28-3.05-3.78-2.03-6.71-4.85-8.78-8.44s-3.12-7.74-3.12-12.44,1.06-8.93,3.18-12.53c2.12-3.59,5.08-6.39,8.87-8.39s8.18-3.01,13.17-3.01,9.52,1.02,13.24,3.05c3.72,2.03,6.59,4.88,8.61,8.52,2.02,3.65,3.03,7.9,3.03,12.74,0,.72-.01,1.41-.04,2.08-.03.66-.07,1.15-.13,1.47h-42.66Z"/>
        <path class="cls-1" d="m549.87,67.92c2.83.29,5.3.83,7.42,1.62,2.12.79,3.77,1.96,4.95,3.5s1.77,3.6,1.77,6.17c0,2.97-.97,5.5-2.92,7.59-1.95,2.09-4.8,3.68-8.54,4.78-3.75,1.1-8.29,1.64-13.63,1.64-7.88,0-13.97-1.13-18.28-3.4-4.31-2.27-6.47-5.29-6.47-9.06,0-1.07.12-2.03.37-2.88.25-.85.56-1.58.93-2.18l12.2,1.77c-.14.2-.3.51-.45.93-.16.42-.24.94-.24,1.58,0,1.53,1.15,2.67,3.44,3.42,2.29.75,5.26,1.12,8.89,1.12,2.57,0,4.77-.18,6.6-.54,1.83-.36,3.23-.89,4.2-1.58.97-.69,1.45-1.49,1.45-2.38,0-1.3-.63-2.15-1.88-2.55-1.25-.4-2.71-.69-4.35-.87l-17.39-1.77c-3.2-.32-5.86-1.24-7.96-2.77-2.11-1.53-3.16-3.59-3.16-6.19,0-1.62.45-3.09,1.34-4.44.89-1.34,1.92-2.45,3.07-3.33,1.15-.88,2.12-1.43,2.9-1.67l6.84,3.46c-.55.09-1.19.43-1.92,1.04s-1.1,1.31-1.1,2.12.41,1.5,1.23,2.08c.82.58,2.33.97,4.52,1.17l16.18,1.6Zm4.54-40.5h11.81l-4.8,17.65c-.89,3.35-2.22,6.32-3.98,8.93-1.76,2.61-4.1,4.67-7.03,6.17-2.93,1.5-6.61,2.25-11.05,2.25-4.67,0-8.72-.72-12.14-2.16s-6.05-3.48-7.9-6.12-2.77-5.76-2.77-9.37.94-6.78,2.83-9.52c1.89-2.74,4.47-4.87,7.74-6.4,3.27-1.53,6.99-2.29,11.14-2.29,3.14,0,6.02.51,8.63,1.54,2.61,1.02,4.72,2.37,6.32,4.05,1.6,1.67,2.43,3.52,2.49,5.54l-2.47.65,1.17-10.9Zm-15.14,25.18c1.9,0,3.58-.31,5.02-.93,1.44-.62,2.57-1.53,3.37-2.73.81-1.2,1.21-2.65,1.21-4.35s-.4-3.1-1.21-4.28-1.93-2.09-3.37-2.73c-1.44-.63-3.12-.95-5.02-.95s-3.45.32-4.91.97c-1.46.65-2.6,1.57-3.44,2.77-.84,1.2-1.25,2.65-1.25,4.35s.4,3.09,1.21,4.26c.81,1.17,1.93,2.06,3.38,2.68,1.44.62,3.12.93,5.02.93Z"/>
        <path class="cls-1" d="m576.22,54.42v-8.87h30.46l-1.3,2.25v-1.3c0-1.64-.39-3.22-1.17-4.74-.78-1.51-1.98-2.75-3.61-3.72-1.63-.97-3.71-1.45-6.25-1.45s-4.72.54-6.55,1.62c-1.83,1.08-3.23,2.63-4.2,4.65-.97,2.02-1.45,4.46-1.45,7.31s.47,5.46,1.41,7.55c.94,2.09,2.34,3.7,4.2,4.82s4.17,1.69,6.94,1.69c1.79,0,3.33-.17,4.63-.5,1.3-.33,2.36-.76,3.18-1.28.82-.52,1.45-1.1,1.88-1.73.43-.63.69-1.25.78-1.86h13.24c-.17,1.93-.84,3.83-1.99,5.69-1.15,1.86-2.75,3.53-4.8,5.02-2.05,1.49-4.54,2.66-7.46,3.53-2.93.87-6.27,1.3-10.02,1.3-5.08,0-9.5-1.02-13.28-3.05-3.78-2.03-6.71-4.85-8.78-8.44s-3.12-7.74-3.12-12.44,1.06-8.93,3.18-12.53c2.12-3.59,5.08-6.39,8.87-8.39s8.18-3.01,13.17-3.01,9.52,1.02,13.24,3.05c3.72,2.03,6.59,4.88,8.61,8.52,2.02,3.65,3.03,7.9,3.03,12.74,0,.72-.01,1.41-.04,2.08-.03.66-.07,1.15-.13,1.47h-42.66Z"/>
        <path class="cls-1" d="m701.3,50.05c0,2.77-.53,5.58-1.58,8.44-1.05,2.86-2.64,5.48-4.76,7.88-2.12,2.39-4.8,4.33-8.05,5.82-3.24,1.49-7.09,2.23-11.53,2.23-5.91,0-10.96-1.41-15.14-4.22s-7.38-6.7-9.58-11.66c-2.21-4.96-3.31-10.66-3.31-17.09s1.1-12.12,3.31-17.05c2.21-4.93,5.4-8.8,9.58-11.6,4.18-2.8,9.23-4.2,15.14-4.2,4.93,0,9.14.89,12.61,2.68,3.48,1.79,6.26,4.11,8.35,6.97,2.09,2.86,3.51,5.87,4.26,9.04.46,1.93.69,3.79.69,5.58h-13.46c0-.87-.07-1.7-.22-2.51-.29-2.1-.95-3.98-1.99-5.62-1.04-1.64-2.42-2.95-4.13-3.92-1.72-.97-3.76-1.45-6.12-1.45-2.77,0-5.24.79-7.4,2.38-2.16,1.59-3.87,4.01-5.11,7.27-1.24,3.26-1.86,7.4-1.86,12.42s.62,9.21,1.86,12.48c1.24,3.27,2.94,5.71,5.11,7.31s4.63,2.4,7.4,2.4c1.99,0,3.76-.36,5.3-1.08,1.54-.72,2.84-1.72,3.89-2.99,1.05-1.27,1.86-2.73,2.42-4.37.56-1.64.84-3.36.84-5.15h13.46Z"/>
        <path class="cls-1" d="m733.1,74.36c-4.96,0-9.33-1.02-13.11-3.07-3.78-2.05-6.73-4.87-8.85-8.46-2.12-3.59-3.18-7.74-3.18-12.44s1.06-8.8,3.18-12.4,5.07-6.39,8.85-8.39c3.78-2,8.15-3.01,13.11-3.01s9.33,1,13.11,3.01c3.78,2.01,6.73,4.8,8.85,8.39s3.18,7.72,3.18,12.4-1.06,8.85-3.18,12.44c-2.12,3.59-5.07,6.41-8.85,8.46-3.78,2.05-8.15,3.07-13.11,3.07Zm0-10.64c2.34,0,4.37-.55,6.1-1.64,1.73-1.1,3.07-2.65,4.02-4.65s1.43-4.35,1.43-7.03-.48-5.01-1.43-6.99-2.29-3.5-4.02-4.56c-1.73-1.07-3.76-1.6-6.1-1.6s-4.33.53-6.08,1.6c-1.75,1.07-3.09,2.59-4.05,4.56s-1.43,4.3-1.43,6.99.48,5.03,1.43,7.03,2.3,3.55,4.05,4.65c1.74,1.1,3.77,1.64,6.08,1.64Z"/>
        <path class="cls-1" d="m785.72,74.41c-2.74,0-5.38-.32-7.92-.95-2.54-.63-4.81-1.57-6.81-2.81s-3.59-2.79-4.76-4.65c-1.17-1.86-1.75-4.03-1.75-6.51v-.78h13.33v.61c0,1.67.74,2.9,2.23,3.68,1.49.78,3.5,1.17,6.04,1.17,1.33,0,2.6-.14,3.83-.41,1.23-.27,2.23-.72,3.03-1.34.79-.62,1.19-1.41,1.19-2.36,0-1.53-.84-2.61-2.53-3.25-1.69-.63-4.39-1.27-8.11-1.9-2.11-.35-4.24-.84-6.4-1.47-2.16-.63-4.15-1.48-5.97-2.53-1.82-1.05-3.27-2.39-4.37-4.02-1.1-1.63-1.64-3.61-1.64-5.95,0-3.12.94-5.74,2.83-7.87,1.89-2.13,4.41-3.75,7.55-4.85,3.14-1.1,6.6-1.64,10.38-1.64s6.97.6,10.08,1.79c3.12,1.2,5.64,2.91,7.57,5.15,1.93,2.24,2.9,4.93,2.9,8.07v.61h-13.2v-.52c0-1.15-.37-2.09-1.1-2.81-.74-.72-1.67-1.26-2.79-1.62-1.12-.36-2.29-.54-3.5-.54-1.1,0-2.23.12-3.4.37-1.17.25-2.16.65-2.96,1.21-.81.56-1.21,1.35-1.21,2.36s.43,1.78,1.3,2.4c.87.62,2.08,1.12,3.63,1.51s3.36.76,5.41,1.1c1.93.32,3.97.76,6.12,1.32s4.17,1.36,6.06,2.38c1.89,1.02,3.42,2.37,4.59,4.02,1.17,1.66,1.75,3.76,1.75,6.3s-.61,4.88-1.82,6.75c-1.21,1.88-2.85,3.4-4.91,4.56-2.06,1.17-4.36,2.03-6.88,2.6-2.52.56-5.11.84-7.77.84Z"/>
        <path class="cls-1" d="m837.64,74.32c-1.76,0-3.57-.15-5.43-.45-1.86-.3-3.59-.91-5.19-1.82-1.6-.91-2.89-2.24-3.87-4s-1.47-4.08-1.47-6.97v-23.28h-10.6v-10.38h2.99c1.73,0,3.11-.07,4.13-.22,1.02-.14,1.79-.51,2.29-1.1.5-.59.83-1.52.97-2.79s.22-3.01.22-5.24v-5.8h13.46v15.14h13.37v10.38h-13.37v19.47c0,1.99.24,3.61.71,4.85.48,1.24,1.67,1.86,3.57,1.86.95,0,1.85-.09,2.7-.26s1.49-.35,1.93-.52v10.08c-.61.26-1.46.5-2.55.71-1.1.22-2.38.32-3.85.32Z"/>
      </g>
      <g>
        <path class="cls-1" d="m320.33,159.24c-4.62,0-8.67-.74-12.18-2.21-3.5-1.47-6.25-3.67-8.22-6.6-1.98-2.93-2.96-6.57-2.96-10.92v-2.55h13.46v2.29c0,2.97.84,5.25,2.51,6.84,1.67,1.59,4.15,2.38,7.44,2.38s5.87-.53,7.66-1.58c1.79-1.05,2.68-2.79,2.68-5.21,0-1.7-.67-3.2-2.01-4.5-1.34-1.3-3.16-2.46-5.45-3.48-2.29-1.02-4.91-1.98-7.85-2.88-3.2-1.01-6.17-2.34-8.91-3.98-2.74-1.64-4.94-3.73-6.6-6.27-1.66-2.54-2.49-5.67-2.49-9.39s1-6.94,2.99-9.58c1.99-2.64,4.7-4.66,8.13-6.06,3.43-1.4,7.31-2.1,11.64-2.1s8.53.7,12.01,2.1c3.48,1.4,6.2,3.49,8.18,6.27s2.96,6.25,2.96,10.41v2.6h-13.41v-1.99c0-2.8-.77-4.95-2.32-6.45s-3.96-2.25-7.25-2.25-5.63.58-7.38,1.73c-1.75,1.15-2.62,2.93-2.62,5.32,0,1.73.63,3.2,1.88,4.41s2.98,2.29,5.17,3.25,4.69,1.9,7.49,2.86c3.81,1.33,7.13,2.79,9.97,4.39,2.84,1.6,5.04,3.61,6.6,6.01s2.34,5.47,2.34,9.19-.98,7.05-2.94,9.74c-1.96,2.68-4.71,4.72-8.24,6.12-3.53,1.4-7.62,2.1-12.27,2.1Z"/>
        <path class="cls-1" d="m357.76,139.25v-8.87h30.46l-1.3,2.25v-1.3c0-1.64-.39-3.22-1.17-4.74-.78-1.51-1.98-2.75-3.61-3.72-1.63-.97-3.71-1.45-6.25-1.45s-4.72.54-6.55,1.62c-1.83,1.08-3.23,2.63-4.2,4.65-.97,2.02-1.45,4.46-1.45,7.31s.47,5.46,1.41,7.55,2.34,3.7,4.2,4.82,4.17,1.69,6.94,1.69c1.79,0,3.33-.17,4.63-.5,1.3-.33,2.36-.76,3.18-1.28s1.45-1.1,1.88-1.73c.43-.63.69-1.25.78-1.86h13.24c-.17,1.93-.84,3.83-1.99,5.69-1.15,1.86-2.75,3.53-4.8,5.02-2.05,1.49-4.54,2.66-7.46,3.53-2.93.87-6.27,1.3-10.02,1.3-5.08,0-9.5-1.02-13.28-3.05-3.78-2.03-6.71-4.85-8.78-8.44-2.08-3.59-3.12-7.74-3.12-12.44s1.06-8.93,3.18-12.53c2.12-3.59,5.08-6.39,8.87-8.39s8.18-3.01,13.17-3.01,9.52,1.02,13.24,3.05c3.72,2.03,6.59,4.88,8.61,8.52,2.02,3.65,3.03,7.9,3.03,12.74,0,.72-.01,1.41-.04,2.08-.03.66-.07,1.15-.13,1.47h-42.66Z"/>
        <path class="cls-1" d="m432.09,159.24c-5.05,0-9.47-1.02-13.28-3.05s-6.76-4.87-8.85-8.5c-2.09-3.63-3.14-7.83-3.14-12.59s1.04-8.99,3.14-12.53c2.09-3.53,5.04-6.28,8.85-8.24,3.81-1.96,8.23-2.94,13.28-2.94,3.78,0,7.12.55,10.04,1.67s5.35,2.57,7.31,4.39c1.96,1.82,3.45,3.81,4.46,5.97,1.01,2.16,1.51,4.31,1.51,6.45v.35h-13.28c0-.17,0-.34-.02-.5-.01-.16-.05-.33-.11-.5-.23-1.21-.74-2.35-1.51-3.42-.78-1.07-1.87-1.94-3.27-2.62-1.4-.68-3.14-1.02-5.21-1.02-2.22,0-4.2.49-5.95,1.47-1.75.98-3.12,2.43-4.13,4.35-1.01,1.92-1.51,4.29-1.51,7.12s.5,5.16,1.51,7.16c1.01,2,2.39,3.54,4.13,4.61,1.74,1.07,3.73,1.6,5.95,1.6s4.14-.35,5.58-1.06,2.52-1.66,3.25-2.86c.72-1.2,1.15-2.52,1.3-3.96h13.28c0,2.13-.5,4.3-1.49,6.51-1,2.21-2.47,4.22-4.41,6.04-1.95,1.82-4.38,3.29-7.29,4.41-2.91,1.12-6.29,1.69-10.12,1.69Z"/>
        <path class="cls-1" d="m463.76,158.2v-45.95h13.46v15.83l-2.77-1.73c.32-2.16.89-4.15,1.73-5.97.84-1.82,1.92-3.4,3.25-4.74,1.33-1.34,2.91-2.39,4.74-3.14,1.83-.75,3.93-1.12,6.29-1.12,1.85,0,3.3.14,4.35.41,1.05.28,1.71.48,1.97.63l-2.21,12.03c-.26-.14-.84-.38-1.73-.69-.89-.32-2.05-.48-3.46-.48-2.31,0-4.24.39-5.8,1.17-1.56.78-2.81,1.81-3.74,3.09s-1.61,2.7-2.01,4.26c-.4,1.56-.61,3.13-.61,4.72v21.68h-13.46Z"/>
        <path class="cls-1" d="m507.85,139.25v-8.87h30.46l-1.3,2.25v-1.3c0-1.64-.39-3.22-1.17-4.74-.78-1.51-1.98-2.75-3.61-3.72-1.63-.97-3.71-1.45-6.25-1.45s-4.72.54-6.55,1.62c-1.83,1.08-3.23,2.63-4.2,4.65-.97,2.02-1.45,4.46-1.45,7.31s.47,5.46,1.41,7.55,2.34,3.7,4.2,4.82,4.17,1.69,6.94,1.69c1.79,0,3.33-.17,4.63-.5,1.3-.33,2.36-.76,3.18-1.28s1.45-1.1,1.88-1.73c.43-.63.69-1.25.78-1.86h13.24c-.17,1.93-.84,3.83-1.99,5.69-1.15,1.86-2.75,3.53-4.8,5.02-2.05,1.49-4.54,2.66-7.46,3.53-2.93.87-6.27,1.3-10.02,1.3-5.08,0-9.5-1.02-13.28-3.05-3.78-2.03-6.71-4.85-8.78-8.44-2.08-3.59-3.12-7.74-3.12-12.44s1.06-8.93,3.18-12.53c2.12-3.59,5.08-6.39,8.87-8.39s8.18-3.01,13.17-3.01,9.52,1.02,13.24,3.05c3.72,2.03,6.59,4.88,8.61,8.52,2.02,3.65,3.03,7.9,3.03,12.74,0,.72-.01,1.41-.04,2.08-.03.66-.07,1.15-.13,1.47h-42.66Z"/>
        <path class="cls-1" d="m581.23,159.15c-1.76,0-3.57-.15-5.43-.45-1.86-.3-3.59-.91-5.19-1.82-1.6-.91-2.89-2.24-3.87-4-.98-1.76-1.47-4.08-1.47-6.97v-23.28h-10.6v-10.38h2.99c1.73,0,3.11-.07,4.13-.22,1.02-.14,1.79-.51,2.29-1.1.5-.59.83-1.52.97-2.79.14-1.27.22-3.01.22-5.23v-5.8h13.46v15.14h13.37v10.38h-13.37v19.47c0,1.99.24,3.61.71,4.85.48,1.24,1.67,1.86,3.57,1.86.95,0,1.85-.09,2.7-.26s1.49-.35,1.93-.52v10.08c-.61.26-1.46.5-2.55.71-1.1.22-2.38.33-3.85.33Z"/>
        <path class="cls-1" d="m618.18,159.24c-2.74,0-5.38-.32-7.92-.95-2.54-.63-4.81-1.57-6.81-2.81s-3.59-2.79-4.76-4.65c-1.17-1.86-1.75-4.03-1.75-6.51v-.78h13.33v.61c0,1.67.74,2.9,2.23,3.68,1.49.78,3.5,1.17,6.04,1.17,1.33,0,2.6-.14,3.83-.41,1.23-.27,2.23-.72,3.03-1.34.79-.62,1.19-1.41,1.19-2.36,0-1.53-.84-2.61-2.53-3.25-1.69-.63-4.39-1.27-8.11-1.9-2.11-.35-4.24-.84-6.4-1.47-2.16-.63-4.15-1.48-5.97-2.53-1.82-1.05-3.27-2.39-4.37-4.02-1.1-1.63-1.64-3.61-1.64-5.95,0-3.12.94-5.74,2.83-7.88,1.89-2.13,4.41-3.75,7.55-4.85,3.14-1.1,6.6-1.64,10.38-1.64s6.97.6,10.08,1.79c3.12,1.2,5.64,2.91,7.57,5.15,1.93,2.24,2.9,4.93,2.9,8.07v.61h-13.2v-.52c0-1.15-.37-2.09-1.1-2.81-.74-.72-1.67-1.26-2.79-1.62s-2.29-.54-3.5-.54c-1.1,0-2.23.12-3.4.37-1.17.25-2.16.65-2.96,1.21-.81.56-1.21,1.35-1.21,2.36s.43,1.78,1.3,2.4,2.08,1.12,3.63,1.51c1.56.39,3.36.76,5.41,1.1,1.93.32,3.97.76,6.12,1.32s4.17,1.36,6.06,2.38c1.89,1.02,3.42,2.37,4.59,4.02,1.17,1.66,1.75,3.76,1.75,6.29s-.61,4.88-1.82,6.75c-1.21,1.88-2.85,3.4-4.91,4.56s-4.36,2.03-6.88,2.6c-2.52.56-5.11.84-7.77.84Z"/>
      </g>
      <g>
        <path class="cls-1" d="m265.23,46.36L138.58.4c-1.45-.53-3.04-.53-4.49-.02L4.43,46.34c-5.81,2.06-5.94,10.24-.19,12.48l129.65,50.55c1.57.61,3.32.61,4.89-.02l126.65-50.55c5.68-2.27,5.55-10.35-.2-12.44Zm-124.47,29.57v7.73h-11.54v-7.47c-10.66-.08-21.64-1.43-28.12-3.28l4.46-5.03c6.59,1.78,16.2,3.24,26.39,3.24,13.14,0,21.92-3.06,21.92-7.29s-7.12-6.62-20.77-8.86c-18.75-2.99-30.45-6.46-30.45-12.94s10.85-10.87,27.78-12v-7.48h11.54v7.25c10.96.13,18.52,1.35,23.78,2.6l-4.46,4.92c-3.89-.89-11.56-2.58-23.24-2.58-14.14,0-19.5,3.44-19.5,6.46,0,3.82,6.77,5.78,22.78,8.49,18.92,3.14,28.52,6.96,28.52,13.58,0,5.94-10.11,11.42-29.1,12.67Z"/>
        <g>
          <path class="cls-1" d="m75.7,93.2l54.47,21.23c1.65.64,2.73,2.23,2.73,3.99v41.54c0,3.05-3.1,5.12-5.92,3.96l-54.47-22.41c-1.61-.66-2.66-2.23-2.66-3.96v-40.36c0-3.02,3.03-5.09,5.84-3.99Z"/>
          <path class="cls-1" d="m195.92,93.2l-54.47,21.23c-1.65.64-2.73,2.23-2.73,3.99v41.54c0,3.05,3.1,5.12,5.92,3.96l54.47-22.41c1.61-.66,2.66-2.23,2.66-3.96v-40.36c0-3.02-3.03-5.09-5.84-3.99Z"/>
        </g>
        <rect class="cls-1" x="29.36" y="62.72" width="4" height="76.7"/>
        <polygon class="cls-1" points="21.78 149.68 40.95 149.68 31.44 133.54 21.78 149.68"/>
      </g>
    </g>
  </g>
</svg>