<svg width="98" height="98"  viewBox="0 0 128 128" fill="none" xmlns="http://www.w3.org/2000/svg">
<path d="M39.528 112.92H35.432L38.888 112.536L39.528 112.92ZM83.688 15.64L90.472 58.264L92.264 64.024L94.312 68.12L94.184 70.296L95.976 71.832L93.544 74.008L91.624 80.792L93.544 86.808L92.392 94.232L94.056 96.28L94.184 98.2L48.488 97.944L47.848 100.504L51.816 104.6L51.176 107.032L51.816 109.208L49.128 111.64L48.232 111.384V111.896H48.872L47.08 112.92L40.296 113.56L45.16 112.536L44.008 109.976H42.472L42.088 108.312L42.472 106.136L40.808 103.192L38.504 111.64L35.432 109.976L33.512 110.104L33 79.128L41.192 17.176L39.656 15L83.688 15.64Z" fill="#BFBFBF"/>
</svg>
