<svg width="98" height="98"  viewBox="0 0 128 128" fill="none" xmlns="http://www.w3.org/2000/svg">
<g clip-path="url(#clip0_366_44163)">
<path d="M0 99.9812V99.7976V99.7059V99.9812ZM0.274967 99.7976V99.7059L0.549936 99.5223L0.824905 99.7059L0.274967 99.7976ZM1.55815 98.2376V98.1459V97.9623L1.74147 98.1459L1.55815 98.2376ZM8.06574 99.9812L8.34071 100.715H7.79077V99.9812H8.34071H8.06574ZM8.70733 100.256H8.89064V100.715H8.61567L8.70733 100.256ZM9.07395 100.256V100.715L8.70733 100.256H9.07395ZM4.12453 98.6965L4.76612 98.88L3.57459 99.7059L3.20796 98.2376L4.12453 98.6965ZM5.86599 99.7976L4.12453 99.7059V99.5223L5.86599 99.0635V99.7976ZM9.80721 100.256H10.0822H9.53224L9.80721 99.9812V100.256ZM7.42415 99.5223V100.715H6.23262L7.05752 99.1553L7.42415 99.5223ZM9.34892 99.7976L9.53224 99.9812H9.34892V99.7976ZM9.34892 99.7059L9.07395 99.7976L8.89064 99.5223L9.07395 99.1553L9.34892 99.7059ZM15.5815 101.174L16.1315 101.725L17.1397 102L15.5815 101.725L14.5733 100.991L15.5815 101.174ZM18.9728 101.449H18.6978H18.3312L18.9728 101.174V101.449ZM14.8483 99.7059L14.115 100.991H12.5569L10.9071 100.256L14.8483 99.7059ZM22.3641 101.725L21.9058 101.449L22.1808 101.358L22.3641 101.449V101.725ZM23.9222 101.449H23.2807L23.9222 101.174V101.449ZM25.3887 101.358H25.1138L25.3887 100.991L25.847 101.174L25.3887 101.358ZM26.4886 100.715V101.358L25.847 100.991L26.4886 100.715ZM26.5803 100.715V100.256H26.7636L26.5803 100.715ZM31.713 98.88L31.988 99.7976L29.055 101.358L28.1384 101.449L31.713 98.88ZM36.7541 98.6965L36.5708 99.0635L36.2958 99.1553V98.88L36.7541 98.6965ZM36.7541 98.2376V98.1459L37.0291 98.2376H36.7541ZM33.9128 99.7976L35.1959 99.0635L34.5544 97.9623L36.5708 98.1459L34.7377 99.9812H31.988L33.9128 99.7976ZM39.2288 98.1459L38.9539 98.2376L38.5872 98.1459H38.8622H39.2288ZM40.1454 98.1459L39.8704 98.2376L39.2288 98.1459L39.5038 97.9623L40.1454 98.1459ZM37.7623 97.5035L38.2206 97.9623H37.3957V97.32L37.7623 97.5035ZM38.5872 97.32L38.8622 97.7788L38.4039 97.9623L38.2206 97.32H38.5872ZM46.7446 97.9623H46.378V97.7788L46.7446 97.9623ZM46.0114 97.5035V97.9623L45.7364 97.32L46.0114 97.5035ZM54.1688 96.8612H53.9855V96.6777H54.1688V96.8612ZM121.628 88.2353H121.994L122.269 88.8776L121.628 88.6023V88.2353ZM54.8104 96.0353L55.0853 96.4024L54.8104 96.5859V96.0353ZM47.5695 95.6682L47.0196 95.4847L47.5695 95.2094V95.4847V95.6682ZM125.202 86.7671V87.2259H124.652L125.202 86.6753V86.7671ZM43.72 94.5671H44.3616L44.5449 95.6682L45.1865 95.9435L45.2781 96.4024L40.512 96.6777L41.6119 95.0259L43.72 94.5671ZM54.8104 95.6682V96.0353H54.4437V95.6682H54.8104ZM48.7611 94.8423L49.036 95.0259L48.4861 95.2094L48.3028 94.8423H48.7611ZM121.078 87.2259L121.628 87.6847L121.169 87.8682H121.078V87.2259ZM49.8609 94.5671V94.8423L49.4943 94.5671H49.8609ZM54.4437 95.2094L53.9855 95.6682L54.4437 94.8423V95.2094ZM120.436 87.4094V87.8682L121.994 89.3365L120.436 88.6023V87.4094ZM49.2193 94.5671H49.036L49.2193 94.4753V94.5671ZM124.652 86.1247L124.102 87.0423L123.919 85.7576L124.286 85.8494L124.652 86.1247ZM53.5272 95.0259L53.8021 95.2094L52.519 96.4024L52.6106 95.2094L53.5272 95.0259ZM119.611 87.0423L119.978 87.4094L119.52 87.6847L119.336 87.2259L119.611 87.0423ZM53.0689 94.5671H52.9772V94.4753H53.0689V94.5671ZM52.3357 94.2V94.8423L51.8774 94.4753L52.1523 94.2H52.3357ZM51.5107 94.4753L51.8774 95.0259L51.0525 95.2094L51.5107 93.9247V94.4753ZM122.728 85.3906L123.644 85.7576V86.4H123.461L122.728 85.3906ZM118.878 86.7671H119.336L119.153 87.6847L118.603 87.4094L118.878 86.7671ZM52.6106 93.5576L52.9772 93.9247V94.2L52.3357 93.9247L52.6106 93.5576ZM119.153 86.6753H118.878V86.4H119.336L119.153 86.6753ZM119.52 86.4L119.153 86.1247H119.52V86.4ZM118.42 86.4L118.603 86.6753L118.42 86.7671V86.4ZM55.3603 92.7318L55.0853 92.4565H55.3603V92.7318ZM118.42 85.1153H119.153L118.603 85.4823L118.42 85.1153ZM56.5518 91.9977L56.8268 92.4565H56.0935V91.9977H56.5518ZM119.153 84.9318V84.6565V85.1153H118.878L119.153 84.9318ZM116.495 85.1153H116.862L116.77 85.4823L116.312 85.3906L116.495 85.1153ZM64.6176 92.9153H63.8843L64.3426 92.4565H64.6176V92.9153ZM117.686 85.1153H117.411V84.9318L117.686 85.1153ZM123.644 82.6376L124.927 83.5553V85.7576L123.919 84.1976V85.4823L122.728 85.1153L123.644 82.6376ZM118.42 83.4635L118.603 84.1976L117.778 84.9318V83.9224L118.42 83.4635ZM120.253 82.6376H121.169L121.628 83.4635L119.978 83.0965L120.253 82.1788V82.6376ZM117.686 82.7294L122.269 85.3906L121.078 85.1153L120.894 85.8494L122.728 86.1247L123.644 88.6941L121.169 86.7671L119.978 87.0423L120.07 85.3906L119.153 85.7576L119.336 84.6565L118.42 83.4635H117.778L117.686 82.7294ZM58.8432 90.2541H58.6599L58.8432 90.1623V90.2541ZM119.611 81.9035V82.6376L118.878 82.4541L119.153 82.1788L119.611 81.9035ZM120.894 81.9035L121.811 82.3624L121.628 82.6376L120.253 81.5365L120.894 81.9035ZM68.5588 89.7035V89.9788L68.1005 89.7035L68.1922 89.52L68.5588 89.7035ZM60.8597 89.3365L61.1346 89.52H60.2181L60.4014 89.3365H60.8597ZM67.2756 89.3365V89.52V89.7035L66.5423 90.2541L67.2756 89.3365ZM68.1005 89.3365L67.9172 89.7035H67.4589L67.7339 89.52L68.1005 89.3365ZM30.4298 84.9318L31.0714 85.1153H30.5215L30.4298 84.9318ZM118.603 80.3435L119.611 81.0776L119.336 81.72H118.878L118.603 80.3435ZM116.128 81.0776L116.862 81.9035L116.77 84.9318L115.303 81.5365L116.128 81.0776ZM116.128 79.8847H118.42L118.603 81.2612L117.411 80.4353L118.42 82.1788L117.137 82.4541L116.128 79.8847ZM70.3919 86.7671L71.0335 87.0423L70.0253 87.6847L69.7503 87.2259L70.3919 86.7671ZM30.1549 82.1788L29.6049 82.4541L29.2383 82.1788L30.1549 81.9035V82.1788ZM111.82 80.3435L112.187 81.5365L111.546 81.72L111.087 80.3435H111.82ZM68.6504 85.4823V85.1153V85.3906V85.4823ZM112.187 79.6094L113.379 79.8847L114.662 82.1788L115.395 84.3812L114.204 82.3624L113.012 82.1788L112.187 79.6094ZM71.8584 83.28L72.1334 83.4635V83.5553L71.6751 83.4635L71.8584 83.28ZM70.1169 83.5553V83.9224L69.3837 83.4635L69.567 83.28L70.1169 83.5553ZM71.3085 83.4635H71.0335V83.28H71.4001L71.3085 83.4635ZM70.6669 83.4635L72.5916 85.1153L70.9418 85.3906L71.6751 86.1247L70.3919 85.8494L68.1005 88.6941L68.9254 87.0423H67.0923H68.1005L67.7339 88.2353L66.5423 85.8494L67.9172 84.6565L68.1922 84.9318L68.1005 85.1153H68.5588V85.7576L68.9254 86.1247L69.1087 86.4L68.5588 84.1976L69.567 84.9318L70.6669 83.9224L70.0253 83.0965L70.6669 83.4635ZM109.071 77.6824V78.0494V78.6L108.704 77.3153L109.071 77.6824ZM70.1169 82.6376H70.3919L70.6669 83.0965H71.0335L69.7503 82.7294L70.1169 82.6376ZM73.3249 82.3624L73.5082 81.9035V82.1788L73.3249 82.3624ZM110.354 76.3976L110.629 77.3153L112.462 76.5812V77.6824L110.262 77.3153L112.645 77.9576L113.287 79.2424L110.629 78.3247L111.546 79.6094L111.087 79.8847L109.346 78.6V77.6824L110.262 78.0494L108.979 76.8565L109.071 76.5812L109.621 77.3153L110.354 76.3976ZM71.3085 81.9035H71.0335L70.9418 81.72H71.0335L71.3085 81.9035ZM113.287 75.2965L113.562 75.6635L112.645 75.48L113.012 75.2965H113.287ZM112.187 75.2965L113.837 75.6635L115.67 77.6824L113.562 76.1223L115.67 78.8753L114.204 80.8023L114.479 78.9671L112.187 75.2965ZM71.3085 81.9035V82.1788V81.72L71.0335 81.5365L71.4001 81.0776L73.2332 81.72L71.3085 83.28L70.1169 82.4541L71.3085 81.9035ZM71.6751 81.0776L71.4001 80.8023L71.8584 80.3435V80.4353L71.6751 81.0776ZM53.9855 79.6094L53.8021 79.4259H53.9855V79.6094ZM52.6106 79.4259L52.1523 79.6094L53.0689 78.8753L52.6106 79.4259ZM72.1334 78.9671H72.4083L71.8584 79.2424L72.1334 78.8753V78.9671ZM75.708 77.1318H75.5246L75.708 76.5812L75.9829 76.8565L75.708 77.1318ZM69.7503 77.3153H69.3837V77.1318L69.7503 76.8565V77.3153ZM76.7162 76.3976V76.5812H76.4412V76.3976H76.7162ZM87.7149 71.6259H87.2566L87.7149 71.0753V71.6259ZM42.1618 70.1576L42.9867 72.0847L41.6119 73.0023L38.9539 70.2494L42.1618 70.1576ZM84.5069 71.4423L84.9652 71.6259L85.3318 71.4423V71.6259L84.5069 72.2682V71.4423ZM72.5916 72.6353H72.4083L72.8666 71.8094L73.2332 72.0847L72.5916 72.6353ZM28.9633 67.4965L28.1384 67.0376L27.6801 65.9365L28.9633 67.4965ZM85.3318 71.0753L84.9652 71.4423L86.2484 70.2494V70.5247L85.3318 71.0753ZM27.4968 65.4776H27.6801V65.6612L27.4968 65.4776ZM81.299 70.2494L81.4823 70.5247L81.299 70.8V70.2494ZM81.024 70.8L80.6574 70.5247V70.2494H81.024V70.8ZM83.0405 69.5153V69.7906L82.6738 69.5153H82.8571H83.0405ZM81.1157 69.5153L81.299 69.8824L81.1157 70.1576L81.024 69.8824L81.1157 69.5153ZM36.1125 55.8424V56.0259L35.4709 55.2L35.9292 55.5671L36.1125 55.8424ZM51.8774 57.0353V57.4941L51.2358 57.4024L51.5107 57.0353H51.8774ZM35.2876 54.1906L36.5708 53.9153L39.2288 56.6682L37.3957 57.4941L37.0291 56.6682L36.1125 56.2094L36.2958 55.8424L35.2876 54.5576H35.1043L34.2794 55.2L33.6378 54.5576L34.2794 52.8141L35.2876 54.1906ZM43.72 46.1153H43.2617H43.9033H43.72ZM44.5449 45.9318L45.2781 45.3812L45.1865 45.6565L44.5449 45.9318ZM45.5531 45.1976L46.1947 44.5553H46.378L45.5531 45.1976ZM48.0278 44.0965L47.9362 44.28H47.6612L48.0278 44.0965ZM48.3028 44.0965L49.4026 43.6376L49.2193 43.7294L48.3028 44.0965ZM74.1498 75.7553L73.3249 75.6635L73.2332 75.2965L74.0582 70.8L75.9829 69.5153L79.0992 69.8824L76.8995 69.0565L78.4576 67.1294L76.8995 68.5976L75.5246 68.3223L71.6751 73.0023L71.4001 73.2776L70.9418 73.0023H70.3919L71.3085 74.6541L70.0253 75.7553L69.567 75.2965L67.7339 78.0494L70.0253 79.4259L67.4589 82.7294L62.2345 85.8494V87.6847L57.6517 89.7035L57.0101 90.4376L58.11 90.8965L57.2851 91.7224V90.8965H57.0101L56.8268 91.8141L54.5354 91.9977L54.1688 93.1906L53.8021 91.9977L50.1359 93.9247L50.6858 93.1906L49.2193 92.7318L48.3028 95.0259H47.0196L46.378 93.5576V95.2094L45.1865 94.4753L45.2781 95.2094L44.5449 95.4847L44.7282 94.4753L49.036 91.3553L50.7775 91.08L51.5107 92.4565V91.8141L52.6106 92.4565V90.1623L56.5518 87.6847L57.1018 88.2353L58.11 85.8494L60.2181 85.1153L60.1264 82.4541L61.1346 82.3624L60.1264 81.5365L61.5929 79.6094L61.9595 77.9576L58.6599 80.0682L58.11 78.6L58.6599 78.3247L59.0265 78.9671L58.8432 78.3247L58.11 77.6824L57.1018 81.0776L53.9855 77.6824L50.6858 79.6094L49.4943 79.2424L50.9608 78.6L51.2358 77.3153H50.6858L50.3192 76.3976L51.0525 75.6635L49.8609 71.8094L51.2358 70.1576L49.4026 71.8094L49.4943 73.0941L47.2946 73.4612L43.72 69.7906L45.1865 68.3223L45.5531 68.7812L46.1947 69.3318L46.0114 69.8824L48.3028 69.5153L47.2946 69.0565L47.6612 68.4141L47.0196 68.7812L45.1865 68.3223H44.7282L45.5531 67.4965L44.3616 66.8541L44.7282 66.7623L44.8198 66.12H45.1865L45.2781 65.9365H45.5531L46.0114 65.4776L44.8198 66.12L43.9033 67.1294L43.17 64.0094H44.3616L45.7364 61.2565L46.7446 61.7153L46.378 59.88L47.9362 59.2376V58.5035L49.036 58.7788L48.7611 59.6965L52.1523 57.4941L54.1688 57.8612L55.3603 56.4847L53.9855 53.9153L55.452 52.7224L54.8104 51.4376L51.5107 53.9153L51.0525 52.3553L50.9608 53.4565L45.2781 51.8965L45.1865 50.3365L44.5449 49.2353V48.8682V48.6847L46.0114 48.8682L43.9033 47.7671L42.5284 46.3906H43.9033L46.1947 44.9224L47.9362 45.1976L47.5695 44.28L50.3192 43.6376H51.2358V43.7294L50.1359 45.3812L50.9608 46.1153L55.7269 46.3906L55.452 45.3812L54.1688 45.6565L53.8021 42.5365L54.8104 44.9224L57.2851 45.3812V44.28L55.0853 44.4635L55.3603 42.72L53.8021 42.5365L53.9855 41.8024V41.4353H51.5107L51.0525 39.0494L47.5695 35.1035L48.4861 33.0847L52.9772 32.8094L56.0935 27.8541L55.8186 28.68L59.3015 27.12L58.8432 28.1294L59.4848 28.9553L60.4014 27.5788L59.0265 26.9365L62.6011 26.2941L64.8009 24L65.9008 25.0094L65.0759 26.2024L65.4425 26.6612L66.8173 25.0094L68.1005 26.6612L70.9418 26.2941L71.3085 27.5788L70.3919 27.7624L72.5916 28.1294L75.0664 27.5788L82.1239 29.3224L84.9652 28.1294L88.4482 29.5977L96.6056 69.8824L100.547 69.0565V70.1576L105.588 74.6541L106.871 73.0941L107.146 73.0023L107.513 70.8L109.621 69.7906L115.395 73.92L121.169 80.4353L125.936 81.2612L127.31 85.8494L125.936 87.2259L126.21 84.6565L125.477 85.8494L125.936 85.1153L123.919 81.9035L121.994 85.1153L121.628 82.4541L122.636 82.1788V81.9035L119.611 80.8023L118.42 79.2424L116.495 79.4259V78.9671L117.137 78.8753L117.411 78.3247V78.0494L115.67 77.3153L115.853 77.1318L117.137 77.6824L117.411 77.3153L115.67 76.2141V76.8565L114.937 75.48L114.204 75.7553V73.7365L113.837 75.48L113.012 74.9294H112.279L109.621 70.8L111.82 75.7553L110.629 75.2965L109.621 75.7553L109.346 73.4612L108.338 73.0941L108.704 74.5624L106.413 73.4612V74.6541L107.604 74.1035L109.346 75.6635L108.338 77.1318L99.8135 73.0023L100.272 70.8L100.913 72.5435L101.555 71.4423L100.088 70.5247L98.4387 72.5435L96.1473 72.2682L96.2389 71.8094L95.964 71.0753L95.5057 71.8094L89.9147 72.5435L88.1732 71.8094L88.4482 69.5153L87.2566 71.6259L85.9734 71.0753L86.2484 70.8L86.5234 70.1576L84.9652 70.2494L85.3318 69.7906L84.232 70.1576L85.1485 69.5153H83.7737L84.6903 68.4141L82.6738 69.5153L81.9406 68.5976L81.4823 69.8824V67.9553L79.6492 70.1576L81.024 71.0753L80.3824 71.4423L79.9241 71.8094H81.4823L80.5657 72.5435V73.92L78.8243 74.6541L78.4576 73.2776L78.1827 75.2965L77.8161 74.1035V75.48L77.1745 74.9294V75.6635L75.708 76.1223L75.0664 77.6824L73.5082 77.9576L73.2332 76.8565L74.3331 76.5812L74.883 75.2965L74.1498 75.7553Z" fill="#BFBFBF"/>
</g>
<defs>
<clipPath id="clip0_366_44163">
<rect width="98" height="98"  fill="#BFBFBF"/>
</clipPath>
</defs>
</svg>
