<svg width="98" height="98" viewBox="0 0 128 128" fill="none" xmlns="http://www.w3.org/2000/svg">
<path d="M103.64 31.744L104.536 111.232L75.736 111.104L23 90.368L24.664 86.656H27.224L28.376 84.48L27.992 81.92L25.432 80.768L25.56 78.848L25.048 76.672V75.392L26.328 74.752L27.992 72.96L28.76 70.272L28.376 66.176L30.296 63.616L34.136 61.056L30.68 57.984L30.168 55.04L27.736 50.944L27.352 46.72L28.376 45.44L27.224 40.32L27.736 34.304L26.712 31.872L27.224 30.336L29.4 29.696L31.96 30.336L33.624 32.128L35.16 31.872L36.184 29.184L36.952 16L103.64 16.896V31.744Z" fill="#BFBFBF"/>
</svg>
