<svg width="98" height="98" viewBox="0 0 128 128" fill="none" xmlns="http://www.w3.org/2000/svg">
<path d="M72.552 114.68L71.528 114.552L70.248 111.864H70.632L72.552 114.68ZM61.288 109.688L62.056 109.816V110.2L60.776 109.688H61.288ZM72.552 108.024L72.808 109.048H71.784L70.12 107.512L72.552 108.024ZM56.168 101.496L56.424 102.264L55.144 103.032L54.248 101.496H56.168ZM53.608 101.24V101.496L52.328 101.24L52.84 100.856L53.608 101.24ZM58.216 100.984L60.648 100.856L60.904 101.24L58.472 102.008L57.064 100.856L58.216 100.984ZM54.76 23.288L55.144 44.92L106.216 87.672L109.416 93.304L111.848 94.84L108.264 99.192L108.52 103.928L106.6 105.464L107.752 109.304L109.672 110.2L109.544 112.888L84.712 117.24L83.688 115.704L84.712 115.96L84.456 115.192L83.304 115.704L82.536 111.096L80.232 108.024L74.216 103.928L71.784 104.056L70.632 100.984L67.816 101.24L64.744 100.216L63.08 98.296L60.008 96.76L51.688 96.248L50.408 95.48V88.568L47.976 87.928V85.624L44.392 82.936L42.216 79.224L38.888 75.896L38.12 72.312L39.144 72.056L39.784 69.752L38.504 68.344H36.456L34.792 66.424L32.872 61.944V59L34.024 58.616L34.152 60.92L36.456 62.584H37.352L35.944 59.512L34.792 58.616L34.024 56.696L34.28 56.184L35.56 56.056L36.2 56.184H40.424L40.808 55.032L42.728 56.184L41.192 55.032L39.784 56.056L40.424 54.904L38.376 56.056L37.352 54.904L36.072 56.056L34.024 54.776L32.872 54.904L33.512 57.72L32.872 58.36L29.16 55.544L28.52 56.568L28.776 53.88L30.056 55.032L27.624 51.064L22.376 45.56V43.64L21.48 40.568L21.992 36.984L20.456 33.656L17.128 30.84L17 28.664L17.896 25.592L19.432 24.056L18.664 24.952L20.2 17.272L19.304 14.456L18.664 13.304L18.792 11H54.632L54.76 23.288Z" fill="#BFBFBF"/>
</svg>
