<svg width="98" height="98" viewBox="0 0 128 128" fill="none" xmlns="http://www.w3.org/2000/svg">
<path d="M50.6905 23.3091L61.6729 23.9636L61.9991 25.9273L64.5 25.7091L64.6087 23.9636L122.13 24.1818L123 64.7636L122.456 73.4909L121.043 75.3455L120.173 80.8L118.324 81.4545L119.194 80.1455L117.672 79.3818H112.888L108.538 81.4545L105.711 78.6182L104.189 82L99.1868 80.8L98.6431 82.9818L97.0121 82.1091L93.2063 84.4L89.7268 82.2182V79.2727L86.7909 77.8545L89.2918 81.2364L88.5307 82.9818L89.618 83.7455L88.3132 84.7273L83.2026 83.9636L79.9405 86.3636L79.1794 85.4909L77.9833 85.9273L74.1775 84.4L70.698 85.2727L68.9582 86.3636L65.9136 85.4909L61.9991 86.2545H57.3234L56.1273 84.7273L55.8011 82.3273L49.9294 89.3091L47.4284 89.8545L43.079 93.2364L41.3392 94L40.0344 92.4727L37.316 94.3273L36.5548 93.8909L34.5976 96.2909L32.5316 95.6364L28.9433 97.4909L21.223 102.4L19.3745 102.291L18.2872 104.473L17.8522 103.818L14.3727 105.673L13.2853 104.582L10.5669 106L6 98.3636L20.7881 89.6364L17.0911 83.3091L21.3318 22L50.6905 23.3091Z" fill="#BFBFBF"/>
</svg>
