<svg width="98" height="98" viewBox="0 0 128 128" fill="none" xmlns="http://www.w3.org/2000/svg">
<path d="M63.712 17.304L61.024 19.736L60.256 22.552L57.056 27.16L54.624 28.312L53.856 31.256L56.16 33.56L56.544 36.248L55.136 40.216L60.256 50.072L62.048 50.456L63.712 52.76L65.248 56.856L64.992 63L65.76 69.784L67.168 70.68L69.984 75.8L70.368 80.152L78.304 88.728L83.04 89.112L83.424 90.264L84.064 97.816L83.424 100.504L83.296 97.048L82.528 96.152H79.84L80.736 98.968H79.072L81.888 100.504L80.736 101.4L76.768 102.808L75.872 103.832H77.024L75.872 105.24L80.608 103.832L82.272 105.368L84.192 102.04L84.96 113.56L83.424 113.048L83.04 113.56H47.968L44 23.32L48.608 17.432L54.112 15L60.128 15.128L63.712 17.304Z" fill="#BFBFBF"/>
</svg>
