<svg width="98" height="98" viewBox="0 0 128 128" fill="none" xmlns="http://www.w3.org/2000/svg">
<path d="M86.112 116.192H85.856L86.368 116.064L86.112 116.192ZM91.616 115.68V116.192H90.464L90.72 116.064L91.616 115.68ZM92.896 115.68L91.616 116.192L92.128 115.552L92.896 115.68ZM86.112 115.552L86.368 115.68L85.856 115.552H86.112ZM98.4 114.528H97.76L98.656 114.4L98.4 114.528ZM95.84 114.528L95.456 114.4V114.016H95.84V114.528ZM94.432 114.016L94.816 114.656L93.024 115.68L93.792 114.528L94.688 114.656L94.432 114.016ZM95.328 114.016L94.816 114.528V113.888H95.2L95.328 114.016ZM97.632 114.016L97.248 113.888V113.76V113.888L97.632 114.016ZM101.088 113.888L99.936 113.76L101.6 113.376V113.76L101.088 113.888ZM97.12 114.528L96.992 114.656L96.352 113.248L96.864 113.76L97.12 114.528ZM103.136 113.248L101.6 113.76L103.264 112.352L103.136 113.248ZM104.928 111.712V112.096L104.032 112.224L104.928 111.584V111.712ZM106.208 111.584H106.08L106.208 110.944V111.584ZM107.232 110.432H107.104L107.744 109.92L107.232 110.432ZM101.472 104.544H101.088V104.032H101.6L101.472 104.544ZM100.704 103.776H101.088L100.96 104.032L100.448 103.776H100.704ZM111.328 106.464L108.384 109.92H108L111.328 105.44V104.416L112.992 103.392L111.328 106.464ZM113.376 102.24L113.248 102.496L113.888 101.472L113.76 101.728L113.376 102.24ZM114.144 98.144H113.888L114.016 97.504H114.144V98.144ZM96.992 96.352H95.84V95.84L96.352 95.456L96.992 96.352ZM95.456 95.328V95.968L94.816 95.456L95.2 95.328H95.456ZM92.896 95.2L92.384 95.456L92.128 95.2H92.896ZM94.688 95.328L94.432 95.456V94.816L94.688 95.2V95.328ZM86.368 85.856L87.52 86.24L85.856 85.856L85.216 84.704L86.368 85.856ZM84.704 83.168V83.552L84.576 82.4H84.704V83.168ZM86.88 85.216L86.496 84.832L85.344 82.4L86.368 82.528L86.88 85.216ZM84.576 81.632L84.192 82.272V80.608V80.864L84.576 81.632ZM79.84 72.16V72.288L78.56 70.624H78.944L79.84 72.16ZM79.84 68.832H79.584H79.84ZM113.888 74.464L112.352 70.752L110.048 63.968L111.328 66.272L113.888 74.464ZM107.232 59.232L107.104 58.208L107.232 58.848V59.232ZM107.232 52.96L107.104 55.136V58.208L105.696 53.6L107.104 52.192L107.232 52.96ZM78.56 49.888H78.944V50.144H78.56V49.888ZM78.56 49.632V49.248L78.944 49.632H78.56ZM73.952 43.616H73.568V43.488L73.824 43.104L73.952 43.616ZM45.792 34.272L45.28 35.04L44.256 34.272H45.152H45.792ZM47.456 35.296L46.56 35.68L45.792 35.168H47.072L51.424 32.992L47.456 35.296ZM52.448 32.864L51.68 32.992L53.088 32.224L52.448 32.864ZM26.08 22.112L16.608 22.624H15.968L24.288 21.728L26.592 22.112H26.08ZM79.84 68.832L82.912 64.48L82.4 62.816H81.76V64.48H80.736L80.608 62.304L78.56 61.408V62.176H79.072L78.304 62.688L80.224 63.712L78.944 66.272L76.896 64.352L77.92 66.016V66.784L76.256 63.456L78.944 54.624L79.584 50.4L78.56 49.12L79.584 49.248V47.584L78.432 46.176L77.536 43.104H73.952L71.52 39.136L69.088 37.344L69.344 35.296L67.296 34.272L65.504 31.072L60.896 28.256L58.72 28.768L58.208 28L55.392 29.024L56.16 29.92L54.752 29.408L54.624 29.92L56.16 30.56V31.072L55.904 31.328L54.112 31.072L48.864 33.504L49.12 32.736L47.072 33.76L42.464 34.272L42.08 33.504L41.312 31.328L42.464 34.272L42.976 32.224L42.464 31.072L38.112 26.72L41.184 28.896L42.08 28.384L40.8 28.768L40.672 26.72L39.648 27.232L37.472 25.952L40.032 24.8L39.648 24.16L37.856 24.928L36.96 24.16L35.808 24.8L36.96 25.056L37.472 26.72L32.864 24.16L26.72 21.984L29.024 22.496L29.92 21.728L30.56 22.624V21.728L32.352 22.624L31.84 21.088L30.816 20.448L28.256 21.216V20.448L26.976 20.32L25.696 21.984L23.392 21.728L17.504 22.496L21.6 21.088L19.936 19.936L20.576 19.168L19.808 18.272L19.168 20.576L17.632 18.784L18.144 20.448L16.48 22.496L12.896 23.392L15.328 20.576L14.304 19.68L14.944 17.12L12 14.176L12.384 12L47.584 13.536L49.248 18.016L85.216 21.216L86.368 24.416L87.904 24.288V18.272L88.8 17.504L96.352 19.168V21.984L95.328 20.448V21.728L96.864 22.752L98.784 33.504L103.264 45.152L107.232 51.552L108.768 54.368L107.872 55.392V58.208L110.048 63.84L107.232 58.208L107.744 52.192H105.44L105.568 49.888L104.032 49.248L106.08 55.776L110.816 66.784L111.328 69.6L113.376 74.592V74.336L111.712 73.824L114.144 75.488L115.68 80.608L114.144 96.992V94.816L112.352 99.296L111.84 103.392L110.432 105.312L110.816 106.208L110.176 105.312L109.408 105.44L110.048 105.696L110.176 106.464L109.408 106.08L109.28 105.312L106.208 106.72L104.032 106.208L101.088 107.488L99.936 106.464L99.424 105.312L100.448 103.776L101.088 104.544L102.496 105.44H101.984L103.264 105.056L99.936 103.008L99.424 100.192L96.992 95.968L93.152 94.176L91.616 94.688L92.896 93.536L91.616 93.152L90.848 91.232V92L89.952 86.24L89.568 85.344V86.24L87.904 85.856L90.848 82.272L89.312 83.04L88.8 84.704H87.136L86.88 78.944L88.672 77.536L85.856 78.56L84.192 76.896L85.856 80.736L83.68 80.096L80.224 72.928L80.096 71.136L78.432 69.984L77.92 69.216L78.944 69.984L78.56 69.6H79.84L79.072 68.96L80.096 68.832H79.84ZM104.8 74.464L100.96 78.304L103.776 81.376L106.08 82.528L107.232 77.92L106.592 76L104.8 74.464Z" fill="#BFBFBF"/>
</svg>
