<svg width="98" height="98" viewBox="0 0 128 128" fill="none" xmlns="http://www.w3.org/2000/svg">
<path d="M94.832 105.88L94.192 102.808L95.6 101.144L94.832 104.472V105.88ZM31.6 69.528L29.296 64.664L27.888 58.648L22 15L65.392 15.768L61.808 19.48L61.296 21.784L64.24 24.088L66.544 26.392L69.488 27.288L72.176 33.304L74.864 37.656L80.112 41.752L81.648 45.336L86.128 48.152V50.456L87.664 51.48L87.408 52.632L88.816 53.272L89.2 54.936L93.424 57.24L95.6 63.512V66.2L99.312 69.016L100.336 72.344V76.312L105.84 79L104.688 80.024L104.048 79.64L103.408 80.408L104.048 81.176L103.28 81.816L100.72 81.176L101.232 81.688L100.336 82.328L102.384 82.712L101.104 84.632L97.904 84.12L99.312 85.272L98.544 86.296L100.208 85.912L100.336 85.272V85.912L99.952 88.216L98.544 86.68L99.312 87.576L97.008 88.6L98.032 88.984L97.648 89.88L99.952 88.728L98.032 92.056L97.008 91.288L98.032 93.208L94.192 92.568L97.008 93.592L98.032 95L96.24 97.304L95.344 95.768L94.832 95.896V97.816L94.192 97.56L94.96 98.712L95.6 97.56L95.344 99.864L93.808 98.456L94.832 99.864L93.808 100.504L94.832 101.144L93.936 102.168L94.192 103.576L93.424 103.448L93.936 106.392L85.36 104.088L84.208 105.88L84.72 109.08L83.952 113.432L81.648 113.56L80.368 109.464L32.496 105.752L30.192 100.248L29.936 97.816L28.528 95.768L29.936 88.216L28.144 82.328L30.448 75.032L32.88 72.728L31.216 71.32L31.6 69.528Z" fill="#BFBFBF"/>
</svg>
