<svg width="98" height="98" viewBox="0 0 128 128" fill="none" xmlns="http://www.w3.org/2000/svg">
<path d="M105.677 73.6515L114.059 77.2883L123 87.7325L104.094 102L98.9716 98.6429L95.6188 82.5104L100.555 77.1018L99.5304 70.9472L105.677 73.6515ZM84.629 65.2589L82.487 65.4454L81.5556 64.8859L84.0702 63.3006L84.629 65.2589ZM77.2715 60.0368H75.2226L73.453 56.4933L77.9234 57.0528L77.2715 60.0368ZM83.7908 53.6957L85.9329 56.773L91.2415 55.8405L96.457 60.6896L87.423 63.8601L81.09 56.3068L83.7908 53.6957ZM69.8208 49.2196L77.2715 50.6184H81.09L68.6101 52.1104L69.8208 49.2196ZM55.1989 40.6405L58.9242 44.184L59.483 48.1939L53.15 45.4896L50.7285 47.3546L47.0963 41.2L53.895 37.9362L55.1989 40.6405ZM5.37253 35.6982L5 33.7399L8.44594 30.9423L8.16654 32.9939L5.37253 35.6982ZM23.6267 26.0933L21.5777 34.2994L14.1271 30.5693L18.6906 26L23.6267 26.0933Z" fill="#BFBFBF"/>
</svg>
