<svg width="98" height="98" viewBox="0 0 128 128" fill="none" xmlns="http://www.w3.org/2000/svg">
<path d="M95.488 79.304L96.128 115.4L64 115.272L32 113.992L33.28 87.496L35.2 82.632L34.176 81.352L32 80.712V78.024L35.968 72.52L36.224 70.472L40.832 62.28L39.68 59.976L37.248 57.544L35.328 50.632L37.632 13L47.104 13.64L46.336 27.72L49.536 32.328L49.28 34.504L49.92 35.528L49.28 36.168L53.12 38.856L58.112 47.048L59.264 46.536L60.16 47.944L62.72 47.688L61.312 54.728L60.672 55.112L61.696 59.208L60.032 60.616L60.672 61.64L60.032 63.56L62.592 64.968L65.92 61.896L67.456 63.304L68.352 67.528L71.04 71.752V73.928L72.192 75.08L74.112 75.208L75.648 79.816L77.056 81.224L78.208 79.432L81.792 79.944L83.2 78.408L91.392 78.664L90.88 77.256L92.16 75.592L95.488 79.304Z" fill="#BFBFBF"/>
</svg>
