<svg width="98" height="98" viewBox="0 0 128 128" fill="none" xmlns="http://www.w3.org/2000/svg">
<path d="M87.8641 12.64V17.504L92.0881 26.976L92.2161 71.392L90.8081 71.904L91.3201 74.08L90.0401 75.744L92.2161 78.816L92.6001 82.272L90.2961 86.112L90.5521 87.264L88.8881 88.032L87.3521 91.36L86.2001 90.848L85.3041 92.256L86.4561 93.408L85.0481 94.816L86.0721 95.072L84.6641 95.584V98.528H83.8961L84.6641 99.808H83.8961L84.6641 100.96L83.0001 103.392L84.0241 106.08L78.2641 108L78.7761 113.632L77.6241 114.016L70.5841 111.072L67.8961 114.016L68.6641 115.68H68.0241L66.4881 113.76L65.8481 114.016L66.3601 115.168L64.5681 114.144L63.0321 110.176L63.8001 107.872L63.0321 105.312V102.624L57.0161 97.248L54.2001 96.096L50.7441 92.256L50.6161 90.08L53.4321 84.448L54.0721 80.352L49.9761 78.304L47.6721 79.712L46.6481 79.072L45.1121 72.16L36.7921 63.712L35.2561 58.336L35.0001 53.6L35.5121 51.808L37.0481 51.168L36.9201 47.712L40.3761 45.92L43.5761 40.416L43.1921 37.728L41.5281 35.552L42.5521 32.224L47.2881 31.968L50.8721 30.176L54.5841 24.672L55.0961 19.68L51.7681 16.992L51.5121 14.816L48.8241 12L87.8641 12.64Z" fill="#BFBFBF"/>
</svg>
