<svg width="98" height="98" viewBox="0 0 128 128" fill="none" xmlns="http://www.w3.org/2000/svg">
<path d="M97.5841 13.408L97.8401 81.632L96.6881 82.528L97.8401 84.704L96.6881 86.496L98.4801 87.008L98.2241 89.44H95.4081L90.5441 92.128L88.8801 91.104L84.9121 91.488L85.6801 95.712L83.6321 98.144L82.0961 98.4L80.8161 102.24L78.5121 103.392L77.2321 102.88L75.5681 105.696L75.0561 109.664L72.6241 111.456L68.2721 108.64L67.7601 106.208L65.5841 105.312L66.9921 106.336L64.9441 107.616L64.1761 106.464L64.3041 108.512L63.0241 109.152L62.8961 112.096L61.4881 112.608L60.7201 114.272L60.0801 113.632L60.2081 112.864L57.6481 112.224L56.8801 110.304L52.7841 112.224L50.6081 115.68L49.8401 114.4L44.4641 111.584L41.3921 112.224L40.6241 110.816L40.7521 112.864L39.9841 114.4H38.9601V112.608L36.4001 112.864L34.0961 111.968L33.7121 112.608L34.0961 114.4L33.2001 115.552L30.2561 114.784L31.6641 114.272L30.0001 112.608L31.6641 112.224V108.384L33.0721 107.744L31.7921 107.232L33.7121 105.568L32.5601 103.904L33.7121 102.112L34.4801 102.624L35.2481 101.6L35.6321 102.112L37.4241 98.784L37.2961 97.888L39.7281 97.12L39.6001 95.072L42.9281 90.336L42.1601 87.136L42.5441 84.96L39.9841 80.736L41.2641 78.432L41.0081 75.36L42.8001 74.464L44.2081 12.64L45.6161 14.048L46.2561 13.408L46.3841 14.816L48.9441 15.328L53.6801 14.048L57.5201 12L97.5841 12.128V13.408Z" fill="#BFBFBF"/>
</svg>
