<svg width="98" height="98" viewBox="0 0 128 128" fill="none" xmlns="http://www.w3.org/2000/svg">
<path d="M113.8 50.32V51.472L117.384 53.776L118.152 56.72L122.632 60.048L123.016 61.712L122.376 66.832L120.2 68.752L119.688 72.464L118.152 74.128L113.16 76.432L107.4 77.328L106.12 82.192L108.808 84.624L109.448 88.08L106.76 91.408L105.48 95.76L100.872 98.448L101.512 102.8L99.3361 102.672L94.7281 97.552L51.9761 98.832L19.0801 97.808V96.272L17.5441 94.48L18.3121 90.512L17.2881 86.288L17.9281 83.6L16.6481 82.704L17.8001 80.144L15.8801 79.632L17.0321 76.432L15.4961 75.92V74.512L13.5761 74.128L14.2161 67.472L12.9361 65.296V63.12L9.60812 58.256L8.71212 50.832L7.30412 50.192L6.53612 46.608L5.00012 44.432L8.45612 35.216L7.81612 33.04L6.28012 32.4L7.17612 29.072L6.28012 26L55.4321 26.64L101.768 26.128L103.048 29.712L105.096 30.736L103.432 34.576L105.48 43.792L106.76 45.328L112.52 46.608L113.8 50.32Z" fill="#BFBFBF"/>
</svg>
