<svg width="98" height="98" viewBox="0 0 128 128" fill="none" xmlns="http://www.w3.org/2000/svg">
<path d="M6.34463 87.8889H5V86.5556H6.34463V87.8889ZM82.5405 40.4444L85.678 40L87.5829 41.4444L88.9275 45.3333L94.4181 46.5556L96.6591 48.7778L99.5725 47.4444L102.934 49.4444L105.399 49.1111L107.192 47.2222L109.433 46.6667L110.442 49.8889L113.915 52.7778L114.139 56.2222L113.131 57.8889L117.053 64.4444L121.311 69.1111L124 69.7778L117.949 74.7778L113.019 77.6667L110.105 82.1111L107.192 83.2222L106.184 85.2222L96.6591 88.5556L32.3409 86.4444L28.6431 85.2222L29.0913 89L7.24105 87.8889L8.24953 85.3333L10.6026 86.5556L11.9473 83.5556L12.2834 79.3333L11.6111 77.1111L13.404 75.1111L16.3173 74.4444L22.3682 77.6667L23.2646 76.4444L22.3682 73.1111L22.5923 71.4444L29.0913 69.7778L28.0829 66.4444L30.0998 63.7778L31.4444 64.2222L32.1168 63.2222L31.8927 61.4444L33.7975 62.6667L35.5904 62.1111L36.0386 63.5556L36.823 63V60.7778L37.6073 62.1111L40.0725 61.4444L44.3305 64.4444L45.8992 62.1111L49.1488 60.7778L51.9501 63.5556L53.5188 61.7778V60L54.7514 59.4444L54.6394 58.1111H56.3201L55.7599 57.1111L57.2166 57.8889L57.6648 59.6667L60.6902 61.4444L62.5951 60.4444L64.1638 55.6667L66.9652 55L68.1977 52.1111L70.7749 50.3333L70.3267 47.1111L73.2401 46.6667L74.2486 47.6667L78.0584 45.7778L79.8512 46.1111L80.5235 43.8889L79.0668 43.4444L79.8512 42.3333L79.0668 40.7778L81.1958 39L82.5405 40.4444Z" fill="#BFBFBF"/>
</svg>
