<svg width="98" height="98" viewBox="0 0 128 128" fill="none" xmlns="http://www.w3.org/2000/svg">
<path d="M73.906 109.36H74.7517L75.3557 109.6H74.6309L73.906 109.36ZM73.906 109.36H73.6644H73.906ZM80.0671 109L79.5839 109.36L77.8926 109.84H77.5302L80.0671 109ZM85.1409 109.36H84.0537L82.9664 108.88L84.1745 109L85.1409 109.36ZM87.6778 108.88L86.4698 109.36L87.0738 108.52L87.6778 108.88ZM84.1745 105.04L84.0537 105.4L84.1745 104.56H84.5369L84.1745 105.04ZM93.2349 105.4V104.92L94.3221 104.08L94.8054 104.56L93.2349 105.4ZM95.5302 103.6L95.047 104.08L94.9262 103.84L95.4094 103.6H95.5302ZM110.389 98.68L109.785 98.92L110.872 98.08V98.68H110.389ZM91.302 98.56L93.2349 99.16L93.4765 99.88L91.302 99.16V98.56ZM112.322 97.72L113.168 96.52L112.685 97.48L112.322 97.72ZM114.98 94.84L114.859 95.08L114.98 94.72V94.84ZM56.0268 99.64H55.1812L51.0738 97L53.3691 95.68L57.7181 97.12L56.0268 99.64ZM115.826 93.76L115.342 94L116.55 92.2L116.43 92.68L115.826 93.76ZM105.195 91.96V92.68L104.591 91.96L103.987 92.68L104.349 91.12L105.195 91.96ZM107.128 91L108.336 90.64V91.96L107.007 91.12L107.128 91ZM108.336 88.24V87.88L109.181 87.76V88.24H108.336ZM107.248 88.48H107.128L108.336 86.92L107.852 87.76L107.248 88.48ZM117.879 90.64L117.034 91.72L117.879 87.76L116.55 84.88L117.879 86.44L118 88.24L117.879 90.64ZM105.074 83.32V83.44L104.832 83.32L105.074 83.08V83.32ZM109.302 84.28L110.148 85L109.302 85.6L108.698 84.88L106.644 85L110.148 82.48L108.698 83.92L109.302 84.28ZM18.698 92.68L15.7987 92.92L13.1409 94.12L12.1745 92.2L12.4161 91.48L14.2282 91.12L15.0738 89.68L14.349 87.52L16.0403 85.48L16.2819 80.92L15.557 78.52L16.5235 76.12L15.7987 73.84L19.302 68.08L20.1477 64.84L19.302 63.4L20.7517 62.68L19.6644 61.36L19.906 59.32L18.8188 58.96L17.3691 56.08L17.8523 54.76L15.7987 52.36L16.2819 51.4L14.349 49.72L14.2282 44.92L10 39.88L10.4832 16H68.1074L68.2282 16.96L70.0403 18.16L68.2282 21.76L70.2819 22.96L68.2282 24.28L69.6778 26.32V28.84L73.4228 32.68L71.1275 36.28L69.7987 36.4V39.52L64.604 43.96L63.1544 50.08L61.2215 51.76L61.8255 53.92L61.2215 56.8L58.8054 57.28L60.3758 62.08L58.6846 63.64L98.0671 63.16L95.8926 70.6L96.9799 73.24L99.6376 76.12L101.933 81.4L102.899 82L101.57 82.84V82.24L99.1544 82.72L98.4295 81.16L93.4765 80.44L91.906 78.28L89.1275 77.68L84.6577 81.88L84.0537 83.44L85.1409 85L90.094 86.32L93.3557 85.6L95.5302 83.32L97.4631 84.28L98.5503 82.72V84.28L99.8792 83.32L99.1544 82.84H100L100.483 83.32L99.0336 85.84L97.4631 85.48L96.4966 86.44L96.9799 87.88L99.396 87.76L99.0336 88.48L100.121 89.68L101.57 89.2L102.174 86.44L103.987 84.88L105.195 85.6L106.282 85.36L104.591 87.04L106.282 87.76L105.074 88.24L105.557 88.96L106.282 88.48L105.799 89.2H107.128L106.282 90.4L107.007 91.48L105.557 92.08L103.987 90.52L103.02 92.2L101.933 92.92L102.054 94H103.383L104.107 95.32L99.6376 93.52L101.45 95.56L98.5503 95.32L100.121 97.84L103.503 99.16L103.383 100.72H107.248L106.523 101.44L108.698 101.8L109.302 102.64L110.389 101.8L112.201 103.6L111.477 104.56L113.772 104.92L114.376 105.76L112.685 106.24L114.255 106.36L113.168 107.92L112.685 106.96L112.805 108.28L112.322 107.8L111.718 109L111.96 109.96L109.302 107.56V108.52L108.336 109L106.161 112L108.819 106.36L108.336 106.96L107.852 105.76V107.32L106.644 108.28L104.349 104.56L105.074 104.32H101.933L101.45 102.28L100.121 102.88H97.2215L98.7919 101.8L98.4295 100.36L96.9799 100.12L97.4631 99.16H96.4966L96.3758 99.88L94.9262 99.64L91.302 97.72L90.698 98.08L89.7315 96.76L89.1275 98.32L92.8725 100.36V102.64L92.6309 102.16L93.3557 103.36L91.6644 103.84L91.906 105.04H92.6309L91.302 106.96L88.6443 108.52L88.2819 104.32L87.557 105.04L86.4698 103.36L85.5033 104.92L84.1745 102.16L83.4497 103.84L81.0336 103.36L81.396 105.4L80.5503 105.04L80.0671 107.56L79.9463 106.84L77.7718 108.28L76.8054 107.92L77.4094 106.84L76.2013 106.36L75.3557 107.8L72.698 106.72L72.4564 105.52L71.1275 106.36L66.7785 104.92L66.0537 104.08L65.6913 102.88L66.6577 103.36L68.1074 101.92L68.2282 102.76L69.3154 102.88L69.6778 104.92L70.2819 104.56V102.88L67.2617 99.88L67.745 96.52H67.2617L66.6577 99.64L63.8792 98.68V97.72L60.9799 98.32V95.68H59.2886V93.28L54.698 94L54.8188 91.48H52.1611L48.8993 93.76V92.92L47.5705 93.16L48.1745 94.72L49.745 94.12L48.8993 94.84L49.6242 96.52L51.1946 96.16L50.4698 97.12L45.1544 98.32L36.9396 96.76L26.5503 92.56L18.698 92.68Z" fill="#BFBFBF"/>
</svg>
