<svg width="98" height="98" viewBox="0 0 128 128" fill="none" xmlns="http://www.w3.org/2000/svg">
<path d="M68.04 93.816L66.76 93.304L66.504 91.896L68.424 92.664L68.04 93.816ZM71.24 88.952L70.6 89.464L71.24 90.744H69.832L70.472 87.928L71.24 88.952ZM78.536 87.032H76.488L77 88.44L76.232 88.952L74.44 87.032L75.592 84.344L77.128 83.832L78.92 86.008L78.536 87.032ZM65.608 16.632L66.632 17.656L72.904 14.456L74.44 15.096L76.488 13.304L81.48 16.632L84.808 19.96L85.576 48.504L84.936 53.24L88.648 55.544L91.592 56.184V57.464L90.312 58.616L91.592 61.304L91.08 64.12L93.384 66.552L94.4079 65.528L96.328 66.04L98.5039 70.776L98.12 71.544L97.096 71.288V72.696L95.688 72.184L96.456 74.616L97.992 72.824L98.5039 74.232L98.12 72.696L99.6559 74.36L96.1999 78.584L94.664 78.456L94.4079 79.096L93.7679 76.92L92.36 77.304L93.256 79.096L92.36 79.992L91.72 78.456L91.592 79.736L89.544 78.84L89.032 81.656L87.752 80.76L86.856 82.424L86.728 79.992L85.576 81.656V79.992L84.936 80.376L83.784 84.728L83.656 82.552L83.144 84.6L82.504 82.424L81.48 83.064L82.504 84.728L81.096 86.648L80.072 82.936L79.304 82.424L78.92 83.32L78.536 81.656L78.28 83.064L76.872 81.656L77.128 83.576L75.592 83.064L74.696 84.728L74.44 82.552H73.544L73.928 84.856L73.544 84.344L72.136 84.6L72.776 88.696L69.192 86.648L67.784 86.904L68.04 85.624L69.96 84.6L69.192 83.832L67.784 84.728L68.936 81.528L68.04 80.76V82.936L64.84 84.344L65.736 86.648L63.56 91.128L63.688 93.048L61.256 94.456V95.736L59.976 96.12L60.616 94.2L58.952 95.736L59.464 94.968H58.056V93.048L55.752 98.424L55.112 96.888V98.424L55.368 93.944L54.216 95.736L54.088 98.936V98.04L53.064 97.784L53.448 96.248L53.064 95.48L53.448 93.816L51.144 97.144L51.528 98.552L52.168 98.04L51.144 100.216L51.016 93.048L49.224 94.968L49.352 95.48L50.12 94.84L50.888 100.856L50.12 101.88L49.224 97.784V99.192L47.176 100.856L48.072 98.424L46.408 100.344L47.816 97.912L46.792 98.424L47.304 97.784L43.72 99.96L42.696 102.392L41.8 102.648L43.208 103.416V104.696L40.904 105.464L40.264 107.128L41.032 107.512L37.32 110.328L34.76 116.472L33.736 115.96L33.096 116.6L31.944 114.424L32.2 112.504L29.768 108.792L29 62.456L30.664 61.432L32.2 64.248L33.736 59.64L35.4 60.536L36.68 60.152L35.272 57.72L37.576 54.136L40.776 52.728V50.808L43.336 47.736L42.568 46.456L42.696 44.152L43.72 42.616L43.208 40.824L45 37.496L46.92 35.832L47.816 29.048L60.872 11L63.816 11.64L64.2 15.48L65.608 16.632Z" fill="#BFBFBF"/>
</svg>
