<svg width="98" height="98" viewBox="0 0 128 128" fill="none" xmlns="http://www.w3.org/2000/svg">
<path d="M98.2561 92.7267L97.8408 94.07L96.699 93.45L97.9446 92.7267L97.218 90.97L98.2561 92.7267ZM97.8408 86.7333H96.4913L95.8685 86.1133L97.218 85.5967L97.8408 86.7333ZM118.602 90.97L120.367 86.63L122.754 81.98L120.159 89.73L118.602 90.97ZM123.377 80.3267L122.858 80.6367L123.689 76.8133H124L123.377 80.3267ZM11.0588 33L103.343 33.62L106.042 77.1233L122.858 76.8133L122.131 77.1233L122.235 77.95H120.367L121.612 78.57L121.509 80.0167L122.754 80.43L122.235 81.36L120.782 84.15L119.744 84.5633L120.159 83.53L118.706 84.15L117.875 88.3867L115.799 89.5233L115.073 91.59L108.533 92.7267L107.91 93.76L104.173 93.6567L101.993 95L102.304 92.83L101.163 93.0367L104.9 88.6967L101.993 89.5233L104.277 87.4567L103.654 87.3533L99.8131 88.0767L100.021 86.1133L102.927 84.77L100.747 83.53L101.993 78.57L99.0865 84.15L97.9446 82.0833L99.1903 80.6367L99.0865 80.0167L98.2561 80.43L97.218 82.0833V84.77L92.3391 79.19L91.9239 81.98L89.1211 76.71L90.1592 75.6767L90.8858 76.8133L91.1972 74.9533L93.0657 73.1967L92.4429 72.7833L90.1592 73.61L91.0934 72.37L90.263 71.44L93.5848 71.0267V72.1633L96.699 73.0933L98.7751 71.75L99.0865 70.2L97.3218 72.1633L95.8685 71.44L95.4533 70.2L93.6886 70.4067L94.8304 69.27L93.5848 69.58L93.0657 67.9267L92.3391 68.96L91.8201 66.17L90.263 67.9267V65.55L89.5363 68.8567L88.3945 69.27L90.263 63.8967L92.9619 66.17L94.7266 66.0667L94.8304 64.7233L93.7924 65.55L92.9619 64.7233L94.8304 62.5533L93.6886 61.9333V61.21L92.9619 61.83V60.3833L91.1972 59.35L88.9135 61.3133L89.1211 63.07L88.2906 62.5533L89.1211 57.5933L91.1972 58.6267L93.0657 58.42V56.56L95.8685 53.6667L92.9619 54.2867L91.9239 57.2833L90.4706 53.15L92.9619 47.57L94.4152 45.9167L101.889 45.6067L97.218 44.78L99.3979 41.99L101.889 42.5067L100.54 40.75L101.993 38.27L97.3218 42.3L99.1903 37.65L97.8408 38.89L95.4533 39.0967L94.4152 41.37L95.8685 42.61L91.9239 45.9167L91.1972 41.99L90.4706 45.4L91.0934 46.64L90.1592 47.6733L89.1211 44.78L86.7336 44.8833L88.7059 46.2267L87.6678 47.6733L86.0069 47.57L86.7336 49.5333L84.7612 47.6733L85.7993 49.5333L87.3564 50.2567L86.3183 51.29L82.2699 48.9133L81.128 49.5333L84.7612 53.0467L85.4879 52.53L86.6297 56.25L84.0346 55.5267L86.9412 57.8L85.3841 58.6267L83.1003 55.8367L82.3737 56.4567L85.7993 60.7967L83.1003 59.7633L84.865 61.9333L83.1003 62.45L83.4118 63.8967H84.865L82.9965 66.79L84.1384 68.2367V74.23L87.3564 78.57L87.6678 80.6367L85.7993 81.05L80.609 75.9867L79.3633 69.58L79.5709 74.3333L81.2318 78.4667L84.1384 80.3267L85.4879 82.3933H87.564L87.3564 84.5633L89.1211 87.3533L89.5363 90.97L86.7336 89.11L85.4879 85.5967L85.3841 88.0767L84.2422 87.25L84.0346 88.3867L81.128 84.5633H77.0796L75.6263 80.43L74.173 79.19L75.2111 82.3933L75.1073 83.22L73.8616 82.8067L69.917 76.2967L68.7751 78.57L68.0484 76.8133L66.9066 79.5L64.6228 79.7067L63.7924 76.8133L64.6228 73.7133L66.2837 73.0933L65.9723 72.1633L67.4256 71.5433L68.1522 69.58L70.5398 68.2367L70.3322 65.3433L73.4464 62.45L69.8131 58.6267L68.0484 60.6933L64.519 59.04L63.481 56.87L58.7059 55.63L57.045 53.15L58.4983 51.29L58.1868 50.1533L55.6955 48.2933L50.7128 46.2267L50.9204 44.0567L49.3633 43.1267L50.2976 41.37H48.9481L48.5329 39.9233L48.0138 40.6467L47.391 39.0967L48.5329 38.4767L48.1176 37.65L45.0035 37.7533L40.436 34.3433L39.2941 34.24L36.8028 36.5133L32.5467 37.03L33.2734 37.7533L31.9239 38.27L32.5467 38.89L31.5086 39.9233H28.6021L24.0346 38.27L24.4498 37.03L23.6194 35.9967L22.5813 38.4767L18.3253 42.3L16.1453 41.37L14.692 41.8867L9.39792 47.3633L4 50.67L4.72664 33H11.0588Z" fill="#BFBFBF"/>
</svg>
