<svg width="98" height="98" viewBox="0 0 128 128" fill="none" xmlns="http://www.w3.org/2000/svg">
<path d="M121.138 93.9937L122.985 99.1684L119.662 100L113.846 98.6139L120.4 97.4127L121.231 95.657L119.2 97.4127L120.677 94.5481L120.123 93.3468L121.138 93.9937ZM106.646 95.0101L106.369 95.2873L104.8 93.9013L106.369 92.0532L106.646 95.0101ZM101.754 90.1127L101.477 91.4063L102.862 90.2975L103.415 91.4987L102.215 92.238L104.246 92.8848L104.523 95.2873L99.1692 95.5646L95.7538 97.4127L93.5385 95.5646L96.4 94.7329L99.5385 90.9443L101.754 90.1127ZM121.692 86.3241L120.954 86.5089L122.431 81.7038L122.985 82.7202L121.692 86.3241ZM91.9692 27.5544L93.7231 27.0924L93.8154 29.5873H92.0615L94.5538 31.6203L95.7538 34.4848L93.8154 33.0063V34.4848L96.6769 36.1481L95.7538 36.3329L96.1231 37.1646L98.0615 37.4418L98.7077 38.3658V36.7025L100.554 35.5013L101.477 38.0886L97.8769 40.4911L91.9692 42.7089L91.4154 43.9101L92.6154 43.2633L93.0769 44.4646L90.4923 45.7582L91.4154 47.4215L89.0154 47.1443L89.1077 50.6557L87.7231 49.6392L88.2769 50.6557L86.6154 50.1013L86.0615 50.6557L87.3538 51.4873L86.3385 51.857L86.6154 52.9658L88.1846 52.6886L87.7231 53.8899L89.0154 54.2595L89.1077 55.8304L92.3385 54.9987L91.2308 52.4114L96.4 56.1076L101.477 65.9025L99.8154 66.0873L100.646 65.9025L99.5385 63.6848L98.9846 66.0873H97.8769L100.554 68.5823L103.046 69.4139L103.6 74.8658L104.523 75.7899L107.846 77.9152L112.092 78.562L110.338 79.3013L113.292 78.8392L120.677 75.6975L121.692 74.5886L120.677 70.4304L121.785 70.1532L120.123 69.0443L119.2 71.1696L117.908 64.2392L115.692 63.5924L115.138 65.2557L112.738 63.3152L113.569 62.0215H115.785L119.2 64.1468L121.785 67.2886L124 73.4797L122.431 72.7405L121.969 75.5127H123.723L123.446 80.9646L115.508 81.7038L112.462 84.0139L112.646 82.2582L108.308 83.7367L107.385 82.7202L104.523 86.3241L98.4308 87.7101L99.7231 85.4924L99.5385 80.9646L100.554 78.8392L99.8154 78.1924L99.5385 79.3013L97.5077 77.9152V80.5025H96.6769L95.7538 82.443L94.5538 81.8886L93.0769 83.1823L93.2615 84.8456L91.2308 83.0899L89.6615 87.6177L86.6154 88.6342L85.4154 88.5418L86.6154 87.6177L85.9692 86.3241L85.4154 87.6177L84.1231 87.1557L84.5846 87.9873L83.8461 88.6342L83.4769 81.8886L81.5385 81.2418L84.1231 75.6975L82.0923 78.8392H80.5231L79.9692 79.8557L76.9231 76.6215L76.3692 71.6316L75.3538 71.1696L74.8 65.9025L29.2923 64.9785L29.0154 65.9025L27.6308 66.0873V64.9785L5.01538 63.5924L4 62.4835L13.1385 32.4519L77.4769 35.3165L80.8923 33.0063L82.9231 30.1418L85.1385 29.957L89.9385 27L91.9692 27.5544Z" fill="#BFBFBF"/>
</svg>
