<svg width="98" height="98" viewBox="0 0 128 128" fill="none" xmlns="http://www.w3.org/2000/svg">
<path d="M106.208 108.512V106.208V108.512ZM68.5761 56.672H66.2721V54.368H68.5761V56.672ZM73.3121 47.328V45.152V42.72V47.328ZM84.9601 42.72L87.5201 45.152H89.8241L92.1281 47.328H94.5601L101.728 51.936V56.672V54.368L99.1681 56.672L101.728 59.104V68.576L99.1681 71.008V73.312L94.5601 75.744V80.352L99.1681 82.528V80.352H101.728V75.744H103.904L106.208 73.312L110.944 75.744V77.92L115.68 92L113.376 99.168V101.6V99.168H110.944L108.512 101.6V103.776L106.208 106.208V108.512V110.944L101.728 115.68H84.9601H56.6721L59.1041 113.248L61.5361 106.208L63.8401 99.168V92V89.696V87.392V89.696L59.1041 82.528L61.5361 77.92V73.312L63.8401 68.576V63.84L66.2721 61.408V59.104L68.5761 56.672V59.104L73.3121 54.368L71.0081 59.104L73.3121 61.408V56.672V61.408L75.7441 56.672V51.936L80.3521 49.76L77.9201 47.328L80.3521 45.152V42.72H84.9601ZM87.5201 42.72V45.152L84.9601 42.72H87.5201ZM99.1681 37.856V40.16L94.5601 37.856H96.9921H99.1681ZM92.1281 35.552L89.8241 33.12H92.1281V35.552ZM92.1281 33.12H89.8241V30.688V28.512H92.1281L89.8241 30.688L92.1281 33.12ZM59.1041 30.688V28.512V30.688ZM35.6801 19.168L37.8561 21.472L35.6801 23.776H37.8561L40.2881 21.472L37.8561 23.776L40.2881 21.472H45.1521L47.3281 23.776L49.8881 28.512L52.0641 30.688L54.3681 28.512L56.6721 30.688H59.1041L66.2721 25.952H73.3121L80.3521 23.776V30.688H82.5281H84.9601H87.5201L89.8241 33.12V35.552H92.1281V37.856H94.5601V40.16L87.5201 37.856L84.9601 40.16V37.856L82.5281 42.72L80.3521 37.856H73.3121L71.0081 40.16H68.5761H63.8401V42.72H61.5361L59.1041 47.328V45.152V42.72V40.16L56.6721 42.72V45.152H54.3681V40.16V45.152L47.3281 54.368H45.1521V49.76H42.7201L45.1521 45.152L40.2881 42.72V40.16L35.6801 37.856H30.6881L28.5121 35.552L16.7361 30.688L14.3041 28.512H12.0001L19.1681 23.776H26.0801L28.5121 19.168H30.6881L35.6801 16.736V19.168ZM45.1521 12L42.7201 14.304L40.2881 16.736L37.8561 21.472L35.6801 19.168H37.8561V16.736V19.168L35.6801 16.736L40.2881 12H45.1521Z" fill="#BFBFBF"/>
</svg>
