<svg width="98" height="98" viewBox="0 0 128 128" fill="none" xmlns="http://www.w3.org/2000/svg">
<path d="M41.7841 20.448L45.1121 18.784L46.7761 20.704H48.3121V22.24L49.4641 23.264L58.0401 25.056L59.4481 26.976L62.5201 26.848L63.1601 25.824L65.4641 25.184L68.9201 25.568L72.5041 26.848L71.8641 28.256L74.2961 28.512L75.8321 32.224L76.6001 31.84L76.8561 30.432L79.2881 30.048L80.3121 31.968L83.2561 32.864L83.7681 34.4L85.0481 35.04H88.8881L93.3681 31.84L95.0321 34.528L102.2 33.504L104.76 35.552L106.296 35.04L108.984 35.424L94.3921 42.592L86.4561 51.552L79.4161 57.184L77.8801 59.744H77.1121V69.984L72.1201 73.312L69.4321 77.024L69.8161 79.2L71.4801 79.328L72.5041 81.76L71.4801 84.448V86.88L70.8401 88.032L71.4801 90.464L70.7121 93.28L73.6561 96.096L76.0881 96.736L77.2401 98.528L79.8001 99.168L85.4321 105.44L88.8881 106.464L90.1681 108.512L90.9361 115.552L57.2721 115.68L23.9921 114.912L25.2721 82.912L24.2481 81.376L22.4561 80.48L20.6641 77.664L24.2481 73.44L24.7601 67.936L22.4561 59.232L22.8401 54.24L22.2001 52.96L22.4561 42.208L19.6401 32.736V25.824L20.2801 23.776L19.0001 17.376L41.4001 18.144L41.7841 20.448ZM43.9601 12L45.7521 12.128L46.0081 13.152L45.4961 14.816L43.9601 15.584V12Z" fill="#BFBFBF"/>
</svg>
