<svg width="98" height="98" viewBox="0 0 128 128" fill="none" xmlns="http://www.w3.org/2000/svg">
<path d="M80.5727 18.5L79.0661 23L80.196 29.875L81.7026 33.25L91.4956 43.125L92.8766 49.25L94.3833 51.75L95.7643 51.625L97.6476 50L102.921 53.125L98.7775 63.875L99.0286 66.625L103.172 71L106.562 72.375L113.593 78.625V81.375L115.476 84.75L113.593 87.75L116.48 92.5L118.112 93.5L117.61 91.875L118.615 91.5L119.996 93.875H121L120.874 98.75L119.493 102.75L116.606 101.625L114.848 105.5L114.346 103.25H113.216L113.969 107L112.086 108.25L113.467 109.75L110.956 110L112.463 112.625L110.454 115.875L98.7775 116L99.9075 113.125L104.176 109.375L104.302 107.5L102.544 104.75L22.3172 103.125L25.3304 44.125L21.4383 42.625L20.5595 38.75L17.0441 35.125L19.5551 31.125H21.4383V29.125L20.1828 27.5L17.6718 28.125L12.3987 24.25L11.5198 19.5L8.50661 17.625L8.00441 13.125L7 12.125L7.12555 11L36.7555 13.125H75.5507L80.5727 18.5Z" fill="#BFBFBF"/>
</svg>
