<svg width="98" height="98" viewBox="0 0 128 128" fill="none" xmlns="http://www.w3.org/2000/svg">
<path d="M80.7921 115.552H80.6641L81.5601 115.168L80.7921 115.552ZM90.6481 115.168L89.8801 115.552L89.6241 115.04L90.6481 115.168ZM79.0001 114.784L78.4881 115.68L77.3361 115.04L79.0001 114.528V114.784ZM88.6001 115.168L84.6321 114.784V114.528H85.7841L88.6001 115.168ZM91.8001 12.384H94.7441L96.2801 14.176L89.6241 79.2L91.1601 112.096L89.8801 113.12L87.5761 111.328L84.7601 112.224L81.5601 110.176L80.5361 110.816L82.5841 111.072L75.6721 113.12L74.0081 111.712L73.3681 112.48L74.1361 113.248L72.0881 114.528L71.7041 115.68H69.5281L67.6081 110.048L65.1761 107.616L64.2801 105.056L66.2001 98.528L31.0001 97.632L32.5361 96.736L31.1281 92.128L33.4321 91.488L34.2001 88.8L33.4321 87.008L35.2241 85.472L37.0161 79.968L42.0081 76.128L41.6241 73.568L43.0321 73.312L45.4641 69.6L41.6241 66.4L42.0081 64.224L40.7281 62.56L42.5201 61.28L40.9841 59.744L42.6481 56.416L40.9841 55.264V52.576L42.5201 51.424L42.0081 48.992L40.7281 48.096L42.0081 44.896L40.0881 42.72L41.1121 42.464L41.4961 41.184L40.0881 40.416L43.4161 37.6L43.1601 36.064L43.5441 35.04L42.6481 33.632L46.6161 32.224L45.4641 30.176L46.7441 29.024L47.8961 27.36H48.5361L48.7921 25.568H50.3281L51.9921 24.544L52.5041 18.144L53.9121 18.016L54.5521 15.968L57.7521 13.92L57.1121 12L91.8001 12.384Z" fill="#BFBFBF"/>
</svg>
