<svg width="98" height="98" viewBox="0 0 128 128" fill="none" xmlns="http://www.w3.org/2000/svg">
<path d="M122.094 74.3133L123 87.9133L87.8944 89.5H51.8829L51.7697 96.7533L48.5989 92.9L47.2399 94.4867L47.6929 95.8467L39.8791 95.3933L38.0672 96.7533L34.2169 96.1867L33.5374 98L31.952 96.64L30.3666 92.22L27.6488 90.6333V88.3667L25.0441 83.9467L24.5912 79.7533L22.666 78.3933L19.2687 81.2267L17.0038 79.7533L17.2303 77.0333L18.8157 75.22L17.9098 71.5933L20.4012 64.34H17.9098L17.0038 62.98L16.0979 63.66L11.0019 55.2733L7.26488 52.3267L8.28407 51.8733L7.71785 50.74L7.83109 48.7L5 44.1667L6.13244 30L62.7543 32.6067L118.81 30.9067L122.094 74.3133Z" fill="#BFBFBF"/>
</svg>
