<svg width="98" height="98" viewBox="0 0 128 128" fill="none" xmlns="http://www.w3.org/2000/svg">
<path d="M105.918 45.1277L107.209 45.3617L108.149 50.9787L112.141 57.6489V61.9787L113.315 62.2128L113.198 63.1489L114.372 63.8511L114.02 65.8404L115.311 66.1915L114.607 67.7128L115.546 68.4149L115.898 76.7234L118.247 80.3511L119.186 83.9787L121.652 84.9149L122.474 88.5425L124 89.3617L77.8552 91L30.8885 90.6489L31.3581 72.8617L4 71.6915L5.64384 36L41.9256 37.2872H79.0294L85.6047 40.7979L87.7182 39.2766L95.2329 38.6915L97.4638 40.5638L103.217 42.2021L104.157 44.5426L105.918 45.1277Z" fill="#BFBFBF"/>
</svg>
