<svg width="98" height="98" viewBox="0 0 128 128" fill="none" xmlns="http://www.w3.org/2000/svg">
<path d="M79.1121 15.048L83.2081 81.48L82.4401 88.136L86.9201 94.024V97.352L89.3521 100.424L88.9681 101.32L90.3761 101.064V101.704L87.5601 108.36L84.2321 108.104L80.0081 110.92H77.9601L76.2961 113.352L73.3521 115.4L39.6881 114.248L37.1281 110.152L37.0001 108.36L38.1521 104.776L39.4321 103.368L40.4561 93.512L41.4801 91.976L41.8641 81.736L43.7841 79.688L44.5521 75.336L47.2401 72.776L48.0081 68.936L50.4401 65.352L49.9281 64.2L51.7201 60.36L52.1041 53.32L53.7681 51.016L57.4801 50.76L62.3441 46.664L64.3921 44.104L64.7761 41.928L66.0561 41.288L63.6241 35.272L67.0801 29.128L66.4401 25.032L69.8961 16.84L68.8721 15.944L72.4561 13.384L76.6801 15.304L78.7281 13L79.1121 15.048Z" fill="#BFBFBF"/>
</svg>
