<svg width="98" height="98" viewBox="0 0 128 128" fill="none" xmlns="http://www.w3.org/2000/svg">
<path d="M76.6801 95.608H74.5041L73.0961 94.712L75.6561 95.608L76.6801 93.304H78.7281L76.6801 95.608ZM81.1601 89.08L79.8801 90.104L85.3841 79.992L84.2321 84.6L81.1601 89.08ZM88.8401 35.192L87.6881 38.392L84.2321 40.568V38.392L82.0561 41.848L79.8801 46.072V49.4L82.0561 50.424H84.2321L88.8401 52.6L89.7361 51.576L88.8401 49.4L89.7361 51.576V57.208L87.6881 65.912V68.216L86.2801 78.968H85.3841L87.6881 69.368L86.2801 66.808V69.368L84.2321 70.264L85.3841 71.416L84.2321 72.44L85.3841 73.592L83.2081 78.968V82.552L77.7041 89.08L78.7281 91.256L76.6801 89.08H75.6561V92.152V93.304H73.0961V95.608H74.5041L75.6561 97.784L71.0481 99.832L72.0721 97.784V96.76L69.8961 99.832H67.8481L66.5681 101.112H69.8961L66.5681 104.44L65.5441 107.896H63.4961L65.5441 108.92L62.3441 112.248V113.144L58.8881 115.704L56.7121 116.6V112.248L58.8881 108.92L57.8641 105.592H54.6641L53.3841 104.44L50.3121 105.592L49.1601 103.288L46.7281 99.832H44.5521L43.5281 97.784L42.5041 98.936L37.0001 92.152V91.256H37.8961V89.08L37.0001 86.776L41.3521 77.944L44.5521 76.92L50.3121 75.768L52.3601 73.592L51.3361 71.416H52.3601L57.8641 66.808L63.4961 63.736L64.3921 62.584L56.7121 53.624L55.8161 51.576H54.6641L52.3601 46.072L49.1601 44.92V37.24L50.3121 35.192H52.3601L53.3841 31.864L51.3361 27.256L54.6641 24.056L57.8641 20.728L60.0401 14.072L62.3441 11.896L65.5441 11L91.9121 26.232L90.8881 29.688L88.8401 35.192Z" fill="#BFBFBF"/>
</svg>
