<svg width="98" height="98" viewBox="0 0 128 128" fill="#BFBFBF" xmlns="http://www.w3.org/2000/svg">
<path d="M90.2357 106.156V107.294L87.4981 109L88.5247 106.384L90.2357 106.156ZM103.011 105.588L100.502 106.497L97.9924 106.725L101.529 105.929L103.011 105.588ZM104.38 105.929L102.213 106.384V106.156L109.97 103.312L104.38 105.929ZM117.954 95.9188L112.251 100.696H114.875L116.928 98.08L118.981 98.1937L119.095 97.3975L120.122 98.535L124 97.0563L110.768 103.312L112.137 102.516L95.597 106.725L97.6502 107.18L92.403 107.863L95.0266 106.725L93.8859 105.929L92.7452 106.384L93.0874 107.18L91.1483 107.635L90.5779 106.156L92.403 103.54L95.0266 103.312V102.403L95.3688 102.744L95.597 101.265L96.6236 102.516L97.0798 100.924L99.1331 101.037L99.7034 99.9L100.844 100.924L100.274 99.9L103.125 100.696L104.722 99.5587L112.251 99.1038L116.471 95.6913L117.954 95.9188ZM121.605 93.3025L121.262 93.075L122.631 92.5062L121.833 93.3025H121.605ZM18.1445 56.1063L17.2319 57.2438L16.5475 56.675L16.6616 55.4237L18.1445 56.1063ZM58.2966 38.02L57.4981 38.7025L58.5247 37.2238V37.9062L58.2966 38.02ZM60.5779 31.9913L60.9202 32.2187L59.5513 32.56L59.7795 32.2187L60.5779 31.9913ZM62.9734 30.74L62.289 31.3088L61.3764 32.2187L61.1483 31.3088L62.9734 30.74ZM78.6008 18H100.274V19.1375L100.16 25.9625L101.3 29.375L100.73 33.5838L99.1331 37.2238L100.274 42.7975L99.4753 46.3237L99.7034 47.12L101.3 46.0963L101.871 47.575L102.213 63.7275L98.6768 77.0363L97.9924 93.3025L99.1331 94.6675L95.3688 97.0563L96.6236 99.1038L94 101.606L94.2281 102.516L92.403 102.744L91.1483 104.791L93.0874 98.535L92.1749 92.62L91.3764 93.6437L92.5171 99.1038L80.4259 91.8238L79.7414 90.4587L75.9772 88.98L74.9506 86.8187L74.8365 82.4962L72.0989 81.3587L70.8441 78.8563L4 76.24L4.34221 70.8937L13.924 65.2062L15.7491 62.4762L18.1445 61.225L17.5741 57.2438L18.3726 55.765L15.7491 54.6275L15.8631 50.9875L26.3574 49.1675L35.597 50.5325L37.9924 52.58L41.3004 51.7838L47.1179 53.035L47.5741 51.8975L50.8821 51.3287L55.2167 47.575L57.4981 47.8025L58.7528 46.4375L58.8669 44.9588L58.5247 45.3L57.384 41.0912L58.2966 40.0675L58.5247 41.0912L60.9202 38.02L58.7528 38.475L60.0076 36.9962L58.7528 36.4275L57.384 37.3375L56.5856 35.4037L64 30.5125L66.2814 26.3038L72.7833 20.8438L78.6008 18Z" fill="#BFBFBF"/>
</svg>
