<svg width="98" height="98" viewBox="0 0 128 128" fill="none" xmlns="http://www.w3.org/2000/svg">
<path d="M90.9 85.7L90.3 87L89.6 86.8L89.9 86.3L90.9 85.7ZM92.3 81.5L91.8 82.8L91.6 82.9L92 81.7L92.3 81.5ZM98.8 75.8L96.4 76.9L94.9 78.3L95.7 77.4L97.3 76.1L98.8 75.8ZM109.8 73.6H109.5L108.2 72.7L109.3 73L109.8 73.6ZM107.6 72.7H105.8L102.1 73.6L104.7 72.7L106.9 72.5L107.6 72.7ZM110 74.1L111.5 71L114.1 68.2L111.7 71.2L110 74.1ZM115 67.7L115.7 66.4H116.3L115 67.3V67.7ZM117.9 65.3L116.5 66.2L117 65.5L119.8 64L117.9 65.3ZM122.9 63.5L120.3 64.2L123.3 62.3L123.6 57.9L122.9 54.4L124 57.5L123.5 61.6L122.9 63.5ZM121.6 53.7L121.1 53.5L120.1 51.9L121.1 52L121.6 53.7ZM118.9 45.6L120.1 48.7L122.9 54.3L120.1 50.5L120.5 50.4L118.7 45.9L117.7 41.9L118.9 45.6ZM116.5 41.9H117.2L117.4 42.7H116.5L116.1 41.9H116.5ZM60.7 42.7L115.7 41.9V43.2L116.5 43.9V44.3L117.2 44.9V43.9L119 49.6L116.6 45.9L117.4 48.2L113.7 45.8L115.5 48.3L114.1 48.9L112.4 47.4L113.3 49.5L110 47.6L112.2 49.6L108.5 51.1L107.1 50.4L106.7 48.2L107.1 46.5L106.3 45.9L106.1 49.1L107.1 51.1L106.7 52L110.7 51.3L112.9 52.2L112.6 51.5L115.7 51.3V54.4H114.8L116.1 55.9L114.6 56.1L116.1 56.8L116.5 52.8L117.2 52.2L118.1 52.9L117.7 52H118.7L118.5 51.3L120.1 53.7V56.8L118.7 57.9L118.1 56.8L116.3 60.7L114.6 61.8L111.9 60.9L111.7 61.8L110.9 59.9L110 61.1L108.7 59.4L110.2 58.7L107.8 59L108.5 61.1L102.3 59L103.6 60.7L110.2 63.1L107.6 64.9L109.1 64.7L109.3 65.7L106.3 67.9L102.1 65.3L103.9 68.1L106.7 69.3L108.3 67.9L109.5 68.8L109.1 67.9L110.2 68.1L110.7 66.4L110.6 68.6L112.4 67.9L111.9 67.1L113.1 68.1L110 71.9L108.5 70.6L108.3 72.5L107.6 71L106.3 71.7L107.4 72.1H104.7L102.1 73L101.5 71.7V73L99.1 75L98.1 74.5L99 73.6L97.5 71.9L98.2 73.7L97.3 74.3L98.2 75.8L96 76.7L93.5 79.1L90.9 85.5L91.1 82.8L90.3 81.3L90.7 84.4L89.4 86.3L84.8 85.3L82.2 86.8L67.3 71.3L52 70.6L51.9 68.6L50 65.8L48.3 66.6V65.3L30.5 63.8L20.6 66.9L4 66.4L4.7 62.3L7.7 61.8L8.6 59.4L10.3 57.9L15.6 57.4L20.2 54.4L22.6 53.9L24.1 51.3L25.2 51.9L27.5 49.6L28.5 51.3L33.3 48.2L35.3 49.1L37.7 45.8L40.1 45.2L40.8 41L60.7 42.7Z" fill="#BFBFBF"/>
</svg>
