<svg width="98" height="98" viewBox="0 0 128 128" fill="none" xmlns="http://www.w3.org/2000/svg">
<path d="M108.96 51.712L105.888 53.376L107.296 56.064L106.784 59.008L107.296 60.672L104.736 67.072L104.48 71.168H103.456L103.712 72.576L102.304 75.264L102.944 76.672L102.304 79.36L95.1361 85.632L92.1921 87.04L91.0401 85.376H90.0161L88.0961 87.04L87.5841 88.96H85.5361L84.0001 91.648V93.568L82.5921 93.952L83.6161 95.232L84.0001 97.792L82.5921 97.536L81.1841 99.712L80.1601 96.64L79.0081 95.872L77.8561 96.384L74.6561 102.144L75.4241 106.752L72.9921 107.392L72.0961 111.232L66.4641 112L64.4161 108.928L61.7281 107.392L60.0641 103.168L57.3761 104.064L54.8161 106.752L51.6161 107.008L50.4641 105.472L47.1361 104.064L44.9601 104.832L44.4481 105.984H43.0401L39.8401 102.4L37.6641 101.888L35.3601 102.144L32.6721 100.736L30.7521 95.488L27.6801 93.056L24.0961 93.696L22.1761 91.776L20.0001 93.056L22.3041 23.424L49.1841 23.168L56.7361 26.112L58.6561 28.288L60.7041 28.416L61.4721 27.008L64.5441 29.184L57.3761 30.336L60.0641 31.36L62.6241 30.208L66.3361 31.36L64.8001 29.696L67.4881 31.872L69.4081 32.256L77.8561 29.184L83.7441 29.44L91.4241 23.168L108.064 16L108.96 51.712Z" fill="#BFBFBF"/>
</svg>
