<svg width="98" height="98" viewBox="0 0 128 128" fill="none" xmlns="http://www.w3.org/2000/svg">
<path d="M121.455 43.676L124.527 63.146L125 93L119.328 91.23L117.674 89.578L114.129 87.808L112.12 89.578H110.111L108.575 88.044L106.094 89.814L103.73 89.46L99.0039 91.82L98.1768 92.764L94.3955 90.286L94.2773 89.46L92.0322 90.286L89.5508 88.516L87.4238 90.05L86.4785 92.646L85.415 89.46L82.2246 90.876L79.2705 87.808L76.3164 90.05H75.1348L74.6621 87.808L72.7715 87.454L72.5352 85.33H68.9902L66.8633 86.51L65.4453 84.976L63.5547 85.448L56.9375 83.678L56.8193 82.144L54.3379 79.548L53.6289 81.2L49.9658 80.964L46.7754 77.424H45.3574L45.8301 44.148L4 42.614L4.47266 34L63.082 35.77L121.219 34.944L121.455 43.676Z" fill="#BFBFBF"/>
</svg>
