<svg width="98" height="98" viewBox="0 0 128 128" fill="none" xmlns="http://www.w3.org/2000/svg">
<path d="M37.0241 32.896H37.9201L40.2241 34.688L41.6321 40.832L46.4961 42.368L51.3601 40.064L56.7361 40.448L58.1441 41.6L60.8321 41.472L63.6481 40.064H67.7441L74.5281 37.12L79.6481 36.736L80.5441 35.84L102.816 35.2L104.224 37.632L106.4 38.656L107.552 41.344L103.968 49.92V51.584L102.048 54.144L100.384 59.392L100.64 61.056L102.944 61.184L103.968 62.592L103.072 63.616L103.456 64.896L102.56 67.84L103.968 95.36L64.6721 96L23.3281 95.104L21.7921 93.312L21.1521 89.856L21.6641 85.376L20.0001 82.432L21.6641 79.36L22.6881 75.008L23.2001 74.624L23.3281 75.776L24.3521 73.856L25.1201 74.496L24.7361 72.832L23.2001 74.368L24.6081 70.528L25.2481 69.248L26.1441 69.632L25.5041 69.12L24.7361 69.632L26.0161 60.672L26.5281 58.88L27.0401 59.136L26.4001 58.368L26.9121 55.936H27.4241L26.9121 55.552V52.736L28.0641 47.872L27.9361 45.184L28.8321 44.032L28.3201 43.52L28.5761 41.984L28.8321 43.008L29.4721 42.752L28.5761 41.6L29.4721 39.936L28.8321 40.192L28.3201 38.784L28.4481 36.096L29.0881 34.816L28.5761 32L30.3681 32.896L30.4961 33.792L30.7521 33.28L29.9841 32.512L30.8801 32.384L31.6481 32.64L33.6961 32L34.7201 33.28L35.7441 33.408L37.0241 32.896Z" fill="#BFBFBF"/>
</svg>
