<svg width="98" height="98" viewBox="0 0 128 128" fill="none" xmlns="http://www.w3.org/2000/svg">
<path d="M55.8081 113.864L53.2481 114.12L52.2241 113.224L51.8401 111.816L52.6081 109.256L54.7841 108.104V105.16L56.3201 105.672V109.384L57.8561 112.456L55.8081 113.864ZM71.4241 77.768L70.7841 77L70.9121 72.904L72.4481 71.368L71.4241 70.344L72.8321 64.456L74.6241 65.48V68.936L73.4721 75.592L71.4241 77.768ZM85.1201 73.416L85.5041 74.568L82.6881 73.672L79.4881 77.512L77.8241 77L75.6481 78.92L74.8801 78.408L75.3921 75.976L78.9761 73.928L77.5681 70.856L78.9761 67.912V65.48L81.5361 62.408L82.5601 58.184L86.7841 54.6L85.5041 60.744L85.1201 73.416ZM95.2321 71.752L89.8561 76.872L88.5761 72.904L89.0881 70.856L87.6801 61.256L87.9361 56.264L89.0881 52.552L94.7201 54.6L93.6961 60.744L94.7201 62.408L95.2321 71.752ZM73.0881 27.208L76.5441 27.848L76.0321 38.6L77.8241 40.52L82.5601 44.232L85.1201 48.712L84.7361 52.296L82.5601 54.088L79.7441 54.728L78.9761 51.784L81.0241 44.232L79.7441 43.592L78.9761 47.432L76.6721 46.152L74.8801 44.616L73.4721 39.24L71.8081 36.168V45L73.7281 47.176L74.4961 48.584L72.4481 52.68L70.9121 51.144L68.9921 50.504L66.8161 52.552L68.9921 53.704L70.4001 58.184L69.8881 60.36L66.9441 64.712L68.8641 68.936L68.9921 74.824L68.8641 77L63.3601 88.648L62.4641 89.032L58.3681 87.624L54.4001 87.88L39.5521 93.128L32.0001 94.536L33.0241 86.088L34.1761 83.528L35.2001 83.016L36.2241 71.368L36.0961 13.64L72.0641 13L73.0881 27.208Z" fill="#BFBFBF"/>
</svg>
