<svg width="98" height="98" viewBox="0 0 128 128" fill="none" xmlns="http://www.w3.org/2000/svg">
<path d="M105.784 83.096V81.944L106.296 81.432V81.944L105.784 83.096ZM28.2161 15.512L61.6241 17.176L61.8801 19.864L64.8241 18.456L68.5361 23.064L68.6641 27.288L97.4641 28.056L125.624 55.704L124.856 55.96L125.624 56.984L120.76 59.16L116.28 63.256L111.416 70.424L110.136 76.568L109.368 74.136L107.96 73.624L109.88 69.656L108.984 70.68L107.192 74.136L110.136 77.72L109.24 79L107.96 78.232V79.512L106.296 78.488L107.448 80.024L105.528 81.432L105.016 82.968L102.328 83.608L101.56 82.2L99.8961 82.968L98.8721 85.4L99.3841 86.04L100.408 85.4L99.8961 86.04L93.7521 91.032L91.5761 89.752L91.9601 88.088H90.5521L91.0641 90.264H90.0401L92.7281 91.544L92.4721 92.696L90.5521 94.232L88.6321 94.488L89.0161 95.64L84.6641 96.92L82.4881 95.128L83.8961 97.176L80.6961 99.608L79.8001 98.072L79.0321 99.864L75.0641 97.176L75.3201 98.584H71.6081L71.4801 99.352L76.8561 99.864L73.9121 100.504L77.3681 101.528L75.0641 103.704L78.0081 101.784L77.1121 104.472L72.6321 106.392L72.1201 100.376H71.4801V105.24L69.4321 103.448L68.6641 99.352L66.7441 97.816L68.5361 104.728L71.4801 107.928L67.7681 111.128L68.9201 108.184L68.6641 106.904L65.9761 113.56L63.0321 111.896H61.1121L58.9361 108.696L59.7041 104.728L57.9121 99.608L52.5361 95.128V91.544L50.1041 85.912L49.5921 82.456L43.1921 78.744L42.9361 77.08L41.0161 75.544L41.2721 74.136L39.0961 72.344L38.8401 68.888L35.6401 65.688L32.6961 64.536L30.2641 59.416L22.5841 53.528L21.6881 50.84L18.7441 47.128L15.5441 38.296L10.8081 37.016L7.73612 33.432L3.00012 30.232L4.28012 26.776L9.40012 21.4L18.7441 19.352L20.4081 17.688L26.8081 16.28L27.8321 15L28.2161 15.512Z" fill="#BFBFBF"/>
</svg>
