<svg width="98" height="98" viewBox="0 0 128 128" fill="none" xmlns="http://www.w3.org/2000/svg">
<path d="M96.7292 50.4846L124 49.4949L123.405 54.0478L121.025 54.5427L118.744 58.0068L116.86 57.413L112.001 60.8771L111.208 59.1945L108.827 61.471L107.241 61.0751L106.348 63.9454L103.77 64.4403L99.5058 67.8055L93.9525 68.9932L92.2667 70.3788L91.3742 73.1502L88.4983 73.645L88.0025 77.7031L54.7817 78L5 76.4164L8.57 74.2389L7.975 70.3788L10.95 67.6075L10.5533 64.4403L13.7267 62.8567L13.33 61.471L14.52 61.9659L14.0242 59.3925L15.4125 57.5119L14.3217 55.7304L16.2058 55.6314L15.3133 54.2457L16.6025 53.5529L16.4042 51.6724L17.2967 52.6621L18.09 51.6724L37.0308 52.2662L36.9317 49L40.0058 49.8908L96.7292 50.4846Z" fill="#BFBFBF"/>
</svg>
