<svg width="98" height="98" viewBox="0 0 128 128" fill="none" xmlns="http://www.w3.org/2000/svg">
<path d="M89.6081 109.248L89.3521 105.92L89.6081 105.664L89.9921 105.536L92.2961 116.8L89.6081 109.248ZM91.0161 102.08L89.6081 105.28L91.0161 100.8L92.8081 98.112L91.5281 100.8L91.0161 102.08ZM93.9601 95.552L94.3441 95.424V96.32L93.0641 98.112L93.9601 95.552ZM95.6241 94.4L94.3441 95.808L95.2401 94.4L98.4401 92.992L95.6241 94.4ZM99.4641 91.84L100.232 91.328L98.8241 91.968L99.4641 91.84ZM113.032 81.472L110.216 84.16L112.392 81.856V81.472H113.032ZM63.7521 8L63.8801 28.224L67.2081 30.144H69.1281L69.5121 29.632L71.5601 31.808L76.4241 32.576L77.1921 33.728L80.6481 32.576L82.3121 35.136L84.4881 34.112L86.5361 35.904L88.5841 34.624L89.0961 36.672L91.0161 34.24L92.2961 35.136L93.5761 34.624L96.3921 36.288L99.8481 34.24L101 34.624L102.792 33.856L104.712 34.24L105.736 33.088L113.416 37.056L116.488 36.672L117.512 53.184L119.688 55.104V57.28L123.272 62.784L121.352 67.776L122.12 73.024L120.2 75.584L120.968 76.992L119.176 77.504L113.032 81.472L113.416 79.936L115.72 79.04V78.784L112.392 79.424L112.904 76.992L111.752 77.888L110.216 77.504L111.496 80.704L112.392 81.472L109.832 83.136V84.416L107.528 86.72L102.792 89.024V89.152L104.712 88.512L100.232 91.328L102.28 89.152L100.232 90.048L101 89.536L100.488 89.024L98.8241 89.536L98.4401 88.64L98.0561 88.512L98.5681 89.536L98.4401 90.048L97.8001 90.688L98.0561 89.536L96.3921 89.024L97.8001 91.072L97.1601 91.84L98.4401 91.968L96.3921 93.12L95.1121 91.84L95.2401 94.016L94.0881 95.168L93.5761 95.424L93.9601 93.632L93.5761 95.424L93.0641 94.272L91.5281 95.168L91.9121 96.704L93.0641 95.552L91.5281 98.496L88.3281 98.112L91.0161 100.16L89.3521 104.256L88.3281 104.64L88.8401 103.104L87.6881 104.384L86.2801 102.592L87.4321 104.384L86.2801 104.64H89.3521L88.3281 107.456L89.0961 108.48L88.3281 109.248L91.0161 116.672L92.1681 116.8L91.9121 117.696L92.2961 117.312L92.8081 117.952L91.0161 118.848L90.7601 120L87.8161 117.696L82.8241 117.44L76.5521 114.624L73.9921 114.368L72.7121 110.144L70.4081 107.456L69.7681 101.696L66.6961 100.16L64.3921 96.32L62.4721 94.4L58.7601 85.568L53.6401 80.704L52.6161 80.96L51.7201 78.784L45.0641 78.4L43.5281 77.76L42.7601 78.784L40.2001 79.04L38.6641 84.416L35.9761 87.36L33.8001 86.848L23.9441 80.192L19.7201 69.568L15.8801 67.136L5.51209 56L5.00009 54.208L36.8721 55.488L38.2801 8H63.7521Z" fill="#BFBFBF"/>
</svg>
