<svg width="98" height="98" viewBox="0 0 128 128" fill="none" xmlns="http://www.w3.org/2000/svg">
<path d="M104.523 98.5692V98.7846H104.2L104.415 98.5692H104.523ZM103.23 98.8923V99V98.8923ZM104.2 98.7846L104.092 98.8923V98.7846H104.2ZM105.924 98.0308H105.816L105.924 97.8154V98.0308ZM106.14 97.8154L106.032 98.0308L106.14 97.7077V97.8154ZM106.463 97.6H106.571H106.463ZM106.786 97.4923V97.3846V97.4923ZM106.894 97.3846V97.1692V97.3846ZM104.631 98.2462L104.739 98.4615L104.523 98.5692L104.631 98.4615H104.739L104.631 98.2462ZM105.385 98.2462L105.493 98.1385L105.385 98.2462ZM104.846 98.2462H104.739H104.846ZM105.385 98.1385H105.17H105.385ZM105.17 98.2462V98.4615L104.846 98.0308L105.062 98.1385L105.17 98.2462ZM105.601 96.4154V96.3077V96.4154ZM107.648 95.6616V95.3385V95.4462V95.6616ZM107.433 96.4154L107.002 97.1692L107.433 96.2V96.0923L107.648 95.9846L107.433 96.4154ZM107.648 94.9077V94.8V94.9077ZM89.6502 84.0308L88.0336 84.4615H87.9258L89.3269 84.0308H89.7579H89.6502ZM100.643 90.7077H100.535H100.643ZM64.1078 93.1846L64.4311 92.5385L64.5389 92.4308V92.5385L64.1078 93.1846ZM65.8321 91.5692L65.9399 91.4615L66.1555 91.2462L65.8321 91.5692ZM105.385 88.0154L105.17 87.9077L105.385 88.0154ZM65.6166 91.7846L64.97 92.2154L64.5389 92.5385L64.7544 92.2154L65.6166 91.5692V91.7846ZM105.17 86.9385L105.062 87.3692L105.17 87.9077L104.846 87.2615L105.17 86.9385ZM99.8887 87.3692H99.9965H99.8887ZM99.8887 87.3692V87.2615H99.9965L99.8887 87.3692ZM79.3039 88.9846H79.4117H79.3039ZM79.9505 88.7692V88.9846H79.6272L79.9505 88.7692ZM80.5972 88.7692H80.3816H80.5972ZM80.9205 88.7692H80.8127H80.9205ZM69.6042 88.7692H69.712L68.742 89.4154L69.4965 88.7692H69.6042ZM81.5671 88.2308L81.6749 88.0154V88.2308H81.5671ZM80.3816 88.3385V88.2308H80.5972L80.3816 88.3385ZM81.7827 88.0154H81.6749H81.7827ZM81.2438 87.5846H81.5671V87.6923L81.2438 87.5846ZM83.5071 87.3692L83.6148 87.2615V87.3692H83.5071ZM83.7226 87.2615L83.8304 87.0462L83.7226 87.2615ZM104.631 95.0154H104.415V94.9077L104.631 95.0154ZM104.415 94.9077V95.0154H104.2V94.9077H104.415ZM104.092 94.9077V95.0154V94.9077ZM103.769 94.9077V95.0154L103.661 94.9077H103.769ZM102.367 93.5077H102.691H102.26L102.044 93.4L102.367 93.5077ZM102.367 93.4L102.044 92.9692H102.26L102.367 93.4ZM100.859 91.2462L100.535 91.0308L100.859 91.2462ZM63.8922 98.1385L63.3534 96.2V95.3385V95.0154V95.7692L63.8922 98.1385ZM101.936 93.1846V92.9692V93.1846ZM101.829 92.8615V92.9692V92.6462V92.8615ZM63.7844 93.8308L63.5689 94.2615L63.3534 95.0154L63.5689 93.8308H63.7844L64.1078 93.2923L63.7844 93.8308ZM107.002 90.6L106.571 90.0615L105.924 88.9846L106.14 89.3077L107.002 90.6ZM101.936 81.2308L101.829 80.9077L101.936 80.5846V81.0154V81.2308ZM77.0406 87.9077H76.8251L76.5018 87.6923L76.7173 87.3692L77.1484 87.6923L77.0406 87.9077ZM94.7155 85.1077H94.6078L94.8233 85L94.7155 85.1077ZM93.53 85.5385V85.6462L93.3145 85.5385H93.4223H93.53ZM93.8534 85.6462L93.6378 85.8615L93.53 85.6462L94.6078 85.2154L93.8534 85.6462ZM84.1537 86.6154H84.0459L84.1537 86.5077V86.6154ZM83.1837 86.1846L83.3993 85.9692V86.1846H83.1837ZM83.076 86.1846L83.1837 85.9692L83.076 86.1846ZM85.1237 85L85.0159 85.1077V85H85.1237ZM83.8304 85.1077V85.2154V85.1077ZM83.6148 85.1077V85.2154L83.3993 85.1077H83.6148ZM83.3993 85.5385V85.8615L82.9682 85.6462L83.3993 85.4308V85.5385ZM83.076 86.4H83.1837V86.5077L83.076 86.4ZM82.7526 86.5077L82.9682 86.6154H82.6449L82.7526 86.5077ZM84.3693 86.2923V86.4L84.1537 85.5385L84.3693 85.8615V86.2923ZM84.9081 85.1077L84.3693 85H84.477L84.9081 85.1077ZM85.9859 84.8923L85.447 85L85.9859 84.8923ZM112.822 66.3692L112.498 66.6923V66.3692L113.037 66.0462L112.822 66.3692ZM113.468 65.9385L113.037 66.0462L113.468 65.6154L113.145 64.4308L113.468 64.8615L113.576 65.5077L113.468 65.9385ZM112.929 64.2154L112.606 64H112.822L112.929 64.2154ZM112.175 66.9077L112.39 66.6923H112.498L112.39 66.8L112.175 66.9077ZM8.60424 71.1077V71.2154L8.38869 71.1077H8.49647H8.60424ZM111.528 68.0923L111.205 67.9846L111.528 68.0923ZM109.696 68.7385L109.373 69.0615L109.265 69.3846V69.1692L109.588 68.8462L109.696 68.7385ZM108.834 70.0308V70.1385V70.2462V70.0308ZM108.726 70.7846V71H108.618V70.8923L108.726 70.7846ZM9.25088 71.4308L9.35866 71.5385L8.92756 71.6462L8.81979 71.2154L9.25088 71.4308ZM10.0053 73.6923L10.2208 73.8L10.3286 73.9077L9.89753 73.6923H10.0053ZM9.78975 71.4308H10.3286L10.5442 71.5385L9.78975 71.6462L9.46643 71.2154L9.78975 71.4308ZM105.924 73.9077V73.8V73.9077ZM12.5919 75.4154L12.2686 75.3077L12.1608 74.7692H12.2686L12.5919 75.4154ZM12.8074 73.8L13.023 74.0154H12.5919V73.6923L12.2686 73.5846L12.8074 73.8ZM111.636 68.0923L111.744 67.6615L112.175 67.0154L111.744 67.6615L111.636 68.0923ZM111.205 67.9846L110.774 68.0923L110.235 68.3077L110.666 68.0923L111.097 67.9846H111.205ZM113.576 53.2308V53.3385L113.792 52.6923V52.9077L113.576 53.2308ZM113.468 53.7692H113.253L113.576 53.4462L113.468 53.7692ZM122.845 36.9692H122.737V37.2923L122.413 37.1846L122.629 36.6462L122.845 36.9692ZM122.198 37.4V37.5077L121.875 37.6154V37.4H122.198ZM121.875 38.0462H121.659L121.551 37.8308L121.875 37.9385V38.0462ZM121.336 45.9077L121.551 46.2308L121.012 46.3385L121.336 46.2308V45.9077ZM120.474 46.2308H120.258L120.474 46.0154V46.2308ZM120.042 46.0154L120.258 46.2308L119.827 46.4462H119.611L120.042 46.0154ZM118.426 46.4462V46.3385V46.2308L118.534 46.3385L118.426 46.4462ZM118.641 46.3385L118.534 46.4462L118.641 45.9077V46.0154V46.3385ZM121.336 45.5846V45.2615V45.5846ZM101.613 45.8V46.0154L101.398 45.9077L101.29 45.8H101.613ZM106.571 42.0308V42.1385V41.8154V42.0308ZM106.786 41.1692L106.571 41.3846V41.1692H106.786ZM107.002 40.8462V41.0615L106.894 41.1692L106.786 41.0615L107.002 40.8462ZM66.2632 32.4462L66.6943 32.6615V32.9846L66.371 33.0923L66.2632 32.4462ZM83.7226 41.8154H83.8304V42.1385H83.7226V41.8154ZM85.8781 42.5692H85.7703V42.2462L85.8781 42.4615V42.5692ZM86.2014 41.6L85.9859 41.7077V41.4923V41.6H86.2014ZM85.5548 42.8923V42.7846H85.7703L85.5548 42.8923ZM83.6148 42.2462L83.7226 42.4615H83.6148V42.7846L83.1837 43.6462L82.9682 43.2154L83.6148 42.2462ZM90.6201 39.3385L90.5124 39.6615L89.9735 39.4462L90.189 39.2308V39.0154L90.6201 39.3385ZM89.2191 38.8H89.1113V38.6923L89.2191 38.8ZM89.2191 38.6923L88.788 38.2615L89.0035 38.0462H89.2191V38.6923ZM84.0459 38.9077H84.1537H83.8304V38.6923L84.0459 38.9077ZM86.5247 41.0615H86.417L86.5247 40.6308H86.6325L86.5247 41.0615ZM88.788 39.6615L89.0035 39.7692L88.788 39.6615ZM89.0035 40.2L88.788 40.3077L88.5724 40.2L88.788 40.0923L89.0035 40.2ZM86.6325 40.4154H86.5247V40.3077L86.6325 40.4154ZM7.74205 35.4615V35.2462V35.1385V35.2462V35.4615ZM75.6396 38.9077L75.424 39.0154L75.7473 38.6923L75.9629 38.8L75.6396 38.9077ZM75.9629 38.5846H75.6396L75.9629 38.3692V38.5846ZM11.1908 32.9846H10.9753L11.1908 32.4462L11.2986 32.6615L11.1908 32.9846ZM75.6396 38.5846H75.424V38.3692L75.6396 38.5846ZM10.3286 33.8462L10.2208 33.6308H10.3286V33.8462ZM81.5671 36.5385L80.9205 36.6462L81.0283 36.8615L80.5972 37.2923L80.2738 37.9385L80.1661 37.6154H80.2738V37.4L80.1661 37.5077H79.8428V37.2923L80.3816 36.6462L81.3516 36.4308L81.5671 36.5385ZM76.1784 38.2615H76.0707L76.1784 38.0462V38.2615ZM10.6519 34.0615H10.5442L10.6519 33.8462V34.0615ZM75.1007 38.5846V38.3692H75.2085L75.1007 38.5846ZM11.2986 33.4154L10.9753 33.6308L11.1908 33.2H11.2986V33.4154ZM79.6272 34.7077L79.5194 35.1385L78.8728 35.5692H78.9806L78.4417 35.7846L78.5495 35.4615L79.6272 34.7077ZM11.1908 31.6923H10.9753V31.5846L11.1908 31.6923ZM11.4064 30.6154L11.6219 31.0462H11.1908L11.4064 31.2615L11.2986 31.8L11.4064 31.5846L11.7297 31.8L11.6219 32.0154L11.2986 31.8V31.3692L10.9753 31.0462L11.4064 30.6154ZM11.6219 30.1846L11.4064 29.8615L11.6219 29.9692V30.1846ZM10.7597 30.2923V30.4L10.5442 30.2923V29.9692L10.7597 30.2923ZM11.1908 29.8615L11.2986 29.9692L11.1908 30.1846L10.9753 29.8615V30.1846L10.7597 29.9692L10.9753 29.6462L11.1908 29.8615ZM10.8675 29H10.7597H10.8675ZM10.9753 30.4V30.5077L10.8675 30.4L10.9753 30.1846V30.4ZM11.2986 30.2923V30.1846L11.4064 30.2923H11.2986ZM118.21 47.4154H118.102L118.21 47.2V47.3077V47.4154ZM117.24 47.3077L117.348 47.2L117.24 47.3077ZM114.977 49.7846L114.654 49.8923L114.438 50L114.869 49.7846H114.977ZM115.3 49.7846L114.977 49.8923V49.7846L115.947 49.1385L115.3 49.7846ZM113.253 50.1077V50.2154L113.037 50.6462V50.2154L113.253 50.1077ZM116.809 47.8462L116.055 48.7077L116.594 48.6L116.701 48.1692H117.133V48.0615L117.24 48.1692L117.671 47.7385L115.947 49.1385L116.27 49.0308L114.007 50.1077L114.33 50L113.792 50.2154L113.899 50L113.468 50.2154L113.253 50.1077L113.468 49.7846L113.899 49.5692V49.2462L114.007 49.4615V49.1385L116.055 48.4923L116.809 47.8462ZM92.9912 50V49.7846V49.8923V50ZM112.606 57L112.498 56.7846L112.39 56.8923L112.498 57.1077L112.067 57.8615L111.852 59.5846L111.528 59.8V60.6615V60.4462L111.42 60.7692L111.205 60.4462V59.5846L111.42 59.2615V58.8308L111.636 58.6154L111.42 58.5077L111.636 58.4L111.097 58.5077L111.205 57.9692H110.774L110.989 57.6462H110.774V57.2154L110.666 57.6462V57.4308L110.451 57.8615L110.127 57.4308V57.6462L109.696 57.2154H109.804L110.019 57H109.804L109.696 56.8923H110.235L110.343 56.5692L110.235 56.7846L109.696 56.4615L109.588 56.7846V56.2462L110.019 56.4615L109.804 56.1385L110.019 56.0308L109.696 55.8154L109.373 56.1385V55.7077H109.804L110.019 55.3846L109.696 55.7077L109.373 55.3846L109.588 54.8462L110.235 54.6308H109.804L110.019 54.3077H110.235L110.127 54.2V53.9846L109.804 54.3077L110.019 53.9846L109.696 54.2V54.4154L109.373 54.7385V54.4154L109.265 54.8462V54.7385H108.942L109.049 54.8462L108.942 55.0615L109.049 55.1692L108.834 55.0615L109.049 55.3846H108.618L108.942 55.4923L109.049 55.7077H108.942H109.265H108.834L109.265 56.0308H108.942L109.049 56.1385V56.5692L109.696 57.6462L108.942 57.4308L108.834 56.8923L108.942 57.2154L109.049 57.5385L109.696 57.8615L110.019 58.4L109.588 58.1846V58.4L109.265 58.1846H108.834L108.618 57.6462V58.1846L108.187 57.5385L107.864 57.9692H107.648V57.4308L107.972 57V56.4615H107.864L107.972 56.8923L107.541 57.1077V58.1846H107.864L108.187 57.8615L108.618 58.2923H109.373L109.588 58.6154L110.235 58.8308V59.0462L110.127 58.9385L110.235 59.6923L109.804 59.5846V59.6923L108.618 58.6154L108.295 58.5077H108.187L108.618 58.6154L109.804 59.6923L110.343 59.8L110.127 59.9077H110.451V60.4462L110.127 60.2308L110.343 60.6615H110.127L109.265 60.0154V60.2308L110.019 60.7692H110.343L110.666 61.3077L110.343 61.4154L109.804 60.9846L109.588 61.0923L109.265 60.7692L109.049 61.0923L108.834 60.7692L108.295 60.9846H108.834L108.942 61.0923L109.588 61.2L109.696 61.0923L109.804 61.3077L110.235 61.6308V61.8462L110.451 61.7385H110.774L110.666 61.4154H111.42L111.852 62.3846L112.39 63.1385L113.145 64.2154L112.606 63.8923L111.636 62.0615V62.4923L111.744 62.3846L111.852 62.6L111.528 62.4923L111.636 62.6L111.744 62.8154L111.852 63.0308V62.7077L112.39 63.7846L111.852 63.1385L112.067 63.4615L111.42 63.1385L111.744 63.5692L111.528 63.7846L111.205 63.5692L111.42 63.8923L110.774 63.7846L111.205 63.8923L110.666 64.2154L110.343 64.1077L110.235 63.5692L110.127 63.4615L110.343 64.5385L111.097 64.2154L111.42 64.4308V64.2154L111.852 64.1077V64.5385L111.744 64.6462L112.067 64.8615L111.744 64.9692H112.067V64.2154H112.39V64L112.822 64.2154V65.1846L112.498 64.9692L112.067 65.9385L111.528 65.8308V65.9385L111.42 65.6154L111.205 65.9385L110.989 65.6154L111.205 65.5077L110.774 65.6154L110.989 65.9385L109.804 65.8308L110.127 66.0462L111.42 66.2615L110.989 66.6923L111.205 66.5846V66.6923L110.774 67.2308L110.019 66.9077L110.343 67.3385H110.989L111.097 67.0154L111.42 67.2308L111.205 67.0154H111.528V66.8V67.2308L111.744 67.0154V66.9077H111.852V67.3385L111.528 67.7692L111.205 67.6615L111.42 67.9846L111.097 67.6615L110.989 67.9846H111.097L110.235 68.2L110.127 68.0923V68.2L109.804 68.6308H109.588L109.696 68.4154L109.373 68.2L109.696 68.4154L109.588 68.6308L109.696 68.7385L109.373 69.0615L108.942 69.6L108.726 70.7846V70.1385L108.618 70.0308V70.8923H107.648L106.894 71.5385L106.14 72.6154V73.2615L105.924 73.0462L106.032 72.6154L105.924 72.9385V73.2615L106.14 73.3692L106.032 73.6923L105.924 73.5846L106.032 73.6923L105.924 73.8V73.9077L105.385 74.0154L105.493 74.3385L104.846 74.9846L104.631 74.6615V74.9846L104.846 75.0923L104.631 75.3077L104.2 75.6308L103.984 75.4154L104.092 75.6308L103.984 75.8462L103.337 75.7385L103.122 75.8462H103.445L103.23 76.0615H103.661L103.337 76.3846L103.661 76.1692V76.3846L103.23 76.6L103.122 76.0615V76.4923H103.014L102.799 76.0615L102.583 75.8462L102.799 76.4923L103.23 76.7077L103.014 77.1385V76.8154V76.7077L102.691 77.2462L103.014 77.4615L102.691 77.5692V77.8923H102.26V78H102.583L102.367 78.2154H101.936L102.044 78.4308V78.5385H102.367V78.8615L102.044 78.5385L102.26 78.6462L101.936 78.8615L102.044 79.1846L102.367 78.8615L102.044 79.4L101.936 79.2923L102.044 79.5077H101.721L102.26 79.6154L101.936 80.0462L101.829 79.9385L101.721 80.2615H101.936V80.3692L101.721 80.2615L101.936 80.5846L101.721 80.6923H101.936L101.829 80.9077L101.936 81.3385H102.044V81.7692L101.936 81.6615V81.7692L102.26 82.0923L102.799 83.6L104.092 85.6462L105.062 86.8308L105.493 87.2615L105.385 87.9077L105.924 88.9846L105.385 88.0154L105.17 86.9385H104.739V86.5077H104.523L104.846 87.6923L106.14 89.4154L106.247 89.8462L106.894 90.7077V90.6H106.571L107.002 90.7077L107.433 91.7846L107.648 94.6923V94.2615L107.433 95.0154V96.3077H106.894L106.571 96.6308H106.14L105.601 96.8462L105.385 96.6308V96.4154L105.493 96.3077L105.601 96.4154H105.924L105.816 96.6308L106.032 96.4154L105.385 96.2L104.631 95.0154L103.984 94.8L103.661 94.9077L103.769 94.6923L103.337 94.5846L103.122 93.5077L102.691 93.4L103.122 92.6462L102.583 93.4L102.26 92.2154L102.583 92L102.044 92.2154L101.721 92.1077L102.044 92.5385H101.721L100.859 91.1385L100.428 91.0308V90.8154L100.535 91.0308V90.7077L100.643 90.8154L100.535 90.7077H100.643L101.182 89.8462L100.966 89.6308L100.643 89.8462V89.6308L100.32 89.3077L100.428 89.4154L100.212 89.6308L100.535 89.7385L100.428 90.3846L99.9965 90.0615L100.32 90.1692V90.4923L99.9965 90.0615L100.212 88.2308L99.9965 86.9385L99.4576 86.2923H98.9187L97.7332 85.4308V85L97.4099 84.8923L96.9788 84.4615L96.1166 84.0308H95.5777L95.0389 84.4615L95.2544 84.5692L94.9311 84.4615L95.3622 84.5692V84.7846H95.2544H94.9311L94.1767 85.4308V85.1077L93.8534 85.4308L92.9912 85.6462L92.8834 85.5385L92.7756 85.2154L92.9912 85.6462L92.8834 85.1077L92.0212 84.4615L92.5601 84.7846L92.7756 84.5692L92.5601 84.7846L92.4523 84.4615L92.2367 84.5692L91.9134 84.2462L92.129 84.0308V83.8154L91.9134 84.1385L91.8056 84.0308L91.4823 84.1385L91.9134 84.5692L90.8357 84.1385L89.7579 84.0308L90.5124 83.8154H90.7279L90.5124 83.6L90.0813 83.7077L89.7579 83.6L89.6502 84.0308H89.2191L88.2491 84.2462L89.0035 84.0308L88.5724 83.8154L88.6802 83.7077L88.5724 83.6L88.3569 84.0308L88.0336 83.7077L88.2491 84.0308L87.818 84.4615L87.3869 84.5692L87.818 84.1385L87.6025 84.0308V84.4615H87.1714L87.2791 84.7846H87.1714L86.2014 85L86.8481 84.7846L86.5247 84.2462H86.417L86.3092 83.8154L85.9859 83.4923L85.8781 84.7846L85.2314 84.4615L85.0159 84.7846L84.8003 84.5692L84.3693 84.7846L83.8304 84.5692H83.7226H84.0459L83.1837 85L82.9682 84.8923L82.6449 85.4308L82.3215 85.5385L80.8127 85L80.2738 85.5385L80.3816 85.8615L80.9205 85.9692L81.3516 85.8615L81.6749 85.5385L81.9982 85.6462V85.5385V85.6462L82.2138 85.5385L82.106 85.8615L81.7827 85.9692L82.2138 86.4L82.6449 85.6462H82.9682L82.7526 85.9692H82.9682L82.7526 86.1846L83.076 86.2923V86.5077H82.9682L82.6449 86.4L82.3215 86.6154L82.7526 86.9385L82.2138 86.8308L82.3215 86.9385L82.106 87.0462L82.6449 87.5846V87.6923H83.1837H83.076L83.5071 87.8V87.6923L83.7226 88.0154L84.0459 88.2308H83.8304H84.0459L83.7226 88.6615L83.5071 88.3385L83.076 88.9846L83.3993 88.2308L83.1837 88.4462L82.9682 88.0154H82.4293V87.8L81.9982 87.9077L82.106 87.8L81.9982 87.5846H81.6749L81.0283 87.2615L80.9205 87.5846L81.5671 87.6923V88.0154L81.0283 88.6615L80.9205 88.2308L80.7049 88.0154L80.5972 88.3385L80.3816 87.9077V88.2308H80.1661L79.9505 88.6615L79.6272 88.7692L79.4117 88.4462V88.6615L78.2261 88.3385L78.4417 88.0154L78.765 88.4462L78.8728 88.3385L78.4417 87.8V87.3692L78.2261 87.8L77.9028 87.5846L77.5795 87.6923L77.364 87.0462L76.8251 87.2615V86.9385L75.9629 87.0462L76.0707 87.3692L76.1784 87.2615V87.5846H76.5018L75.7473 87.8L74.7774 87.6923L73.3763 87.2615L71.8675 87.5846L71.7597 87.2615H71.9753L72.1908 86.8308H71.8675L71.5442 87.2615L71.8675 87.6923H71.2208L69.6042 88.6615L69.712 88.3385L70.3587 88.2308V88.0154L69.6042 88.2308L69.712 87.6923L69.6042 87.5846L69.3887 87.8L68.9576 87.6923L69.0654 87.9077V88.2308L69.3887 88.3385L69.1731 88.4462L69.4965 88.6615L68.742 89.2H68.6343L68.742 89.6308L67.6643 90.4923L66.8021 90.7077V90.8154L67.341 90.6L66.1555 91.2462L66.6943 90.8154L66.1555 91.0308L66.371 90.8154H66.1555L66.2632 90.7077L65.8321 90.8154L65.6166 90.6H65.5088L65.6166 90.8154L65.5088 91.0308L65.4011 91.1385L65.5088 90.8154L64.97 90.7077L65.1855 91.1385L65.4011 91.2462L65.2933 91.4615H65.6166L64.97 91.8923L64.7544 91.4615V91.5692H64.5389L64.7544 92.1077L64.4311 92.2154L64.2155 92.4308L64.4311 92L64.2155 92.4308L64.1078 92.1077L63.7844 92.2154L63.5689 92.5385L63.8922 92.8615L64.1078 92.5385L63.7844 93.2923L62.8145 93.1846L63.1378 93.2923V93.4L63.5689 93.6154L63.1378 94.6923L62.8145 94.8L63.03 94.6923V94.5846L62.5989 94.8L62.3834 94.3692L62.5989 94.8L62.3834 94.9077H63.1378L63.03 95.6616H62.8145L63.03 96.0923L62.8145 95.9846V96.0923L63.03 96.2L63.3534 97.0615H63.1378L63.4611 97.4923L63.5689 98.1385L63.8922 98.2462L63.7844 98.4615L64 98.2462V98.5692L63.4611 98.7846V99L62.5989 98.4615L61.1979 98.2462L60.659 97.8154H60.0124L59.689 97.4923L58.9346 97.3846L58.5035 96.2L57.9647 95.4462L57.8569 94.0462L56.9947 93.5077L56.4558 92.4308L55.8092 92.1077L55.7014 91.4615L55.0548 90.1692L54.947 89.7385L54.0848 88.6615L53.6537 88.4462L53.5459 88.2308L53.3304 88.3385L53.0071 87.8L51.3905 87.6923L50.8516 87.3692L50.7438 87.8H49.8816L49.4505 88.9846V89.3077L49.1272 89.4154L48.6961 89.8462L48.1572 89.7385L47.1873 89.0923L46.5406 88.9846L45.3551 87.9077L44.924 87.0462L45.1396 86.4L44.3852 85.1077L43.4152 84.4615L42.0141 82.8462L41.4753 82.4154L41.0442 81.6615L36.7332 81.3385L36.5177 82.6308L29.6201 82.0923L20.7827 77.5692L21.2138 77.0308L15.394 76.7077L15.1784 76.3846L15.5018 76.4923V76.3846L15.1784 76.1692V75.2L14.8551 74.3385L13.5618 72.9385L13.023 72.8308L12.8074 71.9692H12.1608L11.4064 71.5385L11.1908 71L10.5442 70.4615L8.49647 70.0308L8.06537 69.6L8.38869 67.9846L7.9576 67.6615L8.06537 67.0154L7.20318 66.2615L6.98763 65.2923L6.34099 64.2154L6.12544 63.4615L6.55654 63.2462L6.66431 62.7077L6.55654 62.3846L6.12544 62.1692L5.69435 61.7385L5.37102 60.4462L5.58657 59.8H5.80212V60.3385L6.44876 60.9846H6.55654L6.34099 59.9077L6.12544 59.8V59.5846L6.01767 59.3692L6.12544 59.2615L6.44876 59.0462L6.55654 59.2615L7.5265 59.5846L7.84982 59.2615L8.06537 59.6923L7.84982 59.2615L7.41873 59.3692L7.74205 59.0462L7.09541 59.2615L6.98763 58.9385L6.55654 59.2615L6.12544 58.8308H5.80212V59.5846L5.69435 59.6923L4.93993 58.6154L4.61661 58.9385L4.93993 58.2923L5.15548 58.6154L4.72438 57.6462L3.64664 56.0308L3.75442 55.4923V54.7385L3.86219 53.9846L3.75442 52.9077L3 52.0462V51.5077L3.53887 50.8615L3.64664 50.9692L3.96996 50.5385L3.64664 50.6462L3.96996 50.1077V49.7846L4.40106 48.8154V48.1692L4.18551 47.8462L4.40106 47.3077L4.18551 46.9846V46.2308L4.40106 45.3692L4.18551 44.8308L4.93993 43.5385L5.0477 43.6462L5.26325 43.4308L5.37102 43.5385V43.2154L5.0477 43.4308L5.37102 42.8923L5.69435 42.7846H5.58657L6.01767 41.0615L6.34099 40.7385L6.12544 40.6308L6.44876 40.3077V39.6615L7.09541 37.8308V37.9385H7.20318L7.09541 37.6154L7.41873 37.4H7.20318L7.09541 37.1846L7.5265 36.4308L7.41873 36L7.84982 36.2154L7.74205 36.1077H7.9576H8.49647L8.81979 36.4308H9.14311H8.81979L8.49647 36L8.06537 35.8923L7.20318 35.7846L7.5265 34.7077L7.74205 35.5692V35.4615H7.84982V34.8154H8.17314L7.5265 34.6V34.0615L7.84982 34.3846L7.74205 34.1692L8.17314 34.0615L7.74205 33.6308L7.5265 33.8462V31.9077L7.09541 30.9385L7.20318 29.8615L8.60424 30.8308L10.0053 31.2615L10.3286 31.0462L10.5442 31.5846L10.6519 31.3692L10.7597 31.6923V31.3692H10.9753L10.8675 31.5846L11.1908 32.0154L10.6519 32.4462V32.0154V32.3385L9.78975 33.2L9.89753 33.3077L10.5442 33.2H9.89753L10.3286 32.6615H10.7597L11.1908 32.2308V31.9077L11.2986 32.4462H11.1908L10.9753 32.6615V32.4462V32.9846L10.8675 32.7692L10.7597 33.0923L11.1908 32.9846V33.0923L10.8675 33.7385L10.6519 33.6308L10.8675 33.4154V33.3077L10.5442 33.8462V33.3077L9.78975 33.8462H10.2208L9.89753 34.0615L10.0053 33.8462L10.2208 34.1692L10.3286 33.8462L10.5442 34.1692L10.8675 33.8462L10.9753 33.6308L11.1908 33.7385L11.4064 33.6308V32.3385L12.053 31.9077L11.7297 31.2615L11.6219 31.3692L11.7297 31.8L11.6219 31.5846V31.2615H11.7297L11.9452 31.0462L11.6219 30.6154L11.2986 30.5077L11.4064 30.4L11.7297 30.6154L11.6219 30.2923H11.9452V29.8615H11.4064L11.2986 29.2154L11.4064 29.1077L23.3693 31.2615L35.5477 32.7692L43.4152 33.3077L50.8516 33.6308L58.3958 33.7385L65.9399 33.4154L66.1555 33.7385L66.6943 33.4154L67.2332 33.7385L67.341 34.1692L68.9576 34.3846L69.0654 34.6L70.1431 34.3846L71.2208 34.4923V34.7077H71.7597L71.9753 35.2462L72.1908 35.0308L72.5141 34.8154L73.6996 35.5692H74.2385L74.9929 35.0308L75.2085 35.4615L76.5018 35.1385L76.8251 35.5692L77.1484 35.4615H77.5795L75.3162 36.6462L72.8374 39.0154L73.1608 39.3385L74.2385 39.0154L75.3162 38.5846L75.424 38.6923L75.2085 39.4462L75.424 39.3385V39.2308L76.1784 39.4462L77.4717 38.6923L78.4417 38.3692L79.1961 37.9385L79.6272 37.2923L79.8428 37.5077L80.2738 37.9385V38.5846L80.8127 37.9385L80.5972 38.3692L80.8127 38.0462H81.5671L81.9982 38.2615L82.4293 38.9077L83.3993 38.8L83.6148 39.0154L83.7226 38.9077L84.0459 39.0154L85.0159 38.2615L86.3092 38.0462L87.3869 37.6154L87.2791 38.3692L87.818 38.5846L88.0336 38.3692L88.2491 38.5846L88.788 38.2615L89.2191 38.9077H89.0035L89.4346 39.0154L89.7579 39.4462L88.6802 39.6615H88.5724L88.2491 39.4462L88.0336 40.0923L87.6025 39.7692L86.417 39.6615L86.3092 40.0923L85.7703 40.2H85.0159L84.3693 41.3846L84.1537 41.1692L84.477 40.4154L83.8304 40.6308L83.6148 41.1692L83.5071 40.4154L83.3993 41.1692L82.4293 42.7846V43.1077L82.106 43.4308L81.7827 44.1846V44.4L81.9982 44.5077L82.4293 43.6462L82.9682 43.4308L83.1837 43.6462L82.9682 45.0462L83.076 45.3692L82.6449 46.2308L82.7526 46.7692L82.3215 48.0615L82.4293 48.7077L82.9682 49.2462V50.8615L83.6148 52.0462L84.3693 52.5846L84.8003 52.2615L85.5548 51.6154L86.2014 49.8923V48.4923L85.8781 47.7385V47.6308L85.7703 47.7385L85.1237 46.7692L85.2314 46.2308L85.1237 45.5846L85.5548 44.5077L85.447 43.6462L85.7703 43.5385V43L85.9859 42.8923H86.3092L86.6325 42.1385L86.5247 43.1077L86.6325 43.2154L86.9558 42.7846V43.2154L87.1714 42.5692V41.8154L87.9258 41.3846L87.6025 41.1692L87.818 40.4154L87.7102 40.3077L88.0336 40.2L88.6802 40.4154H89.2191L89.6502 40.8462L91.159 41.3846L91.4823 41.8154H91.159V42.0308L91.5901 42.5692V43.8615L91.3746 44.1846L91.159 44.6154L90.7279 44.9385L90.6201 45.6923L91.159 45.9077L91.5901 45.6923L91.9134 45.0462L91.8056 44.9385L92.5601 44.5077H92.8834L93.4223 45.0462L94.1767 47.3077V48.4923L93.8534 48.6V48.1692H93.6378L93.4223 48.3846V49.0308L92.9912 49.4615L92.8834 50L92.9912 50.2154L92.4523 51.1846L93.53 51.4L93.8534 51.2923L94.2844 51.4L93.4223 51.6154H94.3922L94.2844 51.5077L94.8233 51.6154L95.6855 51.2923L96.2244 51.1846L97.0866 50.4308L99.0265 49.1385L100.535 47.8462L101.829 46.4462L101.613 45.8L101.29 45.6923L101.182 45.2615L103.122 44.5077L104.2 44.6154L105.601 44.4L106.463 43.4308L106.894 43.2154L107.002 42.8923L106.571 42.4615L107.002 42.0308H106.786V41.8154L106.463 42.0308L106.247 41.7077L107.217 40.8462L107.433 40.2L108.187 39.2308L108.726 38.6923L115.731 36.9692L115.624 36.4308L115.839 36.1077H116.055L116.378 35.8923L116.701 36V35.5692L117.133 35.4615L116.809 35.2462L117.025 35.0308L117.348 34.4923L117.456 33.8462L117.24 33.2L117.456 32.4462L117.348 31.6923L118.426 29.2154H118.749L118.857 29.6462L119.18 29.8615L120.15 29H120.474L121.443 29.4308L122.629 33.0923H123.383L123.599 34.0615L124.03 34.1692L124.246 34.0615L124.677 34.4923L124.353 34.7077L124.461 35.0308L124.677 34.7077L124.784 34.8154L124.677 34.7077L125 34.8154L124.677 35.4615L124.461 35.5692L124.246 35.2462V35.7846L124.138 35.5692V35.7846H124.03V36H123.707V36.1077L123.599 35.8923V36.1077L123.383 36V36.5385L123.276 36.2154V36.5385L123.06 36.2154V36.8615L122.737 36.4308V36.5385L122.413 36.4308L122.629 36.5385L122.413 36.8615L122.198 36.5385L122.306 36.8615H121.982L122.306 37.4L121.551 37.2923L121.659 36.9692L121.551 37.1846V36.6462H121.443V36.8615L121.228 37.1846L121.336 37.2923L121.228 38.5846L121.012 38.6923V38.3692L120.797 38.5846V38.2615L120.474 39.0154L120.258 38.5846L120.474 39.0154L120.15 38.9077V38.5846L120.042 38.9077L120.15 39.3385L119.935 38.5846L119.827 38.8L119.935 38.9077L120.042 39.4462L119.827 39.0154L119.611 39.4462L119.504 39.2308L119.072 39.9846L119.396 40.0923L119.072 40.2L119.18 40.4154L118.749 41.0615V41.7077L118.641 41.6L118.534 42.5692L118.857 42.8923L119.072 43L119.18 42.7846V42.8923L118.641 43.2154L118.749 43.5385H118.641V43.8615L118.534 43.9692L118.749 44.1846L118.857 43.9692H118.749L119.18 44.1846L119.611 44.5077L119.504 44.4V44.6154H119.935L120.042 45.0462H120.581L120.474 45.2615L120.581 45.0462L121.012 44.8308V44.5077H120.905L120.797 44.2923H120.258L120.797 44.1846L121.228 44.6154L121.336 45.0462L120.258 45.5846L119.935 45.9077V45.3692H119.611L119.504 45.8H119.396V46.0154L119.072 46.2308V46.0154L118.749 46.3385L118.641 45.9077L118.749 45.5846L118.641 45.6923H118.534V45.9077V45.6923L118.21 45.5846V46.7692L117.025 47.2L116.701 47.4154L116.378 47.3077L116.594 47.4154L116.27 47.6308L115.3 47.7385L114.977 48.1692L113.899 49.0308L113.792 49.5692L113.468 49.7846L113.253 50L113.468 49.0308L113.253 48.6L113.037 48.3846L113.468 49.2462L113.253 50L113.037 50.2154L112.929 50.6462L113.576 50.8615V50.5385L113.792 51.1846L113.899 52.5846H113.792V51.9385V51.8308V52.8L113.468 53.3385H113.253V53.6615H113.145V53.7692L113.253 53.9846L112.929 54.2H113.145L112.822 55.1692L112.498 55.3846V54.6308L111.852 54.7385L110.774 54.0923L110.666 53.7692L110.989 53.2308L111.528 52.8L111.636 52.3692L111.42 52.8L110.989 53.0154L110.666 53.7692L111.636 55.6L112.39 55.8154V56.1385L112.175 56.0308L112.39 56.2462L112.175 56.4615L112.498 56.2462L112.606 57ZM118.857 46.2308V46.0154V46.2308ZM118.534 45.6923H118.426H118.534ZM118.102 45.2615V45.3692V45.2615ZM118.102 45.3692H118.21H118.102ZM118.21 45.3692V45.5846V45.3692ZM105.385 91.0308L104.739 91.7846L105.385 92.2154H105.816L105.924 91.4615L105.816 91.1385L105.385 91.0308ZM118.21 45.5846L118.426 45.6923L118.21 45.5846ZM111.744 59.9077V59.8V59.9077ZM111.636 60.4462H111.528L111.636 60.2308V60.4462ZM112.39 58.4L112.175 58.5077L112.606 57.1077L112.39 58.4ZM110.774 58.4L110.666 58.5077V58.4H110.774ZM110.666 57.9692H110.451V57.8615L110.666 57.9692Z" fill="#BFBFBF"/>
</svg>
