<svg width="98" height="98" viewBox="0 0 128 128" fill="none" xmlns="http://www.w3.org/2000/svg">
<path d="M49.8081 35.584L49.6801 34.944L49.8081 34.816L50.0641 35.2L49.8081 35.584ZM55.1841 38.016L54.1601 36.224V34.176L55.1841 36.096V38.016ZM53.0081 33.024L51.9841 32.256L52.6241 32L53.0081 33.024ZM34.0641 16.256L71.4401 16.64V35.584L100.368 35.2L102.288 111.36L64.1441 112L26.0001 111.36L28.6881 16L34.0641 16.256ZM45.3281 23.296L43.0241 23.936L43.6641 24.704L43.0241 25.344L44.0481 29.184L43.0241 30.08L43.6641 30.336L44.5601 29.184L45.5841 30.336L46.4801 32L46.6081 35.456L48.5281 36.736L49.6801 38.784L50.4481 36.736L51.7281 41.216L52.6241 41.6L54.9281 39.936L55.8241 38.016L58.6401 36.224L56.0801 34.304L53.9041 30.464L53.0081 30.336L54.1601 29.056L56.2081 29.184L56.8481 28.16H53.6481V27.136L51.9841 26.88L52.6241 31.104L51.6001 31.744L50.3201 27.52L48.5281 27.264L47.2481 25.984L47.7601 23.296L46.6081 22.4L45.3281 23.296Z" fill="#BFBFBF"/>
</svg>
