<svg width="98" height="98" viewBox="0 0 128 128" fill="none" xmlns="http://www.w3.org/2000/svg">
<path d="M93.4161 32.584L92.1361 32.968L91.8801 35.272L89.4481 38.472L83.6881 42.952L79.8481 43.208L77.8001 46.024L77.5441 53.704L75.3681 58.568L76.0081 59.592L73.4481 63.688L72.2961 68.04L69.3521 71.112L68.4561 75.976L66.7921 78.536L66.2801 89.8L65.2561 91.976L63.8481 102.856L62.3121 104.392L61.2881 108.744L61.6721 110.792L64.1041 115.4L38.3761 114.248L37.2241 111.688L38.8881 78.536L36.8401 75.336H35.4321L33.3841 77.768L33.0001 75.976L35.1761 68.296L33.0001 55.752L34.7921 49.608L36.5841 47.56L36.3281 42.312L37.7361 38.344L35.0481 30.536L36.5841 23.24L35.1761 20.168L36.5841 16.328L36.3281 13.512L94.5681 13L93.6721 14.792L94.4401 18.248L91.2401 22.472L90.4721 25.288L93.4161 31.688V32.584Z" fill="#BFBFBF"/>
</svg>
