<svg width="98" height="98" viewBox="0 0 128 128" fill="none" xmlns="http://www.w3.org/2000/svg">
<path d="M115.273 87.98V88.66H115.16L114.707 88.2067L115.273 87.98ZM116.52 76.42H115.84L116.633 75.06V76.08L116.52 76.42ZM117.767 73.5867L117.653 73.36L118.447 72.4533L118.22 72.5667L117.767 73.5867ZM121.507 64.2933L119.24 70.98L118.447 71.66L117.767 70.64L117.2 71.4333L117.767 71.66L116.52 72.5667L115.727 77.44L115.273 76.6467L114.48 78.0067L113.573 74.9467L114.707 69.7333L116.293 68.4867L116.52 66.22L118.22 65.6533L117.2 64.52L118.56 62.7067L122.3 62.3667L121.507 64.2933ZM122.867 64.52L122.413 64.86H121.847L124 61.8L122.867 64.52ZM87.28 42.9867L88.98 39.9267L91.36 40.2667L92.9467 41.74L92.2667 43.44L95.44 44.8L98.5 47.4067V50.1267L97.14 50.92L96.9133 52.0533L96.0067 51.94L94.9867 56.1333L94.1933 55.5667L95.44 56.7L94.42 57.1533L98.9533 56.1333L99.2933 57.1533L98.5 57.4933L100.2 59.42L103.147 60.5533L105.073 60.44L106.093 62.7067L110.06 64.6333V66.22L108.7 65.6533L109.267 69.5067L107 68.3733L106.433 69.28L100.2 61.5733L98.5 60.2133L97.48 60.44L100.2 61.8L106.093 69.5067L109.493 70.64L108.133 71.4333L110.287 71.7733L110.06 75.06L108.02 72.7933L107.567 74.9467L108.587 75.6267L107.34 76.08L102.58 71.4333L102.353 71.7733L106.207 76.08L108.36 76.6467L109.493 78.12L109.153 78.8L110.06 78.9133L109.493 80.5L108.02 81.0667L104.62 76.8733L103.373 77.44L101.56 75.06L100.427 76.6467L99.4067 75.06L98.9533 75.8533L96.0067 74.72L95.78 75.5133L98.5 76.08L99.2933 75.6267L100.087 76.6467L103.373 78.0067L104.28 77.44L104.62 79.9333L107.227 81.52L106.433 83.22L108.587 82.6533L109.72 83.22L109.493 81.52L114.14 82.0867L116.293 88.66L114.48 85.26V88.66L113.347 87.8667L113.573 88.66L84.7867 89H55.5467L5 85.94L12.7067 83.7867L13.7267 82.0867L16.56 81.52L19.5067 77.44L24.38 74.9467L29.7067 70.64L30.0467 73.5867L34.92 76.6467L37.98 74.4933L40.02 76.08L45.0067 74.9467L45.3467 73.36L46.9333 73.9267L49.9933 72.5667L51.0133 73.36L53.28 71.7733L54.3 69.8467L53.5067 68.7133L60.42 58.5133L62.5733 52.62L64.16 53.3L64.5 55L67.56 56.02L71.64 48.4267L73.4533 49.4467L79.5733 42.9867L80.7067 38L87.28 42.9867Z" fill="#BFBFBF"/>
</svg>
