<svg width="98" height="98" viewBox="0 0 128 128" fill="none" xmlns="http://www.w3.org/2000/svg">
<path d="M15.9054 81.2692L15.2062 80.9231L15.6723 79.6539L16.1384 80.5769L15.9054 81.2692ZM35.0169 67.1923L34.3177 66.5L35.0169 66.0385L35.4831 66.5L35.0169 67.1923ZM32.6863 66.0385L31.754 64.8846L32.9193 63.5L32.6863 64.1923V66.0385ZM39.2122 61.1923L40.1444 61.8846L38.5129 62.8077L39.0956 61.6539L38.746 61.4231L37.8137 62.8077L38.0468 60.2692L38.746 59.1154L39.2122 61.1923ZM38.3964 57.0385V57.7308L37.1145 57.0385L37.5807 54.7308L38.3964 57.0385ZM36.0657 47.3462L35.4831 48.1539L35.3665 46.0769L35.4831 46.4231L36.0657 47.3462ZM37.3476 39.8462L38.3964 42.1538L37.1145 41.6923L35.3665 43.4231L37.3476 44.3462L37.8137 48.5L38.3964 46.6538L40.1444 48.1539L39.9114 50.4615L38.746 48.7308H37.5807L36.8815 45.1538H36.0657L34.7839 43.4231L36.1823 40.0769L37.3476 39.8462ZM33.6185 38.3462L33.8516 39.3846L32.3367 38L33.1524 36.1538L33.6185 38.3462ZM36.0657 36.6154L35.3665 36.0385L35.4831 35.3462L36.1823 36.1538L36.0657 36.6154ZM31.5209 37.0769L31.754 38.4615L29.4233 37.6538L28.9572 35.3462L30.1225 35L31.5209 37.0769ZM33.6185 32.9231L35.0169 34.0769L34.0847 35.3462L32.9193 33.1538L33.3855 35.3462L32.4532 35.4615L31.754 34.6538L31.5209 35.3462L31.2878 34.3077L32.4532 32.9231H33.6185ZM37.1145 34.3077L35.7161 32.9231V32.4615L36.7649 33.6154L37.1145 34.3077ZM31.0548 26.9231L30.3556 27.1538V26.6923H31.2878L31.0548 26.9231ZM117.29 26L119.97 82.5385L121.602 84.8462L122.301 86.9231L121.602 88.3077L123 90.3846L90.6036 91.6538L89.2052 92.6923L82.0966 93.3846L80.6982 94.5385L76.3865 95.3462L71.9582 97.5385L65.8984 97.7692L61.7032 99.6154L57.9741 100.077L56.1096 98.2308L48.1853 97.7692L40.8436 101L33.8516 99.1539L32.9193 92L30.3556 88.5385L28.258 87.2692L25.4612 87.8462L23.3635 85.5385H20.9163L19.6345 84.6154L17.0707 85.6539L14.8566 84.2692L13.4582 84.9615L14.507 77.2308L15.6723 82.6538L16.3715 81.6154L17.5369 81.9615L16.1384 80.9231L16.488 79.1923L15.9054 77.5769L16.8377 78.1539L17.0707 75.9615L17.8865 76.6539L18.9353 76.5385L17.0707 75.1538L14.0408 75.2692L13.4582 71.3462L14.8566 72.9615V71.5769L18.2361 70.4231L15.6723 69.7308L14.1574 68.1154L12.759 70.6539V65.1154L11.1275 61.4231L10.7779 55.1923L6.58267 47.4615L6 44.1154L7.28187 40.4231L6.3496 39.0385L17.5369 44.3462L27.3257 45.7308L29.4233 44.3462L28.7241 45.0385L30.5886 47.3462L32.3367 46.0769L32.9193 48.5L33.6185 47.4615L32.9193 45.8462L34.5508 45.3846L34.3177 46.6538L36.7649 51.0385L33.8516 55.1923V51.7308L33.3855 53.1154L32.9193 52.1923L33.1524 53.8077L28.258 62.1154L29.6564 62.3462L33.1524 60.5L29.8894 61.8846L28.9572 61.4231L31.5209 57.0385L34.3177 55.6538L36.4153 51.7308L37.3476 52.4231L36.7649 49.6539L37.8137 50.4615L38.746 53.8077L37.5807 54.0385L36.8815 55.1923L36.0657 54.1538L36.8815 57.5L35.4831 55.8846L35.3665 56.5769L36.1823 57.5L35.4831 58.6538L37.3476 57.5L38.0468 58.8846L37.1145 64.4231L35.3665 63.5L36.1823 61.8846V61.1923L34.7839 62.5769L34.0847 66.2692L33.6185 61.4231L31.0548 66.0385L29.6564 66.7308L29.4233 66.9615H30.3556L29.4233 67.8846L31.5209 66.0385L30.3556 68.1154L31.5209 66.9615L31.9871 68.8077L32.6863 66.5V67.1923L33.1524 66.5L34.5508 67.8846L36.8815 65.5769L37.5807 63.2692L39.0956 64.4231L40.6106 62.3462L39.4452 57.7308L40.494 57.8462L40.6106 57.1538L39.2122 55.8846L39.7948 52.8846L41.1932 49.7692L42.9412 48.0385L40.6106 46.6538L40.494 43.7692L39.4452 43.4231L39.0956 45.0385L40.6106 47.3462L38.5129 45.7308L38.3964 43.4231H40.1444V42.0385L38.0468 40.4231L37.5807 39.0385L36.4153 39.7308L36.0657 39.1538L35.7161 37.6538L36.7649 37.3077L37.5807 38.4615V37.7692L38.746 38.4615L37.5807 35.6923L39.0956 36.3846L39.4452 36.0385L38.746 32.2308L37.5807 31.6538L36.1823 32.4615L35.3665 28.5385L34.5508 28.0769L35.4831 27.6154L35.3665 26.9231L77.7849 27.1538L117.29 26Z" fill="#BFBFBF"/>
</svg>
