<svg width="98" height="98" viewBox="0 0 128 128" fill="none" xmlns="http://www.w3.org/2000/svg">
<path d="M81.1601 40.416L80.9041 56.16L85.6401 53.088L89.8641 48.224L91.2721 47.84L93.4481 48.608L96.9041 45.152L97.6721 43.104L98.5681 43.744L98.3121 44.896L99.9761 45.536L105.224 46.176L105.864 45.408L105.48 44.512L106.248 44.128L105.864 43.36L109.32 42.848L111.752 40.672L116.616 44L119.688 43.488L120.072 44.512L119.048 44.896L119.56 46.56L120.072 45.536L120.328 47.072L121.736 46.816L120.712 48.48L122.12 49.248L122.504 52.064L120.328 57.952L108.552 48.608L106.632 54.368L106.248 57.568L102.536 62.816L100.232 64.736H98.5681L95.7521 68.96L92.6801 67.296L85.8961 80.352L80.3921 78.56L79.6241 76L77.1921 75.232L73.3521 84.96L70.6641 87.648L68.4881 93.152L63.4961 98.912L61.3201 102.88L63.1121 104.8L60.9361 106.336L61.1921 108L57.4801 110.688L55.4321 109.28L50.3121 112.096L47.7521 110.688L46.8561 113.632L38.2801 115.808L35.3361 112.864L30.3441 116.96L27.7841 116.704L23.4321 114.144L19.9761 108.64L20.6161 106.592L16.9041 105.568L12.6801 101.856L8.45612 93.92L8.71212 92.768L5.00012 87.264L6.53612 84.448L6.40812 79.072L12.4241 78.56L13.8321 74.08L16.1361 73.44L15.7521 68.32L19.5921 61.664L20.8721 61.024L22.2801 62.048L23.3041 65.632L25.0961 63.328L26.5041 63.84L25.3521 59.36L27.1441 58.592V56.544L28.6801 53.728H30.9841L32.0081 51.552L33.8001 49.632H35.0801L36.2321 51.552L39.6881 49.888L47.8801 43.104L49.1601 40.416L48.2641 38.88L49.9281 35.808V34.144L51.0801 33.888L51.5921 29.408L54.7921 21.984L54.1521 19.936L54.7921 17.504L53.3841 13.152L56.8401 12L56.4561 40.416H81.1601Z" fill="#BFBFBF"/>
</svg>
