<svg width="98" height="98" viewBox="0 0 128 128" fill="none" xmlns="http://www.w3.org/2000/svg">
<path d="M109.16 52.168H109.928L110.184 53.064L109.16 53.32L109.288 55.624L108.392 55.368L109.288 56.264L107.112 59.208L107.24 60.104L104.808 63.048L103.656 61.512L103.784 59.848L105.448 57.8L105.832 55.112L107.752 54.344L109.16 52.168ZM110.696 49.48L111.976 49.608L111.848 51.016H110.184L110.696 49.48ZM51.0476 19.528L49.8956 20.04L53.0956 17.48L53.3516 18.248L51.0476 19.528ZM53.8636 16.2V16.84L52.1996 16.456L54.2476 15.688L53.8636 16.2ZM49.7676 15.944L50.5356 17.096L47.7196 23.496L50.1516 22.856L50.5356 21.448L53.3516 23.624L55.9116 23.88L56.2956 25.032L58.7276 25.672L60.3916 29.64L76.1356 33.864L80.4876 36.168L85.2236 36.424L90.7276 37.96L92.2636 39.624L92.0076 41.416L95.4636 42.312L96.8716 43.72L96.9996 48.072L95.8476 50.76L99.0476 50.504L98.4076 54.856L100.456 56.648L99.6876 59.208L96.6156 61L93.5436 68.68L94.5676 69.448L95.5916 69.192L98.1516 66.632L100.968 62.408L103.016 61.512L104.808 63.304L101.736 74.056L102.76 76.872L100.456 79.176L99.0476 82.888L99.6876 88.136L96.6156 98.12L96.8716 103.496L99.0476 108.872L98.9196 115.4H51.5596L50.7916 112.2L45.6716 110.92L44.3916 109L43.1116 100.808L44.3916 97.352L42.5996 96.072L41.9596 93.768V87.88L41.3196 83.528L39.5276 81.48L35.5596 80.328L33.1276 78.152L31.0796 74.056L28.5196 71.752L25.5756 70.728L23.9116 68.296L20.8396 67.656L17.3836 64.456L18.5356 60.488L17.7676 57.16L18.5356 56.008V52.296L20.3276 49.48L19.0476 46.152L16.9996 46.024V43.08L19.8156 38.472L24.4236 35.912H25.5756L26.7276 34.888L26.9836 21.832H28.0076L29.9276 19.4L31.9756 21.448L34.6636 21.192L40.5516 19.4L43.6236 17.096L45.1596 17.736L47.4636 15.944L48.7436 15.304L49.7676 15.944ZM51.5596 16.456L50.4076 15.944L50.7916 15.432L51.5596 15.944V16.456ZM47.7196 15.304L47.2076 15.048L47.7196 14.408L48.1036 14.792L47.7196 15.304ZM55.9116 14.408L54.8876 14.792L55.9116 13V13.896V14.408Z" fill="#BFBFBF"/>
</svg>
